<svg class="msd-govt-logo" xmlns="http://www.w3.org/2000/svg" viewBox="0 0 256 57" width="261" height="58" fill="#121f6b" role="img" aria-hidden="true" focusable="false">
  <path class="cls-1" d="M132.4,48.6c0,1.3-.7,2-1.8,2s-1.9-.8-1.9-2.1v-3.5h-.7v3.5c0,.4,0,.7,0,1,0,.3.3.7.6.9.2.3.6.5.9.6.3,0,.7.2,1,.2s.7,0,1-.2c.3,0,.6-.4.9-.6.2-.3.4-.6.6-.9,0-.3.2-.7,0-1v-3.5h-.7v3.6"/>
  <path class="cls-1" d="M75.6,45.6h2v5.4h.7v-5.4h2v-.7h-4.8l.2.7"/>
  <path class="cls-1" d="M153,47.7h-3.5v-2.7h-.7v6h.7v-2.7h3.5v2.7h.7v-6h-.7v2.6"/>
  <path class="cls-1" d="M144.5,50.1l-1.7-5h-.6l-1.7,5-1.7-5h-.8l2.2,6.1h.6l1.7-4.9,1.7,4.9h.6l2.2-6.1h-.8l-1.7,5Z"/>
  <path class="cls-1" d="M94.9,48.4l-2.2-3.3h-.8v6h.7v-4.8l2.2,3.2,2.2-3.2v4.9h.7v-6h-.7l-2.1,3.2Z"/>
  <path class="cls-1" d="M121.4,45.6h2v5.4h.7v-5.4h2v-.7h-4.8l.2.7"/>
  <path class="cls-1" d="M129.2,43.3h2.8v.6h-2.8v-.6Z"/>
  <path class="cls-1" d="M112.1,49.9l-3.8-4.8h-.7v6h.7v-4.9l3.9,4.9h.6v-6h-.7v4.8"/>
  <path class="cls-1" d="M117.4,45l-2.7,6.1h.7l.8-1.6h3.3l.7,1.6h.8l-2.7-6.1h-.7ZM116.3,48.8l1.3-3.1,1.3,3.1h-2.7Z"/>
  <path class="cls-1" d="M82.9,48.4h3.3v-.7h-3.3v-2.1h3.7v-.7h-4.4v6h4.4v-.6h-3.7v-2h0Z"/>
  <path class="cls-1" d="M102.4,45l-2.7,6.1h.7l.8-1.6h3.2l.7,1.6h.8l-2.7-6.1h-.6ZM101.4,48.8l1.4-3.1,1.3,3.1h-2.7Z"/>
  <path class="cls-1" d="M204.1,45c-.4,0-.9,0-1.2.2-.4.2-.8.4-1,.7s-.5.7-.7,1c-.2.4-.2.8-.2,1.2s0,.9.2,1.2.4.8.7,1,.7.6,1,.8c.4.2.8.3,1.2.3s.9,0,1.2-.3c.4-.2.8-.4,1-.8.3-.3.5-.7.7-1,.2-.4.2-.9.2-1.2s0-.9-.2-1.2c-.2-.4-.4-.8-.7-1s-.7-.5-1-.7-.9-.2-1.2-.2h0ZM206.4,48.1c0,.3,0,.7-.2.9,0,.3-.3.6-.5.8s-.5.4-.8.6-.6.2-.9.2-.7,0-.9-.2c-.3,0-.6-.3-.8-.6-.2-.2-.4-.5-.5-.9,0-.3-.2-.7-.2-.9s0-.7.2-.9c0-.3.3-.6.5-.8s.5-.4.8-.6c.3,0,.6-.2.9-.2s.7,0,.9.2c.3,0,.6.3.8.6.2.2.4.5.5.9,0,.3.2.7.2.9Z"/>
  <path class="cls-1" d="M195,45.6h2v5.4h.7v-5.4h2v-.7h-4.8l.2.7"/>
  <path class="cls-1" d="M215.3,45c-.4,0-.9,0-1.2.2-.4.2-.8.4-1,.7s-.5.7-.7,1c-.2.4-.2.8-.2,1.2s0,.9.2,1.2.4.8.7,1,.7.6,1,.8c.4.2.8.3,1.2.3s.9,0,1.2-.3c.4-.2.8-.4,1-.8.3-.3.5-.7.7-1s.2-.9.2-1.2,0-.9-.2-1.2c-.2-.4-.4-.8-.7-1s-.7-.5-1-.7c-.4,0-.9-.2-1.2-.2h0ZM217.7,48.1c0,.3,0,.7-.2.9,0,.3-.3.6-.5.8s-.5.4-.8.6c-.3,0-.6.2-.9.2s-.7,0-.9-.2c-.3,0-.6-.3-.8-.6-.2-.2-.4-.5-.5-.9,0-.3-.2-.7-.2-.9s0-.7.2-.9c0-.3.3-.6.5-.8s.5-.4.8-.6c.3,0,.6-.2.9-.2s.7,0,.9.2c.3,0,.6.3.8.6.2.2.4.5.5.9.2.3.3.7.2.9Z"/>
  <path class="cls-1" d="M185.6,45.1h.7v6h-.7v-6Z"/>
  <path class="cls-1" d="M229.8,45l-2.7,6.1h.7l.8-1.6h3.2l.7,1.6h.8l-2.7-6.1h-.6ZM228.8,48.8l1.4-3.1,1.3,3.1h-2.7Z"/>
  <path class="cls-1" d="M225.2,46.9c0-.2,0-.5,0-.7s-.2-.4-.4-.6c-.5-.4-1-.7-1.7-.6h-2.6v6h.7v-2.4h1.7l1.8,2.4h.9l-1.9-2.5c.5,0,.9-.3,1.1-.6.3-.3.5-.8.5-1.1h0ZM221.1,48.1v-2.4h1.9c.9,0,1.5.5,1.5,1.2s-.7,1.2-1.5,1.2h-1.9"/>
  <path class="cls-1" d="M182.5,47.7h-3.5v-2.7h-.7v6h.7v-2.7h3.5v2.7h.7v-6h-.7v2.6"/>
  <path class="cls-1" d="M190.9,45l-2.7,6.1h.7l.8-1.6h3.3l.7,1.6h.8l-2.7-6.1h-.7ZM189.9,48.8l1.4-3.1,1.3,3.1h-2.7Z"/>
  <path class="cls-1" d="M168.7,45.1h-.9l-3.5,3.6v-3.6h-.7v6h.7v-1.6l1.3-1.3,2.3,2.9h.9l-2.7-3.4,2.7-2.6"/>
  <path class="cls-1" d="M158.3,45l-2.7,6.1h.7l.8-1.6h3.3l.7,1.6h.8l-2.7-6.1h-.7ZM157.3,48.8l1.4-3.1,1.3,3.1h-2.7Z"/>
  <path class="cls-1" d="M173.1,45l-2.7,6.1h.7l.8-1.6h3.3l.7,1.6h.8l-2.7-6.1h-.7ZM172,48.8l1.4-3.1,1.3,3.1h-2.7Z"/>
  <path class="cls-1" d="M97,35.9h-6v-2.1h5.2v-2.4h-5.2v-2h6v-2.4h-8.5v11.4h8.6v-2.6h0Z"/>
  <path class="cls-1" d="M149.2,27h-4.6v11.3h2.7v-3.3h1.8c2.7,0,4.5-1.5,4.5-4,0-2.5-1.8-4-4.4-4h0ZM151,31c0,.2,0,.5-.2.7,0,.2-.2.4-.4.6-.2.2-.4.3-.6.3-.2,0-.5,0-.7,0h-1.8v-3.2h1.8c1,0,1.8.6,1.8,1.6"/>
  <path class="cls-1" d="M102.8,38.2h2.3l4.5-11.2h0c0,0-2.7,0-2.7,0l-2.8,7.8-2.8-7.7h-2.8l4.4,11.2"/>
  <path class="cls-1" d="M130,35.9h-5.5v-8.9h-2.7v11.3h8.1v-2.4Z"/>
  <path class="cls-1" d="M119.6,35.9h-6v-2.1h5.2v-2.4h-5.2v-2h6v-2.4h-8.5v11.4h8.6v-2.6"/>
  <path class="cls-1" d="M80.8,27h-4.4v11.3h4.4c.8,0,1.5,0,2.3-.3.8-.3,1.4-.7,2-1.2s1-1.1,1.3-1.9c.3-.7.5-1.5.5-2.3s-.2-1.5-.5-2.3c-.3-.7-.8-1.3-1.3-1.9-.6-.6-1.2-.9-2-1.2-.8,0-1.5-.2-2.3-.2h0ZM84,32.7c0,.5,0,.9-.2,1.2-.2.4-.4.8-.7,1-.3.3-.7.6-1,.7-.4.2-.9.2-1.2.2h-1.8v-6.5h1.8c.5,0,.9,0,1.2.2s.8.4,1,.7.6.7.7,1c.2.6.3,1,.2,1.5"/>
  <path class="cls-1" d="M142.7,32.6c0-.8-.2-1.5-.5-2.3-.3-.8-.8-1.3-1.3-1.9-.6-.6-1.2-.9-2-1.2s-1.5-.4-2.3-.4-1.5,0-2.3.4c-.8.3-1.4.7-2,1.2s-1,1.2-1.3,1.9c-.3.8-.5,1.5-.5,2.3s.2,1.5.5,2.3c.3.8.8,1.3,1.3,1.9.6.6,1.2.9,2,1.2s1.5.4,2.3.4,1.5,0,2.3-.4,1.4-.7,2-1.2,1-1.2,1.3-1.9.5-1.5.5-2.3ZM140,32.6c0,.5,0,.9-.2,1.3-.2.4-.4.8-.7,1.1-.3.3-.7.6-1,.8-.4.2-.9.3-1.3.3s-.9,0-1.3-.3c-.4-.2-.8-.5-1-.8s-.6-.7-.7-1.1c-.2-.4-.2-.9-.2-1.3s0-.9.2-1.3c.2-.4.4-.8.7-1.1.3-.3.7-.6,1-.8.4-.2.9-.3,1.3-.3s.9,0,1.3.3c.4.2.8.5,1,.8s.6.7.7,1.1c0,.5.2.9.2,1.3Z"/>
  <path class="cls-1" d="M180.2,38.2h2.6v-6.9l5.2,6.9h2.2v-11.3h-2.6v6.6l-5-6.6h-2.4v11.3"/>
  <path class="cls-1" d="M158.1,31.2l2.9,4.4h.2l2.9-4.5v7.1h2.7v-11.3h-2.7l-2.8,4.6-2.8-4.5h-2.7v11.3h2.6v-7.1"/>
  <path class="cls-1" d="M171.9,33.7h5.2v-2.4h-5.2v-2h6v-2.4h-8.5v11.4h8.6v-2.4h-6v-2.3"/>
  <path class="cls-1" d="M198,38.2v-8.9h3.4v-2.4h-9.4v2.4h3.4v8.9h2.6"/>
  <path class="cls-1" d="M126.6,22.4h2.7v-8.8h3.4v-2.4h-9.4v2.4h3.4v8.8"/>
  <path class="cls-1" d="M90.5,11.2h2.7v11.3h-2.7v-11.3Z"/>
  <path class="cls-1" d="M149.9,15.5l-2.6-4.4h-3l4.4,6.8v4.4h2.7v-4.4l4.4-6.8h-3l-2.7,4.4"/>
  <path class="cls-1" d="M235,11.1h-2.4l-4.8,11.2h0c0,0,2.7,0,2.7,0l1-2.5h4.5l1,2.5h2.7l-4.9-11.3h0ZM232.4,17.6l1.3-3.2,1.3,3.2h-2.7Z"/>
  <path class="cls-1" d="M82,15.7l-2.8-4.5h-2.8v11.3h2.6v-7l2.9,4.4h.2l2.9-4.5v7.1h2.7v-11.3h-2.7l-2.8,4.5"/>
  <path class="cls-1" d="M176.8,18.1h5.3v-2.4h-5.3v-2.2h6v-2.4h-8.6v11.3h2.7v-4.4Z"/>
  <path class="cls-1" d="M166.6,22.6c.8,0,1.5,0,2.3-.4.8-.3,1.4-.7,2-1.2.6-.6,1-1.2,1.3-1.9.3-.8.5-1.5.5-2.3s-.2-1.5-.5-2.3-.8-1.3-1.3-1.9c-.6-.6-1.2-.9-2-1.2s-1.5-.4-2.3-.4-1.5,0-2.3.4c-.8.3-1.4.7-2,1.2-.6.6-1,1.2-1.3,1.9-.3.8-.5,1.5-.5,2.3s0,1.5.5,2.3c.3.8.8,1.3,1.3,1.9.6.6,1.2.9,2,1.2.7.3,1.4.5,2.3.4ZM163.3,16.8c0-.5,0-.9.2-1.3.2-.4.4-.8.7-1.1.3-.3.7-.6,1-.8s.9-.3,1.3-.3.9,0,1.3.3c.4.2.8.5,1,.8s.6.7.7,1.1c.2.4.2.9.2,1.3s0,.9-.2,1.3c-.2.4-.4.8-.7,1.1-.3.3-.7.6-1,.8s-.9.3-1.3.3-.9,0-1.3-.3c-.4-.2-.8-.5-1-.8s-.6-.7-.7-1.1c0-.5-.2-.9-.2-1.3Z"/>
  <path class="cls-1" d="M243.9,20v-8.9h-2.6v11.3h8.1v-2.4h-5.6"/>
  <path class="cls-1" d="M223.7,11.2h2.7v11.3h-2.7v-11.3Z"/>
  <path class="cls-1" d="M193,20.3c-1.2,0-2.4-.5-3.2-1.3h0l-1.5,1.9h0c1.3,1.1,3,1.8,4.8,1.8,2.6,0,4.2-1.3,4.2-3.5s-1.4-2.8-3.6-3.4c-1.9-.5-2.3-.8-2.3-1.3s.6-.9,1.3-.9c1,0,2,.5,2.8,1h0l1.3-2h0c-1.1-.9-2.7-1.4-4.2-1.4-2.4,0-4,1.4-4,3.4s1.6,2.9,3.7,3.5c1.9.5,2.2.8,2.2,1.3,0,.5-.7.9-1.6.9"/>
  <path class="cls-1" d="M137,18.8h1.8l2.4,3.6h2.9v-.2c0,0-2.6-3.9-2.6-3.9.7-.3,1.3-.8,1.7-1.3.4-.7.7-1.3.6-2.1,0-.5,0-.9-.2-1.4-.2-.5-.4-.9-.8-1.2-.5-.4-.9-.8-1.5-.9s-1.1-.3-1.8-.3h-5.1v11.3h2.7v-3.5h0ZM137,13.5h2.4c1.2,0,1.8.6,1.8,1.5s-.7,1.5-1.8,1.5h-2.4v-3Z"/>
  <path class="cls-1" d="M118,20.3c-1.2,0-2.4-.5-3.2-1.3h0l-1.5,1.9h0c1.3,1.1,3,1.8,4.8,1.8,2.6,0,4.2-1.3,4.2-3.5s-1.4-2.8-3.6-3.4c-1.9-.5-2.3-.8-2.3-1.3s.6-.9,1.3-.9c1,0,2,.5,2.8,1h0l1.3-2h0c-1.1-.9-2.7-1.4-4.2-1.4-2.4,0-4,1.4-4,3.4s1.6,2.9,3.7,3.5c1.9.5,2.2.8,2.2,1.3s-.6.9-1.6.9"/>
  <path class="cls-1" d="M204.2,11c-.8,0-1.5,0-2.3.4-.8.3-1.4.7-2,1.2-.6.6-1,1.2-1.3,1.9s-.5,1.5-.5,2.3.2,1.5.5,2.3.8,1.3,1.3,1.9c.6.6,1.2.9,2,1.2s1.5.4,2.3.4,1.5,0,2.3-.4c.8-.3,1.4-.7,2-1.2.6-.6,1-1.2,1.3-1.9s.5-1.5.5-2.3-.2-1.5-.5-2.3-.8-1.3-1.3-1.9c-.6-.6-1.2-.9-2-1.2s-1.5-.5-2.3-.4ZM207.5,16.8c0,.5,0,.9-.2,1.3-.2.4-.4.8-.7,1.1-.3.3-.7.6-1,.8s-.9.3-1.3.3-.9,0-1.3-.3c-.4-.2-.8-.5-1-.8s-.6-.7-.7-1.1c-.2-.4-.2-.9-.2-1.3s0-.9.2-1.3c.2-.4.4-.8.7-1.1.3-.3.7-.6,1-.8s.9-.3,1.3-.3.9,0,1.3.3c.4.2.8.5,1,.8s.6.7.7,1.1c.2.5.2.9.2,1.3Z"/>
  <path class="cls-1" d="M108.5,11.2h2.7v11.3h-2.7v-11.3Z"/>
  <path class="cls-1" d="M103.6,22.4h2.2v-11.3h-2.6v6.7l-5.1-6.7h-2.4v11.3h2.6v-6.9l5.3,6.9"/>
  <path class="cls-1" d="M221.9,20.5h0l-1.6-1.8h0c-.4.4-.8.8-1.3.9-.5.2-1,.4-1.5.4s-.9,0-1.2-.3-.8-.5-1-.8-.5-.7-.7-1.1c-.2-.4-.2-.9-.2-1.2s0-.9.2-1.2.4-.8.7-1c.3-.3.7-.6,1-.8s.9-.3,1.2-.3c1,0,2.1.5,2.7,1.2h0c0,0,1.6-1.8,1.6-1.8h0c0,0,0-.2,0-.2-.6-.6-1.2-1-2-1.3s-1.6-.5-2.4-.4c-.8,0-1.5,0-2.3.4s-1.3.8-1.9,1.2c-.6.6-.9,1.2-1.2,1.9-.3.8-.5,1.5-.4,2.3,0,.8,0,1.5.4,2.3.3.8.7,1.4,1.2,2s1.2,1,1.9,1.3c.8.3,1.5.5,2.3.4.9,0,1.7,0,2.6-.5s1.4-.9,2-1.6"/>
  <path class="cls-1" d="M33.5,54.7c-.3,0-1.2-.2-.2-.3.5-.9.3,0,.2.3Z"/>
  <path class="cls-1" d="M40.2,55.1s0,0,0,.2q0,0,0-.2c0,.2-.2,0-.2,0,0,0-.2,0,0-.2,0,.2-.3.2,0-.2-.2.3-.3,0,0-.2-.2.3-.3,0-.2-.2-.2.4-.4,0-.2-.3-.3.5-.4,0-.2-.3-.3.6-.5,0-.3-.3-.4.6-.5,0-.4-.5-.4.9-.6.2-.4-.6-.4,1.1-.7,0-.4-.5.7,0,1.7.4.4.5.8,0,1.4.4.5.5.6,0,1,.2.4.5.5,0,.9.2.3.3.4,0,.8,0,.2.3.4,0,.7.2.2.3.3,0,.5,0,.2.2.2,0,.5,0,0,.2.4,0,.3,0,0,.2.3,0,.3,0,0,0,0,.2.2.3,0,.3Z"/>
  <path class="cls-1" d="M39.1,55.6q0,0,0,0c0,0,0,0,0,0q0,0,0,0c0,.2-.2.2,0,0-.2.3-.2,0,0-.2-.2.3-.3,0-.2-.2-.2.4-.3,0-.2-.2-.2.5-.3,0-.2-.2-.3.5-.4,0-.3-.3-.4.6-.5,0-.4-.4-.3.9-.5.2-.4-.5-.3,1.1-.6,0-.4-.4.6-.2,1.5.3.4.4.7,0,1.3.3.4.5.5,0,1,0,.4.4.5,0,.9,0,.3.3.3,0,.8,0,.2.2.3,0,.6,0,.2.2.3,0,.5,0,.2.2.2,0,.4,0,0,.2.3,0,.3,0,0,0q.3,0,0,0c.2,0,.2,0,0,0,0,0,0,0,0,0Z"/>
  <path class="cls-1" d="M37.9,55.9h0q0,0,0,0c0,0-.2,0-.2,0q0,0,0,0c0,.2-.2.2,0,0,0,.3-.2,0,0,0-.2.2-.3,0-.2-.2,0,.4-.3,0-.2-.2-.2.5-.3,0-.2-.2-.2.5-.4.2-.3-.2-.3.6-.4,0-.4-.3-.2.8-.5.2-.4-.4-.2,1-.6,0-.4-.4.5-.2,1.4,0,.4.4.6,0,1.2.2.4.4.5,0,.9,0,.4.3.4,0,.8,0,.3.3.3,0,.7,0,.2.2.3,0,.6,0,.2.2.2,0,.4,0,.2.2.2,0,.4,0,0,0,.3,0,.3,0,0,0q.2,0,0,0c.2,0,.3,0,.2,0Z"/>
  <path class="cls-1" d="M37.1,56.2h0c0,0,0,0,0,0q0,0,0,0t0,0c0,0-.2.2,0,0,0,.2-.2,0,0,0,0,.2-.2,0-.2-.2,0,.3-.3,0-.2-.2,0,.5-.3,0-.2-.2,0,.5-.3.2-.3-.2-.2.6-.4,0-.4-.3,0,.8-.4.2-.4-.3,0,.9-.5.2-.4-.3.5-.2,1.3,0,.4.3.6,0,1.1,0,.4.3.4,0,.9,0,.4.3.4-.2.7,0,.3.2.3,0,.7,0,.2.2.3,0,.5,0,.2.2.2,0,.4,0,.2.2.2,0,.4,0,0,0,.3,0,.3,0,0,0q.2,0,0,0c0,0,.2,0,0,0Z"/>
  <path class="cls-1" d="M36,56.9s0,0,0,0q0,0,0,0t0,0,0,0c0,0-.2,0,0,0,0,.2-.2,0,0,0,0,.2-.2,0-.2,0,0,.3-.2,0-.2-.2,0,.4-.2,0-.2-.2-.2.4-.3,0-.2-.2-.2.5-.3,0-.3-.3,0,.6-.4.2-.3-.3-.2.8-.4,0-.3-.3.4,0,1.1,0,.3.3.5,0,.9.2.3.3.4,0,.8,0,.3.3.3,0,.6,0,.2.2.2,0,.6,0,.2.2.2,0,.4,0,.2,0,.2,0,.3,0,0,0,0,0,.3,0,0,0,.2,0,.2,0,0,0q.2,0,0,0c.2,0,.2.2.2.2Z"/>
  <path class="cls-1" d="M34.3,54.1c.3,0,1.4-.3.4.3-.4,1.1-.5,0-.4-.3Z"/>
  <path class="cls-1" d="M28.6,51.6c.7-.6,1.4-1.2,2.1-1.9h0q0,0,0,0l-1.1-.3c-.2,0-.3,0-.7-.2,0,0,0,0,0,0h0c0,.2-.2.5-.2.6h0q0,0,0,0c0,0,0-.2.3-.2s.4,0,.6,0l.7.2c-.7.6-1.4,1.2-2.1,1.9h0q0,0,0,.2c.8.2,1.3.4,1.9.5q0,0,0,0c0,0,.2-.3.2-.4h0q0,0,0,0s0,0,0,.2c0,0-.3,0-.6,0l-.8-.4Z"/>
  <path class="cls-1" d="M31.2,51.3v.8c0,0,0,.2,0,.2h-.2,1.7c0,0,.2,0,.2,0s0-.3,0-.4h0c0,0,0,0-.2,0q0,.2,0,.3c0,0-.4,0-.5,0-.4,0-.5,0-.5-.3v-.9h.6c0,0,.2,0,.2,0h0q0,0,0,0v-.5h0s0,0-.2,0h-.6v-.9h.6c.2,0,.2,0,.3,0h0v.2h0v-.4h-1.9.3c0,0,.2,0,.2.2v1.3h.2Z"/>
  <path class="cls-1" d="M36.2,50.1c-.2-.5-.2-.6-.2-.8s0-.2,0-.2c0,0,0,0,0,0,0,0,0,0,0,0h0c0,0-.4,0-.5.2,0,0-.3,0-.5.2q0,0,0,0h.2c0,0,.2,0,.2,0s0,.2.3.7l.2.6c0,.3.2.6.2.8v.2s0,0,0,0h0,0c0,0,.4,0,.5-.2.3,0,.6-.2,1-.3q.2,0,.2-.2c0,0,0-.4,0-.4h0q0,0,0,0v.2c0,0-.2.2-.4.2-.3,0-.4,0-.5,0s-.2-.3-.3-.7l-.4-.5Z"/>
  <path class="cls-1" d="M39.2,49.7l-.7.2h0v-.9h0l.7.8c0,0,0,0,0,0ZM40.7,50.3h-.2c0,0-.2,0-.5-.3-.4-.5-1.4-1.6-1.6-1.8h0c0,0,0,0,0,0l-.2,2.4c0,.2,0,.3-.2.4h0,0c.2,0,.4-.2.4-.2,0,0,.3,0,.4,0,0,0,0,0,0,0h-.2c0,0-.2,0-.2,0v-.8h0l.8-.3h0l.6.6h0c0,0,0,0,0,.2h0c.3,0,.6-.2.7-.2l.4.2q0,0,0,0Z"/>
  <path class="cls-1" d="M41.2,48.2h0c0,0,.6.5,1,.8s.9.7,1.2.9h0q0,0,0,0l-.3-2.2c0-.2,0-.3,0-.3h.2,0c-.2,0-.3,0-.4,0s-.3,0-.5,0h0,.3c0,0,0,0,.2.3l.3,1.6h0c0,0-.7-.5-.9-.7-.6-.5-1.2-.9-1.3-.9q0,0-.2,0h0c0,0,.3,2.2.3,2.2,0,.3,0,.4,0,.5h-.3,0c.2,0,.4,0,.4,0,0,0,.2,0,.5,0h0-.3c0,0,0,0-.2-.4v-1.6Z"/>
  <path class="cls-1" d="M46.5,49.1c0,.4-.2.7-.5.8s-.5.2-.9,0c-.3,0-.4-.2-.5-.3v-.3c0,0,0-.4,0-.7v-.5c.2-.3.2-.6.3-.7,0,0,0,0,0,0h.3c.3,0,.7.2.9.6,0,.3.2.6,0,1ZM46.7,48.2c-.3-.5-.9-.6-1.4-.7-.2,0-.5,0-.6,0s-.3,0-.5,0h0,.2q0,0,0,.2c0,0,0,.2-.2.8v.6c-.2.3-.2.6-.3.8,0,0,0,.2-.2.2h-.2,0c.2,0,.4.2.5.2.2,0,.5.2.8.2.7.2,1.1,0,1.3-.2.3-.2.5-.5.6-.9.2-.4,0-.8,0-.9Z"/>
  <path class="cls-1" d="M34.4,51h-.7c0,0,.2-.9.2-.9h0l.5.9h0ZM35.9,51.9h-.2c0,0-.2,0-.4-.4-.3-.5-1.1-1.8-1.2-2h0c0,0,0,0,0,0l-.6,2.4c0,.2,0,.3-.3.4h0,0c.2,0,.4,0,.5,0h.5-.2c0,0-.2,0-.2,0v-.8h.9c0,0,.4.6.4.6h0c0,0,0,0,0,0h0c.3,0,.6,0,.7,0q.3,0,.3,0h0Z"/>
  <path class="cls-1" d="M31.4,54.3c1,0,0,.4-.2.3,0-.2-.4-1.1.2-.3Z"/>
  <path class="cls-1" d="M30,54.3c0,.5-.3,1.2-.4.3,0,.6-.3,1-.4.3,0,.4-.2.9-.4.3,0,.4,0,.7-.3.2,0,.3,0,.6-.2.2,0,.3,0,.5-.2.2,0,.2,0,.4-.2.2,0,.2,0,.3,0,0,0,.3,0,.2,0,0q0,.2,0,0c0,0,0,.2,0,0,0,0,0,0,0,0,0,0,0,0,0,0,0,0,0,0,0,0q0-.2,0-.2c0,0,0-.2,0,0-.2,0,0-.2,0,0-.2-.2,0-.3.2-.2-.3-.2,0-.3.2-.2-.4-.2,0-.3.2-.2-.5-.2,0-.4.3-.2-.5-.3,0-.4.4-.3-.8-.3,0-.4.4-.3-.9-.2,0-.4.4-.2Z"/>
  <path class="cls-1" d="M30.4,54.1c0,.3,0,1.4-.4.3-1-.5,0-.4.4-.3Z"/>
  <path class="cls-1" d="M30.7,55.1c0,.4,0,1-.3.3,0,.5-.2.9-.3.3,0,.4,0,.7-.3.3,0,.3,0,.6-.2.2,0,.2,0,.5-.2.2,0,.2,0,.4-.2.2,0,.2,0,.3-.2,0,0,0,0,.3,0,0,0,.2,0,.2,0,0q0,.2,0,0c0,0,0,.2,0,0,0,0,0,0,0,0,0,0,0,0,0,0,0,0,0,0,0,0q0,0,0,0c0,0,0-.2,0,0-.2,0,0-.2,0,0-.2,0,0-.2,0,0-.3,0,0-.2.2,0-.4-.2,0-.2.2-.2-.4-.2,0-.3.2-.2-.5-.2,0-.3.3-.3-.7-.2-.2-.4.3-.3-.7-.3,0-.5.4-.4Z"/>
  <path class="cls-1" d="M27.1,52.1c.3.6,0,1.7-.4.5,0,.7,0,1.4-.4.6,0,.6,0,1-.4.5.2.5,0,.9-.3.3.2.3,0,.8-.2.3.2.3,0,.7-.2.3,0,.3,0,.5-.2.2,0,.2,0,.5,0,.2,0,.3,0,.3,0,.2,0,.3,0,.3,0,.2,0,.2,0,.3,0,.2,0,0,0,0,0,0,0,0,0,0,0-.2,0,0,0,0,0,0,0,0-.2,0,0,0-.2,0-.2-.2,0-.2-.3,0,0-.2,0-.2-.3,0,0-.3.2-.2-.5,0-.2-.3.2-.3-.6,0,0-.3.2-.3-.7-.2-.2-.4.3-.3-.8-.3-.2-.5.4-.5-.9,0-.3-.5.5-.5-1.4-.3-.4-.9.3-.7Z"/>
  <path class="cls-1" d="M28.2,52.8c.2.6,0,1.5-.4.4,0,.7-.2,1.3-.4.5,0,.5,0,.9-.4.4.2.4,0,.8-.3.3,0,.3,0,.8-.2.2,0,.3,0,.6-.2.2,0,.3,0,.5-.2.2,0,.2,0,.4,0,.2,0,.3,0,.3,0,0,0,.2,0,.3,0,0,0,.2,0,.2,0,0,0,0,0,0,0,0,0,0,0,0,0,0,0,0,0,0,0,0q0,0,0,0c-.2,0-.2-.2,0,0-.3,0,0-.2,0-.2-.3-.2,0-.3.2-.2-.4,0,0-.3.2-.2-.6-.2,0-.3.2-.2-.6-.2-.2-.4.3-.3-.7-.3,0-.4.4-.4-.9-.2-.3-.5.4-.5-1.1-.2-.2-.6.4-.4Z"/>
  <path class="cls-1" d="M29.1,53.6c.2.5-.2,1.4-.4.4,0,.6-.3,1.1-.4.4,0,.5,0,.9-.4.3,0,.4,0,.8-.3.2,0,.3,0,.7-.2.2,0,.3,0,.6-.2.2,0,.2,0,.4-.2.2,0,.2,0,.4,0,0,0,.3,0,.3,0,0q0,.2,0,0c0,.2,0,.2,0,0h0c0,0,0,0,0,0,0,0,0,0,0,0q0,0,0,0c0,0-.2-.2,0,0-.3,0,0-.2,0,0-.2-.2,0-.3.2-.2-.4,0,0-.3.2-.2-.5-.2,0-.3.2-.2-.5-.2-.2-.4.3-.3-.6-.3,0-.4.4-.3-.8-.2-.2-.5.4-.4-1-.2,0-.5.4-.3Z"/>
  <path class="cls-1" d="M21.2,48.8c0,.3,0,.6,0,.8s0,.2,0,.2h-.2.6c.2,0,.5,0,1,0s.2,0,.2,0,0-.3,0-.4h0q0,0,0,0c0,0,0,.2-.2.3h-.4c-.4,0-.5,0-.4-.4,0,0,0-.4,0-.6v-.3h0c0,0,.5,0,.6,0,0,0,.2,0,.2.2h0q0,0,0,0v-.2c0-.2,0-.2,0-.3h-.9v-.9h0c0,0,.5,0,.6,0,.2,0,.2,0,.2.2h0v.2h0v-.2q0-.2,0-.2h-.3c0,0-.9,0-.9,0s-.4,0-.6,0h0,.3c0,0,.2,0,0,.2,0,0,0,.2,0,.8v.6Z"/>
  <path class="cls-1" d="M23.6,50.3v.2s0,0,.2,0c.3-.3,1.1-1.3,1.2-1.4h0l.2,1.9c0,0,0,.2,0,.2,0,0,0,0,.2,0,.4-.5,1-1.4,1.3-1.8,0-.2.2-.3.3-.3h.2,0c0,0-.3-.2-.3-.2,0,0-.2,0-.4,0h0,0c0,0,.2.2,0,.3,0,0,0,0,0,.2-.3.4-.9,1.1-.9,1.3h0l-.2-1.9c0,0,0-.2,0-.2,0,0,0,0,0,0l-1.2,1.5h0v-2s0,0,0,0h.2,0c-.2-.2-.4-.2-.4-.2,0,0-.2,0-.4-.2h0c0,0,0,0,0,.2s0,0,0,.3v2.4Z"/>
  <path class="cls-1" d="M14.4,48.9h0c0,0-.3-.2-.4-.5-1.3-.3,0-.5.3-.4,0,.2.2.7,0,.9Z"/>
  <path class="cls-1" d="M12.3,48.3c0,.6-.2,1.2-.4.4,0,.5,0,.9-.4.4,0,.4,0,.8-.3.2,0,.3,0,.7-.2.2,0,.3,0,.6-.2.2,0,.2,0,.4-.2.2,0,.2,0,.4,0,0,0,.3,0,.3,0,0q0,.2,0,0c0,.2,0,.2,0,0h0c0,0,0,0,0,0,0,0,0,0,0,0q0,0,0,0c-.2,0-.2-.2,0,0-.3,0,0-.2,0,0-.3-.2,0-.3.2-.2-.4,0,0-.3.2-.2-.5-.2,0-.3.2-.2-.5-.2-.2-.4.3-.3-.6-.3,0-.4.4-.4-.9,0-.3-.3.4-.3-1-.2-.2-.6.4-.4,0,.6-.2,1.4-.4.4Z"/>
  <path class="cls-1" d="M13,47.4c-.3-.2-1.1-1.1,0-.5,1.3-.5.3.4,0,.5Z"/>
  <path class="cls-1" d="M15.3,50.9l-.5.2v-.4c0,0,0,0,0,0h0l.4-.2.2.5Z"/>
  <path class="cls-1" d="M27.4,50.5l.5-.2v-.5c0,0-.6.2-.6.2v.5Z"/>
  <path class="cls-1" d="M9.4,46c0,.4-.5.9-.4.2,0,.5-.5.8-.4.2,0,.3-.3.7-.3.2,0,.3-.2.5-.2,0,0,.2-.2.5-.2,0,0,.2-.2.4-.2,0,0,.2,0,.3-.2,0,0,0,0,.3,0,0,0,.2,0,.2,0,0,0,.2,0,.2,0,0,0,0,0,0,0,0h0s0,0,0,0c0,0,0,0,0,0q0,0,0,0c0,0,0-.2,0,0-.2-.2,0-.2,0,0,0-.2,0-.2.2,0-.2-.2,0-.2.2,0-.3-.3,0-.2.2,0-.3-.3,0-.3.2,0-.3-.4,0-.3.3-.2-.5-.3,0-.4.4-.2-.7-.4,0-.4.4-.2Z"/>
  <path class="cls-1" d="M9.6,45.9c0,.3-.3,1.1-.3.2-.8-.7,0-.4.3-.2Z"/>
  <path class="cls-1" d="M54.8,45.9c0,0,0-.2,0-.2h0c0,0,.2,0,.3.2,0,0-.2,0-.2,0ZM54.7,46.4s0,0,0,0c0,0,0,0,0,0h0q0,0,0-.2s0,0,0,0h0q0,.2,0,.2h0v.2h0c0,.2,0,.2,0,.2h0v-.3h0c0,0,0,0,0,0h0c0,0,0,.2,0,.4h0c0,0,0,0,0,0h0v-.6q0,0,0-.2h0c0,.2,0,.3,0,.3v.5c0,0,0,0,0,0h0v-.2h0v-.2c0,0,0-.2,0-.4h0c0,.2,0,.3,0,.4v.2h0v.2s0,0,0,0c0,0-.2,0-.3,0h-.2c0-.2,0-.4,0-.5h0c0-.2,0-.4,0-.6h0v-.6h0c0-.2,0-.3,0-.4h0c0-.2,0-.3,0-.4h0v-.3h0v-.4c0-.3,0-.5,0-.7v-.4c.5-.3,1-.6,1.6-.9h0c-.3,1-.5,1.6-.3,2.2,0,.4.2.7.3.9q0,0,0,.2h0c0,.3,0,.4,0,.4,0,0,0,0,0,.2h0c-.5,0-.5.2-.5.3ZM52.7,43.7h0ZM60.8,38.6h0c0,0-.2,0-.3.3h0,0c0,.2,0,.2,0,.3h0c0,0,0,0,0,0h0c0,0,0,0,0,0,0,.2-.2.3-.3.6h0c0,.3-.2.5-.3.6,0,.2-.3.5-.4.7l-.2-.2h0v.3h.2c-.3.5-.7,1-1,1.5-.4.5-.8.9-1.1,1.3h0c-.6.6-1.2,1.2-2.1,1.7.2-.2.7-.9,0-.3,0,0-.3,0-.3,0v-.2c0,0,.2.2.4.3.3-.2.6-.9,0-.4.3-.4.4-.9,0-.4.2-.3.4-.6,0-.4.3-.2.3-.5,0-.3.2,0,.3-.4,0-.2.2,0,.2-.4,0-.2.2,0,.2-.3,0-.2,0,0,.2-.2,0,0,.2,0,0-.2,0,0q0,0,0,0c0,0,0-.2,0,0h0c0,0,0,0,0,0,0,0,0,0,0,0q0,0,0,0c0,0-.2,0,0,0-.2,0,0,0,0,0-.2,0-.2,0,0,.2-.3,0-.2,0,0,.2-.4,0-.2.2,0,.2-.4,0-.3.2,0,.3-.5,0-.3.2,0,.4-.6-.3-.3.2,0,.4-.2,0-.3,0-.4,0,0-.3-.2-.5-.3-.8-.2-.5,0-1,.3-2v-.3c.2,0,.3,0,.3,0,.3-.2.6-.4.9-.5.6-.4,1.4-.7,2.2-.9.9-.4,1.6-.7,1.7-.9,0,0,0-.3,0-.5h0l-.5-.2-.7,1.2h0c0,0,0,0,0,0l-1.3-.4-.8,1.3h0c0,0-1-.2-1-.2l-.9,1.4h0c0,0,0,0,0,0h0l-1.1-.3-.9,1.3h0l-.9-.4h0v.8h.3s0,0,0,0c0,0-.2,0,0,.2-.2,0-.3,0,0,.2-.3,0-.2,0,0,.2-.3,0-.2.2,0,.3-.4,0-.3,0,0,.3-.5-.2-.3.2,0,.3-.5-.2-.4.2,0,.4-.7-.2-.4.2,0,.5-.8-.4-.5.2,0,.6-.9-.6-.5.3,0,.6.5-.3.9-1.1,0-.6.4-.4.7-1,0-.6.3-.3.6-.8,0-.5.4-.2.5-.6,0-.4.3-.2.4-.5,0-.3.3-.2.3-.5,0-.3.2,0,.3-.3,0-.3.2,0,.3-.3,0-.2.3-.2,0-.2,0-.2.2-.2,0-.2,0-.2q0,0,0-.2c.3,0,.8-.3,1.2-.6v.7h0c.2,0,0-.2,0-.2,0,0,0-.2,0-.2h0c0,0,0,0,0,0,0,0,0,0,0,.2,0,0-.2,0,0,0,0,0-.2,0,0,.2-.3,0-.2,0,0,.2-.3,0-.2,0,0,.2-.3,0-.3,0,0,.3h0c-.4,0-.2.2,0,.3-.5-.2-.3.2,0,.3-.6-.2-.3.2,0,.5-.7-.4-.4.2,0,.6-.8-.5-.5.2,0,.5h0,0c-.9-.4-.2.3,0,.5h0c-.7.3-1.4.7-2.4.9-.7.2-1.4.4-2.3.6v.2h0c.3,0,.6,0,.8-.2.6,0,1-.3,1.5-.4.5-.2.9-.3,1.3-.5,0,.4,0,1.5.4.3.3-.6-.7-.6-1-.6.4-.2.7-.3.9-.5,0,.3,0,1.4.4.3.2,0,.3,0,.4-.2h0c0,0,.2,0,.2,0h0q0,0,.2,0c0,.2.2.3.3-.2h0c0,.5.4.9.4,0,0,.6.4,1,.4.3,0,.4.2.8.4.3,0,.4.2.7.3.2,0,.3,0,.6.2.2,0,.3,0,.5.2,0,0,.2,0,.4.2,0,0,.2,0,.3,0,0,0,.3,0,.2,0,0,0,.2,0,.2,0,0,0,0,0,.2,0,0,0,0,0,0,0,0,0,0,0,0,0,0,0,0,0,0,0,0q0,0,0,0c0,0,0-.2,0,0,.2-.2,0-.2,0,0,.2-.2,0-.2-.2,0,.3-.2,0-.3-.2,0,.4-.2,0-.3-.2-.2.4-.3,0-.4-.3-.2.5-.3,0-.4-.4-.3.7-.3,0-.4-.4-.3.7-.3.3-.4,0-.4h0c0,0,0-.2,0-.2,0,0,0-.3,0-.5,2.1-1.4,3.4-3,4.3-4.5h0c0,0,.4,0,.4,0l-.3-.2h0c0,0,0,0,.2-.2h0c0,0,.3,0,.3,0h0l-.3-.2h0s0,0,0-.2h0c0,0,.7.2.7.2l-.2-.2h0c0-.2.2-.3.3-.5,0,0,0-.2.2-.3h0c0,0,0,0,0,0h0c0-.2,0-.2,0-.3h0,0c0-.2,0-.3,0-.3h0,0c0-.2,0-.3,0-.3h0,0c0-.2,0-.2,0-.3h0,0c.2,0,.3,0,.4-.2Z"/>
  <path class="cls-1" d="M57.5,47.1c0,0,0,0,0,0,0,0,0,0-.2,0,0,0,0-.2,0,0,.2-.2,0-.2,0,0,0-.2,0-.2-.2,0,.2-.2,0-.2-.2,0,.3-.2,0-.2-.2,0,.3-.3,0-.3-.2,0,.3-.4,0-.3-.3-.2.5-.3,0-.4-.4-.2.7-.4,0-.4-.4-.2.8-.6-.2-.3-.3-.2,0,.2.3,1.1.3.2,0,.4.5.9.4.2,0,.5.5.8.4.2,0,.3.3.7.3.2,0,.3.2.5.2,0,0,.2.2.5.2,0,0,.2.2.4.2,0,0,.2,0,.3.2,0,0,0,0,.3,0,0,0,.2,0,.2,0,0,0,.2,0,.2,0,0,0,0,0,0,0,0,0,0,0,0,0,0h0c0,0,0,0,0,0Z"/>
  <path class="cls-1" d="M56.5,44.7c.2-.2.8-.2.3,0,.3-.2.7-.2.3,0,.2,0,.5-.2.2,0,.2-.2.4,0,.2,0,0,0,.4,0,0,0,0,0,.3,0,0,0,0,0,.2,0,0,0,0,0,.2,0,0,0,0,0,0,0,0,0,0,0,0,0,0,0h.2,0c0,0,0,0,0,0q0,0,0,0c0,0,0,0,0,0,0,.2,0,0,0,0,0,.2,0,0,0,0,0,.2,0,0,0,0,0,.3,0,0,0,0,0,.3-.2.2-.2,0,0,.4-.2,0-.2,0,0,.5-.2.2-.3,0,0,.6-.3.2-.3,0s0,0,0,0Z"/>
  <path class="cls-1" d="M57.1,44.1c.2-.2.5-.3.3,0,.2-.2.4-.2.2,0,0,0,.4-.2.2,0,0-.2.3-.2.2,0,0,0,.2,0,0,0,0,0,.2,0,0,0,0,0,.2,0,0,0q0,0,0,0h.2,0c0,0,0,0,0,0q0,0,0,0c0,0,0,.2,0,0,0,.2,0,0,0,0,0,.2,0,0,0,0,0,.2,0,.2-.2,0,0,.3,0,0-.2,0,0,.3-.2.2-.2,0,0,.3-.2,0-.3-.2h0Z"/>
  <path class="cls-1" d="M57.5,43.5c.2-.2.4-.2.2,0,.2-.2.4-.2.2,0,0,0,.3-.2,0,0,0,0,.3,0,0,0,0,0,.2,0,0,0,0,0,.2,0,0,0q0,0,0,0t0,0h.2,0c0,0,0,0,0,0q0,0,0,0c0,0,0,0,0,0,0,.2,0,0,0,0,0,.2,0,0,0,0,0,.2,0,0,0,0,0,.3,0,0,0,0,0,.3,0,.2-.2,0,0,.2,0,0-.2-.2h0Z"/>
  <path class="cls-1" d="M57.9,43.2c.2,0,.4-.2.2,0,0-.2.3-.2,0,0,0,0,.3-.2,0,0,0,0,.2,0,0,0,0,0,.2,0,0,0,0,0,0,0,0,0q0,0,0,0t0,0h.2-.2q0,0,0,0t0,0c0,0,0,0,0,0,0,0,0,0,0,0,0,.2,0,0,0,0,0,.2,0,0,0,0,0,.3,0,.2,0,0,0,.3,0,.2-.2,0h0Z"/>
  <path class="cls-1" d="M57.8,46.1h0c0,0,0,0-.2,0,0,0,0-.2,0,0,0,0,0,0,0,0,0-.2,0-.2,0,0,.2-.2,0-.2,0,0,.2-.2,0-.2-.2,0,.2-.2,0-.3-.2,0,.2-.3,0-.3-.3,0,.4-.3,0-.3-.3,0,.5-.4,0-.4-.3,0,.6-.6,0-.3-.3,0,0,.2.3.9.3,0,0,.3.4.8.3,0,0,.4.4.7.3,0,0,.3.2.5.3,0,0,.3.2.4.2,0,0,.2.2.4.2,0,0,.2,0,.3,0,0,0,.2,0,.2,0,0,0,0,0,.2,0,0,0,.2,0,0,0,0q0,.2.2,0c0,0,0,0,0,0q0,0,0,0h0c0,0,0,0,0,0Z"/>
  <path class="cls-1" d="M55.6,44.9c-.3,0-.6-.5,0-.3-.3-.2-.5-.5,0-.3-.2,0-.4-.3,0-.3-.2,0-.3-.3,0-.2-.2,0-.3-.2,0-.2-.2,0-.2-.2,0-.2,0,0-.2,0,0,0,0,0-.2,0,0,0-.2,0,0,0,0,0q0,0,0,0c0,0,0,0,0,0h0q0,0,0,0t0,0,0,0c0,0,.2,0,0,0,.2,0,0,0,0,0,.2,0,.2,0,0,0,.2,0,.2,0,0,.2.3-.2.2,0,0,.2.3-.2.2,0,0,.2.4-.2.2,0,0,.3.4-.3.3,0,0,.3.6-.4.3.2,0,.3Z"/>
  <path class="cls-1" d="M57.1,42.5q0,0,0,0t0,0c0,0,0,0,0,0q0,0,0,0c0,0,0,0,0,0,0,0,0,0,0,0,0,0,.2,0,0,0,.2,0,.2,0,0,0,.2-.2.2,0,0,0,.2-.2.2,0,0,.2.3-.2.2,0,0,.2h0c-.3,0-.5-.2,0-.2-.2,0-.4-.2,0-.2-.2,0-.3-.2,0,0-.2,0-.3,0,0,0,0,0-.2,0,0,0,0,0-.2,0,0,0-.2,0,0,0,0,0,0,0,0,0,0,0h0Z"/>
  <path class="cls-1" d="M57,44h0c-.3,0-.5-.3,0-.3-.3,0-.4-.3,0-.2-.2,0-.4-.2,0-.2-.2,0-.3-.2,0-.2-.2,0-.2,0,0,0,0,0-.2,0,0,0-.2,0,0,0,0,0q0,0,0,0c0,0,0,0,0,0h0q0,0,0,0t0,0,0,0c0,0,.2,0,0,0,.2,0,0,0,0,0,.2,0,.2,0,0,0,.2,0,.2,0,0,.2.3-.2.2,0,0,.2.3-.2.3,0,0,.2.3-.2.2,0,0,.3Z"/>
  <path class="cls-1" d="M56,43.1c0,0,0,0,0,0h0c0-.2,0,0,0,0q0,0,0,0c0,0,.2,0,0,0,0,0,.2,0,0,.2,0,0,0,0,0,0,.2,0,0,0,0,0,.2,0,.2,0,0,0,.2-.2.2,0,0,0,.3-.2.2,0,0,.2.3-.2.2,0,0,.2.3-.3.3,0,0,.3.4-.4.3,0,0,.3h0c-.3,0-.6-.5,0-.3-.3-.2-.5-.4,0-.3-.2,0-.4-.3,0-.3-.2,0-.3-.2,0-.2-.2,0-.3-.2,0,0-.2,0-.3-.2,0,0,0,0-.2,0,0,0,0,0-.2,0,0-.2,0,0,0,0,0,0,0,0,0,0,0,0Z"/>
  <path class="cls-1" d="M57.4,42.2h0c0,0,0,0,0,0q0,0,0,0t0,0,0,0c0,0,0,0,0,0,0,0,0,0,0,0,0,0,.2,0,0,0,.2-.2,0,0,0,0,.2-.2.2,0,0,0,.2-.2.2,0,0,.2h0c-.2,0-.4-.2,0-.2-.2,0-.3,0,0,0,0,0-.3,0,0,0-.2,0-.2,0,0,0,0,0-.2,0,0,0,0,0-.2,0,0,0,0,0,0,0,0,0q0,0,0,0h0Z"/>
  <path class="cls-1" d="M59.2,40.8v-.3l.2.2h0c0,0,0,0,0,0h0Z"/>
  <path class="cls-1" d="M59.6,40.5h0v-.2c0,0,0,.2,0,.2h0Z"/>
  <path class="cls-1" d="M59.7,40.5h0c0,0-.2,0-.2,0h0Z"/>
  <path class="cls-1" d="M59.7,40.2h0c0,0,0,0,0,0h.2Z"/>
  <path class="cls-1" d="M59.8,40.4h0v-.2c0,0,.2,0,.2,0h-.2Z"/>
  <path class="cls-1" d="M59.8,40v-.2h0v.2h0Z"/>
  <path class="cls-1" d="M60,39.7h0Z"/>
  <path class="cls-1" d="M60.1,39.5h0c0,0,0,0,0,0h0Z"/>
  <path class="cls-1" d="M58.3,42.7c0-.2.3-.3,0,0,.2-.2.4-.2.2,0,0-.2.2-.2,0,0,0,0,.2,0,0,0,0,0,0,0,0,0q0,0,0,0t0,0,0,0h0,0q0,0,0,0t0,0c0,0,0,.2,0,0,0,.2,0,0,0,0,0,.2,0,0,0,0,0,.2,0,.2,0,0,0,.3,0,0-.2,0,.2.4,0,.3,0,0h0Z"/>
  <path class="cls-1" d="M58.6,42.3c0-.2.3-.2,0,0,.2,0,.3-.2.2,0,0,0,.2,0,0,0q0,0,0,0c0,0,0,0,0,0q0,0,0,0t0,0h.2,0c0,0,0,0,0,0q0,0,0,0t0,0c0,0,0,0,0,0,0,0,0,0,0,0,0,.2,0,0,0,0,0,.3,0,0-.2,0,0,.3,0,.2,0,0h0Z"/>
  <path class="cls-1" d="M58.9,41.9c0-.2.2-.2,0,0,.2,0,.3,0,.2,0q0,0,0,0t0,0c0,0,0,0,0,0q0,0,0,0c0,0,0,0,0,0,0,0,0,0,0,0h0q0,0,0,0t0,0,0,0c0,0,0,0,0,0,0,.2,0,0,0,0,0,0,0,0-.2,0,0,.2,0,.2,0,0h0Z"/>
  <path class="cls-1" d="M58.9,41.4v-.4h0l.3.2h0c0,0,0,.2,0,.2h0Z"/>
  <path class="cls-1" d="M58.2,42.6h0c-.3,0-.4,0,0,0-.2,0-.3,0,0,0-.2,0-.3,0,0,0,0,0-.2,0,0,0,0,0-.2,0,0,0-.2,0,0,0,0,0q0,0,0,0c0,0,0,0,0,0h0s0,0,0,0q0,0,0,0t0,0c0,0,0,0,0,0,0,0,0,0,0,0,.2-.2.2,0,0,0,.2-.2.2,0,0,0,.2-.2.3,0,0,0Z"/>
  <path class="cls-1" d="M58.2,41.7q0,0,0,0t0,0,0,0,0,0c0,0,.2,0,0,0,0,0,0,0,0,0,0,0,0,0,0,0,0-.2.2,0,0,0,.2-.2,0,0,0,0,.2-.2.2,0,0,0h0c-.2,0-.3,0,0,0,0,0-.3,0,0,0q-.2,0,0,0c0,0-.2,0,0,0,0,0-.2,0,0,0-.2,0,0,0,0,0,0,0,0,0,0,0q0,0,0,0Z"/>
  <path class="cls-1" d="M58.5,41.4h0q0,0,0,0t0,0c0,0,.2,0,0,0,0,0,0,0,0,0,0,0,0,0,0,0,0,0,0,0,0,0,0-.2,0,0,0,0,0-.2.2,0,0,0h0c-.2,0-.3,0,0,0,0,0-.2,0,0,0,0,0-.2,0,0,0q0,0,0,0t0,0-.2,0,0,0,0,0Z"/>
  <path class="cls-1" d="M50.4,48.1c.3,0,1.7,0,.3.4-.6,1.2-.5,0-.3-.4Z"/>
  <path class="cls-1" d="M53,51.3s0,0,0,0c0,0,0,0,0,0q0,0,0,0c0,0-.2.2,0,0-.2.3-.2,0,0-.2-.2.2-.3,0-.2-.2-.2.4-.3,0-.2-.2-.3.5-.3,0-.2-.2-.3.5-.4,0-.2-.3-.4.6-.4,0-.3-.4-.3.8-.5,0-.4-.5-.4,1-.6,0-.3-.5.6,0,1.4.3.4.4.7,0,1.2.4.4.5.5,0,.9.2.3.4.4,0,.8.2.2.3.3,0,.7,0,.2.2.3,0,.6,0,.2.2.3,0,.4,0,.2.2.2,0,.4,0,0,.2.3,0,.3,0,0,0,.2,0,.2,0,0,0,.2,0,.2,0,0,0,0,0,0,.2,0,.2Z"/>
  <path class="cls-1" d="M54.5,50.3h0q0,0,0,0c0,0-.2,0-.2,0q0,0,0,0c0,0-.2.2,0,0,0,.3-.2,0,0,0-.2.2-.3,0-.2-.2,0,.4-.3,0-.2-.2-.2.5-.3,0-.2-.2-.2.5-.4.2-.3-.2-.3.6-.4,0-.4-.4-.2.8-.5.2-.4-.4-.2,1-.6,0-.4-.4.5-.2,1.4.2.4.4.7,0,1.2.2.4.4.5,0,.9,0,.4.4.4,0,.8,0,.3.3.3,0,.7,0,.2.2.3,0,.6,0,.2.2.3,0,.4,0,.2.2.2,0,.4,0,0,0,.3,0,.3,0,0,0q.2,0,0,0c.2,0,.3,0,.2,0Z"/>
  <path class="cls-1" d="M48.8,47.8c-.5-.3-.9-1.1,0-.6-.5-.4-.8-1,0-.6-.4-.3-.7-.8,0-.5-.4-.2-.5-.6,0-.4,0,0,0,0-.2,0,.2,0,.3,0,.5-.3,0,0,0,.3-.3.4.5-.2.4.2,0,.4.7-.2.4.2,0,.5.8-.5.5.2,0,.6.9-.6.5.3,0,.6Z"/>
  <path class="cls-1" d="M50.1,43.9c0,0,0,0,0,.2,0,0-.2,0,0,.2-.2,0-.3,0,0,.2-.3,0-.2,0,0,.2-.3,0-.2.2,0,.3-.4,0-.3.2,0,.3-.5-.2-.3.2,0,.3-.6-.2-.4.2,0,.4-.7-.2-.4.2,0,.5-.8-.4-.5.2,0,.6-.9-.6-.5.3,0,.6-1.2-.6-.3.4,0,.5.3-.2,1.1-1.1,0-.5.5-.3.9-1.2,0-.6.5-.5.7-1,0-.6.4-.3.6-.8,0-.5.4-.2.5-.6,0-.4.3-.2.5-.6,0-.3.3-.2.3-.5,0-.3.2,0,.3-.3,0-.3.2,0,.3-.3,0-.2.3-.2,0-.2,0-.2.2-.2,0-.2,0-.2q0-.2,0-.2c0,0,0,0,0-.2h0c0,0,0,0,0,.2Z"/>
  <path class="cls-1" d="M51.7,47.4c-.3,0-1.2-1,0-.5,1-.6.3.4,0,.5Z"/>
  <path class="cls-1" d="M55.7,45.2c-.2,0-.8-.5,0-.3.7-.4.2.2,0,.3Z"/>
  <path class="cls-1" d="M53.2,47.4c.5-.2,1.3,0,.4.3.6,0,1.1,0,.5.3.4,0,.9,0,.4.3.4-.2.8,0,.3.2.3,0,.7,0,.2.2.3,0,.5,0,.2.2.2,0,.4,0,.2.2.2,0,.4,0,0,0,.3,0,.3,0,0,0q.2,0,0,0c0,0,.2,0,0,0h0c0,0,0,0,0,0,0,0,0,0,0,0q0,0,0,0c0,0-.2.2,0,0,0,.3-.2,0,0,0,0,.2-.3,0-.2-.2,0,.4-.3,0-.2-.2,0,.5-.3,0-.2-.2,0,.5-.4.2-.3-.2-.2.6-.4.2-.4-.3,0,.8-.4.2-.4-.4-.2,1-.6.3-.5-.2Z"/>
  <path class="cls-1" d="M53.4,46.7h-.3v.2h0c0,0,0,0,0,0v-.3s0,0,.3,0h0Z"/>
  <path class="cls-1" d="M48.8,48.3c-.3,0-1.2-1.1,0-.5,1.1-.6.3.4,0,.5Z"/>
  <path class="cls-1" d="M49.5,50.6v.5c0,0-.6-.2-.6-.2v-.5c0,0,.6.2.6.2Z"/>
  <path class="cls-1" d="M48.5,44.1v-.2h0c0,0,0,0,0,.2,0,.3,0,.6-.5.8h0c.6-.2.5-.5.5-.8Z"/>
  <path class="cls-1" d="M15.2,9.2q0,0,0,0t0,0c-.2,0-.5,0-.8,0h0c.2-.2.4-.3.6-.2,0,0,0,0,.2,0,0,0,0,0,0,0Z"/>
  <path class="cls-1" d="M15.1,9.5c0,.3-.2.4-.2.4h0c0,0-.2,0-.3,0h-.2,0c0-.2.4-.4.6-.3h0Z"/>
  <path class="cls-1" d="M9,16.9c0-.5-.3-.9-.3-1.2h0c0,.4,0,.9.3,1.2,0,.5.2.9.2,1.2h0c0-.4,0-.8-.2-1.2Z"/>
  <path class="cls-1" d="M14.5,17.1h0c0,.5-.2,1.1-.4,1.8-.2.6-.3,1.1-.3,1.4h0c0-.3,0-.9.3-1.4.3-.7.5-1.3.4-1.8,0,0,0,0,0,0Z"/>
  <path class="cls-1" d="M15,18.3h0c-.3.5-.5.9-.7,1.5,0,.3-.2.7-.3.9h0c0-.2.2-.5.3-.8.3-.6.4-1,.7-1.6,0,0,0,0,0,0Z"/>
  <path class="cls-1" d="M11.5,11.3h0c-.3.5-.6.7-.9.8,0,0-.2,0-.2,0h0q0,0,.2,0h0c.4,0,.7-.5.9-.8h0Z"/>
  <path class="cls-1" d="M3.2,11.6v2.5c0,0,0,.2,0,.4,0,.3-.2.7-.3,1.1h0v-2.9l.5-1Z"/>
  <path class="cls-1" d="M14.8,35.1h-.2c-.7-.4-2.5-5.1-1.7-11.2h0c-.8,5.8.9,10.7,1.7,11.3q0,0,.2,0c0,0,0,0,0,0,0,0,0,0,0,0q0,0,0,0Z"/>
  <path class="cls-1" d="M11.3,22.1s0,0,0,0q0,0,0,0c0,1-.4,3.2-.9,5.6-.6,2.8-1.2,6.2-.9,8.1h0c-.3-2.1.4-5.3.9-8.1.6-2.3.9-4.4.9-5.6Z"/>
  <path class="cls-1" d="M14.9,37.5s-2.7-.5-2.7-11.5h0c0,5.7.7,8.5,1.3,9.8.6,1.5,1.3,1.6,1.3,1.6h0s0,0,0,0c0,0,0,0,0,0Z"/>
  <path class="cls-1" d="M16,38.9q0,0,0,0c0,0-.4,0-.9,0-.7-.3-1.7-1.2-2.7-4.3h0c1,3.1,2.1,4.2,2.7,4.4.2,0,.4,0,.5,0,.3,0,.4-.2.4-.2h0Z"/>
  <path class="cls-1" d="M12,44.6c0,0,0,0-.2,0-.3-.2-.6-.4-1-.2h0q0,0,0,0c.5-.2.8,0,.9.2,0,0,0,0,.2,0,0,0,0,0,0,0,0,0,0,0,0,0Z"/>
  <path class="cls-1" d="M4.3,19.3v.7c0,0-.4-.5-.4-.5l-.6.3.3-.6-.4-.4h.6l.3-.6.2.6h.7c0,0-.7.5-.7.5Z"/>
  <path class="cls-1" d="M2.6,20.1v.7c0,0-.4-.5-.4-.5l-.6.3.3-.6-.4-.4h.6l.3-.6.2.6h.7c0,0-.7.5-.7.5Z"/>
  <path class="cls-1" d="M3,22.1v.7c0,0-.5-.5-.5-.5l-.5.3.3-.6-.4-.4h.6l.3-.6.2.6h.7c0,0-.7.5-.7.5Z"/>
  <path class="cls-1" d="M5,22.1v.8c0,0-.5-.6-.5-.6l-.7.3.3-.6-.4-.5h.7c0,0,.3-.6.3-.6l.2.7.8.2-.7.3Z"/>
  <path class="cls-1" d="M15.4,48.8q0,0,0,0h0,0Z"/>
  <path class="cls-1" d="M38.8,27.6c0,.2,0,.3-.2.3h0c0,0-.2,0-.3-.2,0,0-.2,0-.3,0s-.2,0-.2-.2h0q0,0,0,0c0,0,.2,0,.2,0h0c0,0,0,0,0,0,0,0,.2.2.3.2.3,0,.4,0,.5-.2,0,0,0,0,0,0,0,0,0,0,0,0Z"/>
  <path class="cls-1" d="M5.2,40.5h0c0,0,.2-.2.2-.2v.2Z"/>
  <path class="cls-1" d="M5,40.7h-.2,0c0,0,0,0,0,0h0Z"/>
  <path class="cls-1" d="M6.1,42.2c0-.2,0-.3,0,0,0,0,0-.3,0,0,0,0,0-.2,0,0,0,0,0-.2,0,0,0,0,0-.2,0,0,0,0,0,0,0,0q0,0,0,0h0c0,0,0,0,0,0,0,0,0,0,0,0,0,0,0,0,0,0q0,0,0,0t0,0c.2,0,0,0,0,0,.2.3,0,.3-.2.4.4,0,.3,0,0,0h0Z"/>
  <path class="cls-1" d="M6.8,42q0,0,0,0c0,0,0,.2,0,0,.2,0,0,0,0,0,.2,0,0,0,0,0,.3,0,0,0,0,0,.3,0,.2.2,0,0h0c-.2-.2-.2-.4,0,0,0,0-.2-.3,0,0,0,0,0-.3,0,0,0,0,0-.2,0,0,0,0,0,0,0,0-.2,0,0,0,0,0q0,0,0,0c0,0,0-.2,0,0h0c0,0,0,0,0,0q0,0,0,0Z"/>
  <path class="cls-1" d="M6.4,42.7h0c0,.3-.2.4,0,0,0,.2-.3.3-.2,0,0,.2-.2.2,0,0,0,0,0,.2,0,0,0,0,0,.2,0,0,0,.2,0,0,0,0,0,0,0,0,0,0,0,0,0,0,0,0h0,0q0,0,0,0t0,0c0,0,0-.2,0,0,0-.2,0,0,0,0,0-.2,0,0,0,0,0-.2,0-.2,0,0,0-.3,0-.2.2,0-.2-.2,0-.2,0-.2,0,0,0,.2,0,.2Z"/>
  <path class="cls-1" d="M5.9,41.9c0-.2-.2-.2,0,0-.2,0-.3,0-.2,0q0,0,0,0t0,0c0,0,0,0,0,0q0,0,0,0c0,0,0,0,0,0,0,0,0,0,0,0h0q0,0,0,0t0,0,0,0c0,0,0,0,0,0,0,.2,0,0,0,0,0,0,0,0,.2,0,0,.2,0,.2,0,0h0Z"/>
  <path class="cls-1" d="M4.8,40.3h0v.2c0,0,0,0,0,0v-.2Z"/>
  <path class="cls-1" d="M4.7,39.8h0c0,0,0,0,0,0Z"/>
  <path class="cls-1" d="M4.5,39.5h0c0,0,0,0,0,0Z"/>
  <path class="cls-1" d="M7.3,43.5c.3,0,.5-.2,0-.2.2,0,.4-.2,0-.2.2,0,.3-.2,0,0,.2,0,.3,0,0,0,0,0,.2,0,0,0,0,0,.2,0,0,0,.2,0,0,0,0,0,0,0,0,0,0,0,0,0,0,0,0,0h0q0,0,0,0t0,0,0,0c0,0,0,0,0,0,0,0,0,0,0,0,0,0,0,0,0,0-.2,0-.2,0,0,0-.2-.2-.2,0,0,0-.2-.2-.2,0,0,.2-.3-.3-.2,0,0,.2,0,0,0,0,0,0Z"/>
  <path class="cls-1" d="M5.9,41.8c0,0,.2,0,0,0,.2,0,.3,0,0-.2,0,0,.2,0,0,0q0,0,0,0t0,0,0,0,0,0,0,0h0s0,0,0,0c0,0,0,0,0,0,0,0,0,0,0,0,0,0,0,0,0,0,0,0,0,0,0,0-.2,0-.2,0,0,.2,0-.3-.2-.2,0,0h0Z"/>
  <path class="cls-1" d="M5.9,41h0v.4h-.4c0,0,.4-.4.4-.4Z"/>
  <path class="cls-1" d="M5.4,40.8h-.2c0,0,.2-.3.2-.3v.3Z"/>
  <path class="cls-1" d="M5,40.3h0Z"/>
  <path class="cls-1" d="M4.9,40v.2-.2h0Z"/>
  <path class="cls-1" d="M6.8,43.1c0-.2-.2-.4,0-.2,0-.2,0-.3,0,0,0,0,0-.3,0,0,0,0,0-.2,0,0,0,0,0-.2,0,0,0,0,0-.2,0,0,0,0,0,0,0,0,0,0,0,0,0,0h0q0,0,0,0c0,0,0,0,0,0q0,0,0,0c0,0,0,0,0,0,0,0,0,0,0,0,0,0,0,0,0,0,.2,0,0,0,0,0,.2,0,0,0,0,0,.3,0,0,0-.2.2.4-.2.2,0,0,0h0Z"/>
  <path class="cls-1" d="M41.8,10.6c0,.9-.4,1.7-.6,2.1l-.4-.2h-.2c0,0,.7.9.3,1.8-.9-.6-1-1.2-1-1.2h0l-.9,2h0s.3-.2.9-.2.6,0,.8,0c-.2.3-.4.5-.6.7-.4.4-.9.4-1.2.4h-.4s-.6,0-.9-.6c0,0-.2-.3-.3-.7h0c.2,0,.3,0,.3-.2s0-.3-.2-.3h0c0,0,0-.4.4-.6h.3,0c0,0,.2,0,.2,0h0c0,.2,0,.3,0,.4h0c0,.3,0,.6,0,.6h0s0,0,.3-.2c0,0,.2-.2.3-.2,0,0,.2,0,.3-.2h0c.2-.3.4-.5.4-1,0,0,0-.5-.3-.7,0,0-.3-.2-.6-.2s-.3,0-.5.2c0,0-.2,0-.3.2,0,0,0-.2.2-.4,0-.3.2-.6.2-.9h0c0-.7-.2-1.3-.4-1.4h0c-.2,0-.8.6-.9,1,0,.3-.2.6-.2.9v.4c0,0,0-.2,0-.3-.2-.4-.6-.5-.8-.5h-.2c-.3,0-.5.5-.6.5-.3.6,0,.9,0,1h0c0,.2,0,.4.2.5,0,0,.2.2.2.3,0,.2,0,.3,0,.3h0s.3-.2.3-.5h0c0-.2,0-.3,0-.4,0,0,0,0,.2,0h.3c0,.3,0,.6,0,.6h0c0,0,0,0,0,0h0c0,0-.2,0-.2.2v.2h0q0,0,0,.2h0c-.2.4-.7.6-.7.6-.4.2-.8.3-1.1.3s-.9-.2-.9-.3c0,0-.7-.5-.9-1.7,1.2,0,1.7.9,1.7.9h0v-2.7h0s-.5.8-1.8.9c0-1.1,1.1-1.9,1.1-1.9h-.3v-2.3c1.3-.3,2.6-.8,2.7-.9,2.3-.9,4.1,0,4.1,0,2.1,1.2,1.9,3.2,1.9,3.3ZM40.4,18l-1.1.5-.5-1.1,1.1-.5.5,1.1ZM36.9,17.6l-1.9-.5.3-1.3,1.9.5-.3,1.3ZM32.4,17.1l-1.3-.9,1.2-.9,1.3.9-1.2.9ZM30.7,15.3q0,0-.2,0h-.6c-.4,0-.8,0-1.1-.3h0c0,0-.4-.2-.6-.5h0c0,0,.2-.2,0-.3,0,0,0-.2-.2-.2h-.2c0,0,0-.4,0-.7h0s0,0,.3,0h0s0,0,0,0c0,.2,0,.4,0,.4,0,.2.3.5.3.5h0c0,0,0-.2,0-.3s0-.2.2-.3c0,0,.2-.2.2-.4h0c0-.3.2-.6,0-1.1,0,0-.2-.4-.6-.5h-.2c-.2,0-.6,0-.8.5,0,0,0,.2,0,.3v-.4c0-.4,0-.6-.2-.9-.3-.6-.8-1-.9-1h0c-.2,0-.4.9-.4,1.4s0,.6.2.9c0,0,0,.3.2.4l-.2-.2c-.2,0-.3-.2-.5-.2-.3,0-.6.2-.6.2-.3.2-.3.7-.3.7,0,.6.3.8.4.9h0c0,.2.2.3.4.3,0,0,.2,0,.3.2,0,0,.2.2.3.2h0s0-.3,0-.5h0c0-.2,0-.3,0-.4h0c0-.2,0-.2,0-.2h.3c.3.2.4.5.4.5h0c0,0,0,0,0,0,0,0-.2,0-.2.3s0,.2.3.2h0c0,.4-.3.7-.3.7-.4.5-.9.6-.9.6h-.4c-.4,0-.9,0-1.2-.4-.2-.2-.4-.4-.6-.7.3,0,.6,0,.8,0,.5,0,.9.2.9.2h0l-.9-2h0s0,.8-1,1.2c-.3-.9.3-1.9.3-1.9h0l-.6.3c-.2-.4-.5-1.2-.6-2.1,0,0-.2-2,1.4-2.9,0,0,1.8-.9,4.1,0,0,0,1.3.6,2.7.9v2.3h-.3s1,.8,1.1,1.9h0c-1.2,0-1.8-.9-1.8-.9h0v2.7h0s.5-.8,1.7-.9c-.2,1.2-.9,1.7-.9,1.7.4-.4.3-.4,0-.3ZM27.8,17.6l-.3-1.3,1.8-.5.3,1.3-1.8.5ZM25.4,18.4l-1.1-.5.5-1.1,1.1.5-.5,1.1ZM31.2,5.5q0,0,0,0h-.2q0,0,0-.2c0,0,.5,0,.9,0v-.9c0,0,0,0,0,0,0,0,0,0,0,0v1q0,0,0,0h0c-.5,0-.9,0-.9,0ZM32.4,1.9c.2,0,.3.2.3.3,0,.2-.2.3-.3.3-.2,0-.3-.2-.3-.3,0-.2,0-.3.3-.3ZM32.7,13c0,.2-.2.4-.4.4s-.4-.2-.4-.4.2-.4.4-.4.4.2.4.4ZM32.9,7.8c0,.2,0,.3-.2.4,0,0,.2.3.2.4,0,.2,0,.3-.2.4,0,0,.2.3.2.4,0,.2,0,.3-.2.4,0,0,.2.3.2.4,0,.3-.2.5-.5.6h-.2c-.3,0-.4-.3-.4-.6s0-.3.2-.4c0,0-.2-.3-.2-.4,0-.2,0-.3.2-.4,0,0-.2-.3-.2-.4,0-.2,0-.3.2-.4,0,0-.2-.3-.2-.4,0-.2,0-.4.2-.4-.2,0-.3-.3-.3-.5,0-.3.3-.6.6-.6s.6.3.6.6,0,.4-.3.5c.2,0,.3.2.3.4ZM32.7,4.2v.9c.6,0,.8,0,.9,0s0,0,0,.2h0q0,0,0,0s0,0-.9,0,0,0,0,0h0v-1c0,0,0,0,0,0,.2,0,.2,0,.2,0ZM42.9,11.4c.4,0,.7-.3.7-.7s-.3-.7-.7-.7-.4,0-.5.3c0-.2,0-.5,0-.9,0,0,.3.2.5.2.4,0,.7-.3.7-.7s-.3-.7-.7-.7-.6.2-.6.5c0-.3-.2-.5-.4-.8,0,0,.2,0,.3,0,.4,0,.7-.3.7-.7s-.3-.7-.7-.7-.7.3-.7.7v.2c-.2-.2-.5-.4-.8-.6h0c.4,0,.7-.3.7-.7s-.3-.7-.7-.7-.7.3-.7.7,0,.3.2.4c-.2,0-.6-.2-1-.3.3,0,.6-.3.6-.6s-.3-.7-.7-.7-.7.3-.7.7.2.5.4.6c-.3,0-.6,0-.9,0,0,0,.2-.3.2-.5,0-.4-.3-.7-.7-.7s-.7.3-.7.7.2.5.4.6c-.3,0-.6,0-.9.2,0,0,.2-.3.2-.5,0-.4-.3-.7-.7-.7s-.7.3-.7.7.3.7.7.7h0c-.2,0-.6.3-1.1.5.2,0,.3-.3.3-.5,0-.4-.3-.7-.7-.7s-.7.3-.7.7.3.7.7.7c-.3,0-.6.2-.9.2v-.9c0-.2,0-.3-.3-.3h0c.3-.3.6-.8.6-1.2s-.4-1.2-.9-1.4h.6s-.6-.4-.8-1.4c1,0,1.5.8,1.5.8h0V1h0s-.5.6-1.5.8c0-.9.9-1.6.9-1.6h-2.7s.2.2.5.5c.2.3.4.6.5.9v.2c-.9,0-1.3-.7-1.3-.7h0v2.3h0s.5-.6,1.5-.8c0,1-.8,1.5-.8,1.5h.6c-.6.3-.9.8-.9,1.4s.2.9.6,1.2h0c0,0-.3,0-.3.3v.9c-.3,0-.6,0-.9-.2.4,0,.7-.3.7-.7s-.3-.7-.7-.7-.7.3-.7.7,0,.4.3.5c-.6-.2-.9-.4-1.1-.5h0c.4,0,.7-.3.7-.7s-.3-.7-.7-.7-.7.3-.7.7,0,.4.2.5c-.3,0-.6-.2-.9-.2.2,0,.3-.3.3-.6s-.3-.7-.7-.7-.7.3-.7.7,0,.4.2.5h-.9c.2,0,.4-.3.4-.6s-.3-.7-.7-.7-.7.3-.7.7.2.6.6.6c-.5,0-.8.2-1,.3,0,0,.2-.3.2-.4,0-.4-.3-.7-.7-.7s-.7.3-.7.7.3.7.7.7h0c-.3.2-.6.4-.8.6v-.2c0-.4-.3-.7-.7-.7s-.7.3-.7.7.3.7.7.7.2,0,.3,0c-.2.3-.3.5-.4.8,0-.3-.3-.5-.6-.5s-.7.3-.7.7.3.7.7.7.4,0,.5-.2c0,.4,0,.7,0,.9,0-.2-.3-.3-.5-.3-.4,0-.7.3-.7.7s.3.7.7.7.5-.2.6-.4c0,.3,0,.6.2.9,0,0-.2,0-.4,0-.4,0-.7.3-.7.7s.3.7.7.7.6-.2.6-.5c0,0,0,.3.2.3l-.4.2h0l.7,1.4c-.2,0-.3.4-.2.6,0,0,.2.2.4.2h.2l.8,1.7-.5,1.2,1.3.6v.3h0s3.2-1.3,7-1.3,7,1.2,7,1.3h0v-.3c0,0,1.7-.8,1.7-.8h0l-.5-1.2.8-1.7h.2c.2,0,.3,0,.4-.2,0-.2,0-.5-.2-.6l.7-1.4h0l-.4-.2c0,0,0-.2,0-.3,0,.3.3.5.6.5s.7-.3.7-.7-.3-.7-.7-.7-.3,0-.4,0c0-.3.2-.6.2-.9,0,.3.3.4.6.4Z"/>
  <path class="cls-1" d="M39.3,19.8h0c0,0-3.1-1.2-6.9-1.2s-6.8,1.2-6.8,1.2c0,0-.2,0-.3,0,0,0,0-.2,0-.3,0,0,3.1-1.2,7-1.2s7,1.2,7,1.3c0,0,.2.2,0,.3,0,0,0,0-.2,0Z"/>
  <path class="cls-1" d="M58.5,30.5h0c0,0-.2,0-.2,0,0,0,0,.9-.2,1.2h0q0,0,0,0c0-.2.2-.7.2-.9,0,.2,0,.5,0,.8,0,0,0,0,0,0,0,0,0,0,0,0,0-.7,0-1-.2-1.1ZM52,29.2s0,0,0,0h-.2v.4c0,.4,0,.6,0,.9h0c0,0,0,0,0,0,.2-.3,0-.6,0-.9h0c0,.3,0,.7,0,1.3,0,0,0,0,0,0,0,0,0,0,0,0,0-.9,0-1.2-.2-1.7ZM56.1,29.3c0,0,0-.4,0-.7s0,0,0,0h0s0,0,0,0c0,.3,0,.5,0,.7s0,.3,0,.6c0,0,0,0,0,0,0,0,0,0,0,0,0-.2,0-.4,0-.5,0,0,0-.2,0-.3,0,0,0,.2,0,.3,0,.2,0,.5.2.7,0,0,0,0,0,0h0s0,0,0,0c-.3-.2-.3-.6-.4-.8ZM52.7,27.6q0,0,0,0t0,0h0c0,.3,0,.6,0,.9v.3s0,0,0,0h0v-.3c0-.2,0-.4,0-.6,0,.2.2.7.2.8,0,0,0,0,0,0,0,0,0,0,0,0-.2,0-.2-.9-.6-1.1ZM55.8,26.1c0-.4-.2-.7,0-1h0v-.2h0c-.4.4-.3.8-.3,1.1s0,.6,0,.9c0,0,0,0,0,0h0c0-.3,0-.6,0-.9,0-.3,0-.6,0-.9,0,.4,0,.7,0,.9,0,.3,0,.5,0,.7,0,0,0,0,0,0,0,0,0,0,0,0-.2-.3-.3-.5-.3-.7ZM53.7,25.5h0q0,0,0,0,0,0,0,0c0,0,0,0,0,0,0,0-.2,0,0,0q0,0,0,0c0,.3,0,.9-.3,1.3h0c0,0,0,0,0,0,.2-.3.2-.6.2-.9,0,.3,0,.7,0,.9,0,0,0,0,0,0h0s0,0,0,0c0-.5-.2-1.2-.3-1.4ZM53.1,24.5c0-.2-.2-.4-.2-.6v-.2s0,0,0,0c0,0,0,0,0,0v.5c0,.3,0,.8,0,.9h0c0,0,0,0,0,0,0-.2,0-.4,0-.7,0,.3.2.5,0,.8h0c0,0,0,0,0,0,.3-.4.2-.7,0-.9ZM56.4,24h0q0,0,0,0,0,0,0,0,0,0,0,0h0c0,0,0,0,0,.2,0,.3.2.9,0,1.1h0q0,0,0,0c.3-.3.2-.9.2-1.2.3.4.3,1,.3,1,0,0,0,0,0,0,0,0,0,0,0,0,0,0,0-.9-.6-1.2ZM56.3,22.3c0,0,0-.2,0-.3h0s0,0,0,0c0,0,0,0,0,0,0,.6-.3,1.1-.4,1.4h0c0,0,0,0,0,0,0-.2.3-.6.4-1,0,0,0,.2,0,.4v.8s0,0,0,0c0,0,0,0,0,0v-.8c0-.3,0-.5,0-.6ZM54.1,22.3c0,0-.3-.8-.3-1.4,0,0,0,0,0,0,0,0,0,0,0,0h0c0,.3,0,.5,0,.7,0,.3,0,.4,0,.5,0,0,0,0,0,0h0v-.5h0c0,.4.2.8.4.7h0q0,0,0,0h0ZM57.9,21.2c0,0,0-.2,0-.3h0c0,0,0,0,0,0h0v.2c0,.4,0,.6,0,.9h0c0,0,0,0,0,0,0-.2,0-.4,0-.5,0,.2,0,.5,0,.6,0,0,0,0,0,0,0,0,0,0,0,0,0-.2,0-.7-.3-1ZM56.2,18.7s0,0,0,0q0,0,0,0c0,0-.2,0-.2,0,0,.4,0,.7,0,.9s0,.5,0,.8c0,0,0,0,0,0,0,0,0,0,0,0,0-.3,0-.6,0-.8s0-.4,0-.5c0,.5.2.9,0,.9h0c0,0,0,0,0,0,0-.3,0-1.3-.2-1.5ZM57.5,17.1h0c0,.4,0,.6,0,.9h0v.6h0c0,0,0,0,0,0,0-.2,0-.3,0-.4v-.3h0c0-.3,0-.5,0-.7.2.3.2.9.2,1.3,0,0,0,0,0,0,0,0,0,0,0,0,0-.4-.2-1.3-.6-1.6Z"/>
  <path class="cls-1" d="M46.4,25.6h0s0,0,0,0c0-.5.2-.8.5-1,0-.2.3-.4.3-.5,0,0,0,0,0,0,0,0,0,0,0,0,0,.2-.2.4-.3.6-.3.3-.6.6-.7.9,0,0,0,0,0,0Z"/>
  <path class="cls-1" d="M48.4,25.7c-.2.2-.7,1.2-.7,1.4,0,0,0,0,0,0h0s0,0,0,0c0-.3.5-1.3.7-1.5h.2Z"/>
  <path class="cls-1" d="M50.9,26.6c0-.2,0-.3-.2-.5v-.3s0,0,0,0c0,0,0,0,0,0v.3h0c0,.5,0,.9,0,1h0c0,0,0,0,0,0,0,0,0-.3,0-.5,0,.2,0,.4,0,.7,0,0,0,0,0,0h0s0,0,0,0c.2-.4,0-.6,0-.9Z"/>
  <path class="cls-1" d="M54.8,7.9h0c-.3.9-.9,1.1-.9,1.1h0s.8-.2.9-1.1h0Z"/>
  <path class="cls-1" d="M54.9,10.1h0c-.5.8-1.1,1-1.1,1h0c0,0,.8-.3,1.1-1h0ZM54.4,10.2c-.5.5-.9.6-.9.6h0c0,0,.5,0,.9-.6q0,0,0,0h0Z"/>
  <path class="cls-1" d="M52.9,9.7s0,0-.2,0c0,0,0,.2,0,.3s0,.2,0,.3h0c.2,0,0-.2,0-.3v-.2c.2,0,.3,0,.3-.2,0,0,0,.2,0,.3s0,.2,0,.2h0q0,0,0,0c0,0,0-.2,0-.3,0,0,0-.3-.2-.3Z"/>
  <path class="cls-1" d="M51.2,9.7h0c-.3-.4-.4-.4-.4-.4h0c-.2,0-.5,0-.6,0v-.2h.2c0,0,.3,0,.4,0h0c0,0,.2,0,.5.4q0,0,0,.2t0,0Z"/>
  <path class="cls-1" d="M50.5,9.8q0,0,0,0c0,0,0,0,0,0h0q0,0,0,0ZM51,9.6c0,0-.3,0-.4,0-.2,0-.3,0-.3,0,0,0,0,0,0,0,0,0,0,0,0,0,0,0,0,0,.2.2h0v.2s0,0,0,0h0q0,0,0,0c0-.2.4-.2.4-.2,0,0,0,0,0,0h0c0,0,.2,0,.2,0h0c0,.2,0,0,0,0q0,0,0,0Z"/>
  <path class="cls-1" d="M50.3,11.6h0s0,0,0,0c0,0,.4-.3,0-.9h0c.3.6,0,.9,0,.9h0ZM50.7,11.8s0,0,0,0c0,0,0,0,0,0,0,0,.7-.7,0-1.3h0c.6.7,0,1.3,0,1.3h0Z"/>
  <path class="cls-1" d="M55.8,7.2c0,.3,0,.5-.2.6l-.4.2h0c0,0,.3,0,.4,0,0-.2.2-.4.3-.7q0,0,0,0h0Z"/>
  <path class="cls-1" d="M56.8,36q0,0,0,0t0,0-.2,0h0c.2.4,0,.9,0,1.1h0c0,0,0,.2,0,.2,0,0,0,0,0,0h0c0-.3,0-.5.2-.7v.8s0,0,0,0c0,0,0,0,0,0h0c0-.6,0-.9-.3-1.2ZM59,36.1v-.3h0c0,0,0-.2,0-.2,0,0,0,0,0,0,0,0,0,.6-.3.9h0q0,0,0,0c.2-.3.3-.6.4-.8t0,0c0,.2,0,.3,0,.4h0c0,0,0,0,0,0,0-.2,0-.3,0-.5ZM51.9,36.3c0-.2,0-.7-.2-.9,0-.3,0-.5,0-.6,0,0,0,0,0,0h0c0,.2,0,.3,0,.4,0,.5-.2.9,0,1.4,0,0,0,0,0,0h0c-.2-.5,0-.9,0-1.3v.3c0,.4,0,.8.2,1,0-.3,0-.3,0-.4,0,0,0,0,0,0ZM55.5,35.3c0-.3,0-.7-.3-.9h0c0,.3,0,.4,0,.6s0,.3,0,.5c0,0,0,0,0,0,0,0,0,0,0,0s0-.3,0-.4c0,0,0-.2,0-.3v.9h0s0,0,0,0c0,0,0-.2,0-.4ZM52.7,33.6c0-.2,0-.3,0-.4,0,0,0,0,0,0,0,0,0,0,0,0h0c0,.6,0,.9-.2,1.4,0,0,0,0,0,0,0,0,0,0,0,0,0-.4.2-.7.2-.9,0,.4,0,.8,0,1.3,0,0,0,0,0,0h0s0,0,0,0c0-.6,0-1.1,0-1.4ZM58.8,32.9h0c0,0-.2,0-.2,0v.3c0,.2,0,.3-.2.5h0c0,0,0,0,0,0,0,0,.2-.2.2-.3,0,.2,0,.3,0,.4h0q0,0,0,0c.4-.2.2-.9,0-1ZM51.9,32.8c0-.2,0-.5,0-.7v-.3h0c0,0,0-.2,0,0,0,0,0,0,0,0h0v.4c0,.3-.2.9-.2,1.1,0,0,0,0,0,0,0,0,0,0,0,0s0-.4.2-.6h0c0,.3,0,.6,0,.9,0,0,0,0,0,0,0,0,0,0,0,0-.2-.3-.2-.7-.3-.9ZM59.2,31.7h0c0,0,0,0,0,0ZM55.7,31.9s0,0,0,0c0,0,0-.2,0-.3h0s0,0,0,0,0,.2,0,.3c0,.2,0,.5,0,.7h0c0,0,0,0,0,0q0,0,0-.2v.4h0c0,0,0,0,0,0,.2-.5,0-.9,0-1.1ZM53.1,31.2c0-.4,0-.8,0-1h0c0,1-.3,1.6-.3,1.6h0c0,0,0,0,0,0,0,0,0-.3.2-.8,0,.3,0,.6,0,.8h0s0,0,0,0v-.6Z"/>
  <path class="cls-1" d="M53.1,36.4v.6s0,0,0,0c0,0,0,0,0,0,0,0,0-.6,0-1,0,.2,0,.4,0,.6s0,.4,0,.5c0,0,0,0,0,0s0,0,0,0c0-.2,0-.3,0-.5s0-.5,0-.9h0c0,0,0,0,0,0,0,.2,0,.4,0,.6.3-2.6.4-4.8.3-6.1h0c.5,1.2.3,3.6,0,6.3h0Z"/>
  <path class="cls-1" d="M52.9,37.7h0q0,0,0,0c0,0,0,0-.2,0h0c0,.3-.2.5-.2.7,0,0,0,.2-.2.4,0,.3,0,.6,0,.8v.4s0,0,0,0c0,0,0,0,0,0v-.4c0-.2,0-.4,0-.7,0-.2,0-.3.2-.4,0,0,0-.2,0-.3,0,.6,0,1.3-.2,1.5h0c0,0,0,0,0,0,.2-.3.2-1.6.2-2.1ZM52,37.2h0q0,0,0,0t0,0h0q0,0,0,0h0c-.2.3-.6,1.4-.3,1.7h.2c0-.2,0-.9.2-1.3,0,.3,0,.8,0,1.1,0,0,0,0,0,0,0,0,0,0,0,0-.2-.7-.3-1.5-.4-1.5ZM55.4,36.9q0,0,0,0h0c-.4.3-.4.7-.3,1.3,0,0,0,0,0,0h0s0,0,0,0c0-.5,0-.9,0-1.1v.9h0c0,0,0,0,0,0-.2-.5,0-1.1,0-1.1ZM51.4,36.5q0,0,0,0h0c0,0,0,0,0,0,0,.3,0,.4,0,.6s0,.2,0,.4c0,0,0,0,0,0,0,0,0,0,0,0s0-.2,0-.3q0,0,0-.2c0,.2,0,.5,0,.5h0c0,0,0,0,0,0,0-.3-.3-.9-.3-1Z"/>
  <path class="cls-1" d="M49.2,32.1h0s0,0,0,0c0-.4.2-.8.4-1,0-.2.3-.5.3-.6,0,0,0,0,0,0,0,0,0,0,0,0,0,.2-.2.4-.3.7-.3.3-.5.6-.6.9,0,0,0,0,0,0Z"/>
  <path class="cls-1" d="M49.5,32.8h0q0,0,0,0c0-.4.4-1.4.7-1.7h0c-.2.4-.7,1.3-.8,1.7h0Z"/>
  <path class="cls-1" d="M50.5,32.9c0,0,0,0,0,0,0,0-.2.2-.2.3-.2.4-.6,1-.6,1.5,0,0,0,0,0,0h0s0,0,0,0c0-.4.4-1,.6-1.4,0-.2,0-.3,0-.4,0,0,0,0,0,0ZM48,27.5h0v.2c0,0,0,0,0-.2,0,0,0,0,0,0h0Z"/>
  <path class="cls-1" d="M50.1,29.3c0,0,0,0,0,0h0c0,0,0,0,0,0,0,0-.3.4-.4.6-.2.4-.4.8-.5,1.1,0,0,0,0,0,0h0c0-.5.3-.9.5-1.2,0-.2.2-.5.3-.6,0,0,0,0,0,0,0,0,0,0,.2,0h0c0-.5,0-.8,0-1,0,.3,0,.6-.2.9h0c.3-.8,0-1.5,0-1.5h0q0,0,0,0h0c.2.5.2.9.2,1.6v.2Z"/>
  <path class="cls-1" d="M50,35.4h0s0,0,0,0c0-.4.2-.9.4-1.3,0-.2.2-.4.2-.5,0,0,0,0,0,0h0c0,.2,0,.4-.2.6-.2.5-.4.9-.6,1.3q0,0,0,0Z"/>
  <path class="cls-1" d="M50.1,36.4h0c0,0,0,0,0,0,.2-.2.4-.8.5-1,0-.4.2-.5.2-.5h0c0,0,0,.4-.2.6,0,.3-.2.8-.5,1h0Z"/>
  <path class="cls-1" d="M50.2,37.3h0q0,0,0,0c.2,0,.4-.6.5-.9,0-.3.2-.5.3-.6h0c0,0,0,.4-.2.6-.2.5-.4.9-.7,1h0Z"/>
  <path class="cls-1" d="M50.3,38.4h0s0,0,0,0c0-.5.5-1.4.7-1.6h0c0,.2-.6,1.1-.8,1.6q0,0,0,0Z"/>
  <path class="cls-1" d="M50.4,39.8s0,0,0,0c0,0,0,0,0,0,0-.4.6-1.3.8-1.5h0c-.2.2-.6,1-.8,1.6h0Z"/>
  <path class="cls-1" d="M50.4,40.6h0c0,0,0,0,0,0,.3-.4.7-1.3.7-1.4,0,0,0,0,0,0,0,0,0,0,0,0,0,.2-.4,1.1-.8,1.5q0,0,0,0Z"/>
  <path class="cls-1" d="M47.8,32.7h0q0,0,0,0c0,0-.2,0-.2,0v2.2q0,0,0,0h0s0,0,0,0c0,0,0-1.1,0-2.2ZM48.6,32.9c0,0,0,0,0,0,0,0-.2,0-.2,0v2.2s0,0,0,0c0,0,0,0,0,0,0,0,0-1.2,0-2.2ZM49.4,33s0,0,0,0c0,0-.2,0-.2,0v2.2q0,0,0,0t0,0c0,0,0-1.1,0-2.2Z"/>
  <path class="cls-1" d="M46.9,36.9h0c0,0,0,0,0,0v-.5s0,0,0,0h0s0,0,0,0c0,.2,0,.5,0,.6,0,0,0,0,0,0Z"/>
  <path class="cls-1" d="M47.6,37h0s0,0,0,0v-.6s0,0,0,0h0s0,0,0,0l-.2.6q0,0,0,0ZM48.4,37.2h0c0,0,0,0,0,0v-.5c0,0,0,0,.2,0h0c0,0-.2.7-.2.7q0,0,0,0ZM49.3,37.3h-.2s0-.3,0-.5c0,0,0,0,0,0h0c0,.3,0,.6,0,.6Z"/>
  <path class="cls-1" d="M50,37.5h0c0,0,0,0,0,0,0,0,0-.3,0-.5h0c0,0,0,0,0,0,0,.3,0,.5-.2.6q0,0,0,0Z"/>
  <path class="cls-1" d="M57.3,32.2s0,0,0,0q0,0,0,0c0,0-.2,0,0,0,0-.2,0-.9,0-1.2s0-.3-.2-.4c0,.5,0,.9,0,1,0,0,0,.2,0,.3,0,0,0,0,0,0h0s0,0,0,0,0-.2,0-.3c0-.3.3-.8,0-1.3h0c0,0,0,0,0,0,0,0,0,0,0,.2.2.2.3.4.4.7,0,.2,0,1,0,1.2Z"/>
  <path class="cls-1" d="M57,34.2c0,0,0,.3,0,.4,0,0,0,0,0,0,0,0,0,0,0,0,0-.2,0-.3,0-.4,0-.2,0-.3,0-.5,0,0,0-.3-.2-.4h0c0,.4.2.8,0,1,0,0,0,0,0,0,0,0,0,0,0,0,0,0,0-.3,0-.5,0,.6,0,1-.2,1.6,0,.4,0,.8,0,1.2h0c0-.5,0-.9,0-1.2,0-.7.2-1.2.2-1.9,0-.2-.2-.5-.2-.6h0c0,0,0,0,0,0,0,0,0,0,0,0v-1.5c0-1.1,0-1.9-.3-3.2,0-.6,0-.9,0-1.2v-.5h0v1.1h0c.3.2.4.9.5,1.3,0,0,0,0,0,0,0,0,0,0,0,0,0-.4,0-.9-.3-1.1,0,.4.2,1,.2,1.3,0,0,0,0,0,0h0c0,.8,0,1.3,0,2.1v1.5c0,.2.3.5.3.7.4.4.4.5.3.7Z"/>
  <path class="cls-1" d="M50.3,32.1c0,0-.3.7-.4,1,0,.2,0,.4-.2.5h0v1c0,.9,0,1.6,0,2.7h0c.2-1.1.2-1.9,0-2.7v-1h0v-.2h0v-.9h0v.7c0,0,0-.2,0-.3.2-.5.3-.9.5-1h0v.2Z"/>
  <path class="cls-1" d="M38.8,28.2s0,0,0-.2c0,.2,0,.2,0,.2ZM39.4,27.4c-.2,0-.4,0-.6,0h0q0,0,0,0c0-.2.3-.2.5-.2,0,0,.2.2.2.3s0,0,0,0c-.2,0-.4.2-.6,0h0c0,.3,0,.4,0,.5,0,0,0,.2,0,.4v.3h0c0,0,0,0,0-.3,0-.2,0-.3,0-.4h0s0,0,0,0c0,0,0,0,0-.2h0c.3,0,.5,0,.7-.2,0,0,0-.2,0-.2,0-.2,0-.3-.2-.3Z"/>
  <path class="cls-1" d="M35,26.1v-.6l.4.6h-.4ZM34.9,26.1h-.4l.4-.6v.6ZM33.1,26.7l-.3-1.8h0c0,0,.6,1.8.6,1.8h-.4ZM32.4,26.7v-1.7c0,0,.2,0,.2,0l.3,1.8h-.5ZM32.4,24h0v-.8h0v.8h0ZM33.5,23.6l-.9.4-.2-.7,1,.3ZM32.3,24h0v-.6h0v-.2.8ZM32.3,26.7h-.5l.3-1.7h.2v1.7ZM31.6,26.7h-.4l.5-1.5h0c0,0,0,0,.2,0l-.3,1.6ZM32.1,23.9v.3h0v-.3ZM31.2,24.5l.9-1.2-.3.9-.7.3ZM29.6,26.1v-.6l.4.6h-.4ZM29.5,26.1h-.4l.4-.6v.6ZM35.5,26.1l-.5-.7v-.9h-.2s0,0-.2,0h0c0,0-.2,0-.2,0h0v.5h0s0,0,.2,0,0,0,.2,0c0,0,0,0,0,0h0v.4l-.5.7h-.5c0,.3,0,.4,0,.5s-.3,0-.3,0l-.6-2h0c0,0,0,0,.2-.2,0,0,.3,0,.4,0,0,0,0,0,0-.2s0-.2.2-.2c0,0,0,0,0,0,0,0,.3,0,.3-.4h0c0,0,.2-.2.2-.4h0c0,0,0-.2,0,0l-.8.3-1-.3h.3v-.5h0-.5v-.9h-.2c-.3,0-.4.2-.4.3,0,0,0,0,0,0h-.3q0,0-.2,0c-.2,0-.4.4-.4.4h.2s0,0,0,0c0,0,.2,0,.3,0h.2c0,0,.2,0,.3,0h0q0,0,.2,0c0,0,.2,0,.3,0h0v.4h-.5v.5h.4l-1.1,1.4h0l-1,.4s0,0,0,0h0q0,.2.2.2t.2,0h0s0,0,0,0c0,0,0,0,.2,0h0c0,0,.2,0,.3,0h.2c0,0,.3,0,.4,0h0l-.5,1.5h-.2s-.2,0-.4,0c0,0,0-.2,0-.4h0c0,0-.5,0-.5,0l-.5-.7v-.9h-.6s0,0-.2,0h0c0,0-.2,0-.2,0h0v.5h0s0,0,.2,0,0,0,.2,0c0,0,0,0,0,0h0v.4l-.5.7h-.5l.5.7c0,0,0,0,.3,0s.2,0,.4,0c0,0,0,0,0,.2,0,0,0,0,0,0h0c0,0-.2,0-.2.2v.4c0,0,0,.2.2.2h.5v-.3h0c0,0,0,.2.2.2,0,0,.4,0,.7,0h0l.3.5c0,0,.2.2.3.2h0c0,0,0-.2,0-.4l-.2-.3h.4l.3.5c0,0,.2.2.3.2h0c0,0,0-.2,0-.4l-.2-.3h.4l.3.5c0,0,.2.2.3.2h.2c0-.2,0-.3,0-.4l-.2-.3h.4l.3.5c0,0,.2.2.3.2h0c0,0,0-.2,0-.4l-.2-.4h0c.4-.2.5-.5.6-.7s0-.3.3-.4.3,0,.4-.2c0,0,.2,0,.3-.2l.4-.6h-.7v.3h0Z"/>
  <path class="cls-1" d="M35,34.7v-.5l.4.6h-.4ZM34.9,34.7h-.4l.4-.6v.6ZM33.1,35.3l-.3-1.8h0c0,0,.6,1.8.6,1.8h-.4ZM32.4,35.3v-1.7c0,0,.2,0,.2,0l.3,1.8h-.5ZM32.4,32.7h0v-.8h0v.8h0ZM33.5,32.2l-.9.4-.2-.7,1,.3ZM32.3,32.7h0c0,0,0-.6,0-.6h0v-.2.8ZM32.3,35.3h-.5l.3-1.7h.2v1.7ZM31.6,35.3h-.4l.5-1.5h0c0,0,0,0,.2,0l-.3,1.6ZM32.1,32.5v.3h0v-.3ZM31.2,33.1l.9-1.2-.3.9-.7.3ZM29.6,34.7v-.5l.4.6h-.4ZM29.5,34.7h-.4l.4-.5v.5ZM35.5,34.7l-.5-.7v-.9h-.2s0,0-.2,0h0c0,0-.2,0-.2,0h0v.5h0s0,0,.2,0,0,0,.2,0c0,0,0,0,0,0h0v.4l-.5.7h-.5c0,.3,0,.4,0,.5,0,0-.3,0-.3,0l-.6-2h0c0,0,0,0,.2-.2,0,0,.3,0,.4,0,0,0,0,0,0-.2s0-.2.2-.2c0,0,0,0,0,0,0,0,.3,0,.3-.4h0c0,0,.2-.2.2-.4h0c0,0,0-.2,0,0l-.8.3-1-.3h.3v-.5h0-.5v-.9h-.2c-.3,0-.4.2-.4.3,0,0,0,0,0,0h-.3q0,0-.2,0c-.2,0-.4.4-.4.4h.2s0,0,0,0c0,0,.2,0,.3,0h.2c0,0,.2,0,.3,0h0q0,0,.2,0c0,0,.2,0,.3,0h0v.4h-.5v.5h.4l-1.1,1.4h0l-1,.4s0,0,0,0h0q0,.2.2.2t.2,0h0s0,0,0,0c0,0,0,0,.2,0h0c0,0,.2,0,.3,0h.2c0,0,.3,0,.4,0h0l-.5,1.5h-.2s-.2,0-.4,0c0,0,0-.2,0-.4h0c0,0-.5,0-.5,0l-.5-.7v-.9h-.6s0,0-.2,0h0c0,0-.2,0-.2,0h0v.5h0s0,0,.2,0,0,0,.2,0c0,0,0,0,0,0h0v.4l-.5.7h-.5l.5.7c0,0,0,0,.3,0s.2,0,.4,0c0,0,0,0,0,.2,0,0,0,0,0,0h0c0,0-.2,0-.2.2v.4c0,0,0,.2.2.2h.5v-.3h0c0,0,0,.2.2.2,0,0,.4,0,.7,0h0l.3.5c0,0,.2.2.3.2h0c0,0,0-.2,0-.4l-.2-.3h.4l.3.5c0,0,.2.2.3.2h0c0,0,0-.2,0-.4l-.2-.3h.4l.3.5c0,0,.2.2.3.2h.2c0-.2,0-.3,0-.4l-.2-.3h.4l.3.5c0,0,.2.2.3.2h0c0,0,0-.2,0-.4l-.2-.4h0c.4-.2.5-.5.6-.7s0-.3.3-.4c.2,0,.3,0,.4-.2,0,0,.2,0,.3-.2l.4-.6h-.7v.3h0Z"/>
  <path class="cls-1" d="M35,43.4v-.6l.4.6h-.4ZM34.8,43.4h-.4l.4-.6v.6ZM33,44l-.3-1.8h0c0,0,.6,1.8.6,1.8h-.4ZM32.4,44v-1.7c0,0,.2,0,.2,0l.3,1.8h-.5ZM32.4,41.3h0v-.8h0v.8h0ZM33.5,40.8l-.9.4-.2-.7,1,.3ZM32.3,41.3h0c0,0,0-.6,0-.6h0v-.2.8ZM32.3,44h-.5l.3-1.7h.2v1.7ZM31.6,44h-.4l.5-1.5h0c0,0,0,0,.2,0l-.3,1.6ZM32.1,41.1v.3h0v-.3ZM31.2,41.7l.9-1.2-.3.9-.7.3ZM29.6,43.4v-.6l.4.6h-.4ZM29.5,43.4h-.4l.4-.6v.6ZM35.5,43.4l-.5-.7v-.9h-.2s0,0-.2,0h0c0,0-.2,0-.2,0h0v.5h0s0,0,.2,0,0,0,.2,0c0,0,0,0,0,0h0v.4l-.5.7h-.5c0,.3,0,.4,0,.5,0,0-.3,0-.3,0l-.6-2h0c0,0,0,0,.2-.2,0,0,.3,0,.4,0,0,0,0,0,0-.2s0-.2.2-.2c0,0,0,0,0,0,0,0,.3,0,.3-.4h0c0,0,.2-.2.2-.4h0c0,0,0-.2,0,0l-.8.3-1-.3h.3v-.5h0-.5v-.9h-.2c-.3,0-.4.2-.4.3,0,0,0,0,0,0h-.3q0,0-.2,0c-.2,0-.4.4-.4.4h.2s0,0,0,0c0,0,.2,0,.3,0h.2c0,0,.2,0,.3,0h0q0,0,.2,0c0,0,.2,0,.3,0h0v.4h-.5v.5h.4l-1.1,1.4h0l-1,.4s0,0,0,0h0q0,.2.2.2t.2,0h0s0,0,0,0c0,0,0,0,.2,0h0c0,0,.2,0,.3,0h.2c0,0,.3,0,.4,0h0l-.5,1.5h-.2s-.2,0-.4,0c0,0,0-.2,0-.4h0c0,0-.5,0-.5,0l-.5-.7v-.9h-.6s0,0-.2,0h0c0,0-.2,0-.2,0h0v.5h0s0,0,.2,0,0,0,.2,0c0,0,0,0,0,0h0v.4l-.5.7h-.5l.5.7c0,0,0,0,.3,0s.2,0,.4,0c0,0,0,0,0,.2,0,0,0,0,0,0h0c0,0-.2,0-.2.2v.4c0,0,0,.2.2.2h.5v-.3h0c0,0,0,.2.2.2,0,0,.4,0,.7,0h0l.3.5c0,0,.2.2.3.2h0c0,0,0-.2,0-.4l-.2-.3h.4l.3.5c0,0,.2.2.3.2h0c0,0,0-.2,0-.4l-.2-.3h.4l.3.5c0,0,.2.2.3.2h.2c0-.2,0-.3,0-.4l-.2-.3h.4l.3.5c0,0,.2.2.3.2h0c0,0,0-.2,0-.4l-.2-.4h0c.4-.2.5-.5.6-.7s0-.3.3-.4c.2,0,.3,0,.4-.2,0,0,.2,0,.3-.2l.4-.6h-.7v.2h0Z"/>
  <path class="cls-1" d="M59.5,38.5h0l-.8-.4h0l-.7,1.3-1.4-.4-.9,1.3-1.1-.3h0l-.9,1.4-1.2-.2h0l-.9,1.3-.7-.3h0v-.5h0l.4.2h0l.9-1.3,1.2.3h0l.9-1.5,1.1.3h0l.9-1.3,1.4.4h0l.7-1.3.9.3h0c.2.3.2.5.2.7Z"/>
  <path class="cls-1" d="M23.1,35.7h0Z"/>
  <path class="cls-1" d="M59,24v.9-.9ZM57.9,14.7c0,0,0,0,0,0,0,0,.2.2.3.3v.2c0-.2-.2-.4-.3-.5ZM57.5,14.1h0s0,0,0,0l.2.2c0,0,0,0-.2-.2ZM55.8,14h0q0,0,0,0t0,0c0,.2,0,.2-.2.3,0,0,0,0,0,0l.4-.9h.2c-.3.3-.3.5-.3.6ZM54.6,16h0l-.6,1.3h0c0,0-.4.9-.4.9h0c0,0-1.5,3.4-1.5,3.4h0q0,0-.3,0s0,0,0,0c-.2,0-.3-.2-.5-.2h0c0,0,4.2-8.7,4.2-8.7h0c0,0,0,0,0,0h0c.2,0,.3-.2.4-.4v.2c0,.2,0,.4,0,.5h0l-1.5,2.9ZM47.2,19.4c0,.2,0,.4,0,.7,0,0-.3,0-.4,0s0,0-.2,0h0c0,0,.2-.2.3-.3.2,0,.3,0,.4-.2ZM52.2,16.9q0,0,0,0,0,0,0,0c0-.2.2-.2.3,0h.2c0,0,0,.2,0,.3,0,0,0,.2,0,.4h0c0,0-.5.9-.5.9,0-.3,0-.5,0-.7,0-.4,0-.7,0-.9ZM47.6,20.5c0,0-.2-.2-.3-.2h0c0-.6.2-.9.3-1,0,0,0-.2,0-.3,0-.4.2-.5.3-.7,0,0,0,0,.2-.2h0c0,.3-.2.7-.3.9,0,.6-.3,1-.3,1.4ZM50.1,21.4q0,0-.2,0c0-.2,0-.3,0-.4h0c0,0,0,0,0,0q0,.2,0,.3ZM50.1,20.7h0c0,0-.2,0-.2,0,0,.2,0,.3,0,.4s0,.2,0,.4h0c-1,0-1.6-.6-2-.9h0c0-.5.2-.9.3-1.5,0-.3.2-.7.3-.9h0s0,0,.2,0c0,.3,0,.8,0,1.2s0,1.2-.2,1.5v.2h0s0,0,0,0c.2-.4.2-1,.2-1.6s0-1.1.2-1.3h0q0,0,.2,0c0,.2,0,.6,0,1.2s0,1,0,1.3q0,0,0,0h0q0,0,0,0c0-.3,0-.9,0-1.3s0-1,0-1.1c0,0,0,0,.2,0h0c0,.2,0,.6,0,1.1,0,.6.3,1.2,0,1.4v.2h.2c.2-.2,0-.8,0-1.6,0-.5-.2-.9,0-1.1h0c0,0,.2,0,.3-.2h0s0,0,0,0h0c0,.4,0,.9.2,1.5,0,.5.2.9,0,1q0,0,0,0h0s0,0,0,0c0-.2,0-.6,0-1.1s-.2-1.3,0-1.6h0c0,0,0-.2.2-.2h0c.3.4.3,2.3.2,2.6q0,0,0,0h0s0,0,0,0c0-.3,0-2.2-.2-2.7,0,0,.2,0,.3-.2,0,0,0,0,0,0h0c.3.9.3,1.5.3,2v.5c0,0,0,0,0,0h0c0,0,0,0,0,0v-.5c0-.6,0-1.2-.3-2,.2,0,.3-.2.3-.3s0,0,0,0,0,0,.2,0c0,.3,0,.5,0,.8s0,.6,0,.9c0,0,0,0,0,0l-1.2,2.6h-.3c-.3,0-.5,0-.6.3q0,0,0-.2c0,.2,0,0,0-.2ZM52.9,16.6h0c0-.4.2-.4.3-.4s0,0,.2,0h0v.2l-.5.9v-.2c0-.2,0-.3,0-.5ZM53.7,15.8h0c0,0,0,0-.2,0h.2ZM52.9,11.3c0,.2.2,1.3,0,2.4,0,.3-.6.7-.8.7h0c0-.2,0-.3.3-.5,0,0,.2-.2.2-.3.2-.8,0-1.5,0-1.9v-.3c0,0,0,0,.3,0,0,0,0,0,0,0ZM52.3,21.8q0,0,0,.2s0,0,0,0h0c0,0-.3.2-.3.2h0c0,0,.2,0,.3,0,0,0,0,0,0,0,0,0,0,0,0,.2s0,0-.2.2h0c0,0-.3,0-.3,0h0s.2,0,.3,0q0,0,0,.2c0,0,0,0-.2.2h0c0,0-.3,0-.3,0h.2c0,0,0,.2,0,.2-.2.2-.7,0-1.6,0h0c-.2,0-.4,0-.7-.2-.5-.2-1.1-.4-2-.5-.7,0-1.7-.6-2.5-1,0,0,0,0-.2,0h0s0,0-.2,0c0,0-.2-.2-.3-.4,0,0,0,0,0-.2h0v-.3c0-.5.2-.9.6-1.3,0-.2.2-.4.4-.6.4-.6.5-.9.9-1.3.4-.6.6-.9.9-1.5,0-.3.7-.9,1-1,.3-.2.7-.2,1-.2h.8c.6-.4,1-.5,1.3-.7,0,0,.3,0,.4,0,0,.6,0,.9.3.9h0s0,0,0,0c0,0,0,0,0,0s-.2-.6-.2-.9c0-.5,0-.9-.3-1.1.5,0,.9-.3.9-.3h0q0,0,0,0s-.6.3-1,.3h0c-.3,0-.6,0-.9,0-.2,0-.3,0-.3-.3,0-.2,0-.3,0-.5h0c.2,0,.4-.3.5-.4h0v-.2s-.2-.2-.7-.3h0s0,0,0-.2h0c0,0,0,0,0,0,0,0,.2,0,.3,0,.2,0,.3-.3.2-.4,0,0-.2-.2-.5-.2,0,0,0,0,0,0,0,0,0,0,0,0,.2,0,.3,0,.3,0s0,.2-.2.3c0,0,0,0,0,0,0,0-.2,0-.3,0h0c0,0,0,0,0,0q0,0,0,0c0-.3.3-.7.5-.9,0,0,0,0,0,0,.2-.2,0-.3,0-.4,0,0,0,0,0-.2s0-.2.2-.3c0-.2.2-.3.3-.5h0c0,0,.2-.2.3-.3.3,0,.5.2.9,0,0,0,0,0,0,.2-.6,0-1,.2-1.4.7h0c.5-.6.9-.6,1.3-.6h0c0,0,0,.2,0,.2h0v.4h-.4c-.2,0-.5-.3-.9.2h0c0,0,0,0,0,0,.6,0,.9.3.9.6,0,.2,0,.4-.3.6h0c0,0,.2,0,.2,0,.4,0,.5,0,.6,0,0,0,0,.2,0,.2,0,0-.2,0-.3,0,0,0,0,0,0,0h0c0,0-.2.3-.2.4s0,.3.3.3h0c0,0-.2.2-.2.4s0,.4.2.5c0,0,.2,0,.3,0s.2,0,.4,0h0q0,0,0,0c-.3,0-.5,0-.6,0s-.2-.3,0-.5c0,0,0-.2.2-.3,0,0,.2,0,.2,0,.2,0,.3.2.3.3s0,0-.2,0c0,0,0-.2,0-.2-.2,0-.3,0-.3.2,0,.4.5.4.8,0h0q0,0,0,0c-.2.2-.6.3-.6,0,0,0,0,0,0,0s0,0,0,0c0,.2.3,0,.3,0s0-.2-.3-.3c0,0,.3,0,.4-.3s.2-.4,0-.5h0c0,.2,0,.4,0,.6s-.2.3-.4.3-.3,0-.3-.2,0-.3,0-.4h0c0,0,.3.2.4,0,0,0,0-.2,0-.3,0,0-.3-.3-.5-.2.2-.2.3-.4.2-.6,0-.3-.4-.5-1-.6.4-.3.7-.2.8,0,0,0,0,0,.2,0h.3s0,0,0,.2c0,0,0,.2.2.2h0v.3h0c.2.3.4,0,.5,0,0,0,0,0,.2,0,.2,0,.3,0,.3,0,0,.2,0,.5,0,.8,0,.2-.3.4-.4.5h0c0,0,0-.2,0-.2,0,0,0,0,0,0h0c0,0,0,0,0,0h0s0-.2,0-.3h0c0,0,0,0,0,0,0,0,0,.3,0,.4h0c0,0,0,0,0,0h0v.2q0,0-.2,0s0,0,0,.4c0,.4.2,1.1,0,1.9,0,0,0,0-.2.2-.2.2-.5.4-.3.7h0c.3,0,.9-.4.9-.8.2-1,0-2.3,0-2.4,0,0,0,0-.2,0h0c.2-.2.4-.5.5-.7h0c.2,0,1.1-.4,1.6-2-.2,1.3-.7,2.1-1.6,2.3h0c.7-.2,1.5-.7,1.6-2.4,0,1.4-.4,1.8-.5,1.8h0q0,0,0,0s.6-.6.4-2.2h0c0,0,0,0,0,0-.4,1.8-1.3,2.2-1.5,2.3,0-.2,0-.3,0-.5,0,0,.6,0,1-.8h0q0,0,0,0c-.5.7-.9.7-.9.7,0,0,0-.2,0-.2,0,0-.2-.2-.5-.2s-.2,0-.2,0c0,0-.2.2-.3,0h0v-.4c0,0,.3,0,.4,0,.4,0,.9,0,.9,0h0c0,0-.9.2-1.3,0,0,0-.2,0-.2-.2,0-.2,0-.3,0-.4.3.3.8.3.9.3h.3s-.8,0-1.2-.3c0,0,0-.4-.2-.6.3.3.8.4,1.3.4h0c.7,0,1.2-.2,1.5-.6,0,0,0-.2,0-.4,0,0,0-.2-.3-.2,0,0,.2,0,.2,0h0c.2.2.2.3.2.5,0,.4-.7.7-.7.7h0q0,0,0,0s.7-.3.7-.7,0-.4-.2-.5h.3c0,0,0,.2,0,.3h0c0-.2,0-.3-.2-.4,0,0-.4,0-.7,0,0,0,0-.2-.2-.2.4-.2.6,0,.6,0h0c0,0-.3-.2-.7,0h0v-.2c0,0,0,0,.2,0,0,0,.2,0,.3,0h0c.3,0,.6,0,.7,0h0c0,.2.2.3.2.4h0v.3c0,.2,0,.4-.3.4h0q0,0,0,0h0c.2,0,.4-.3.4-.6v-.3l.2-.2c0,0,0,0,0,.2,0,.3,0,.7-.2.9-.2.2-.4.3-.6.2h-.2c.4,1.3,0,1.8,0,1.8h0c0,0,.4-.4,0-1.7h0c.6,1.5,0,2.3-.3,2.6,0,0,0,.2-.2.2,0,.2-.3.5-.5.7h0s0,0,0,0h0c0,.5,0,.9,0,1.2h0c0,.5-.2.9-.3,1.3h0c0,0,0,0,0,0,.2-.4.3-.8.3-1.1.2.2.4.3.8.4l-1.1,2.3h0c0,0-.3,0-.4.3h0c0,0-.4,0-.4.5h0c0,0,0,.2-.2.2-.2,0-.4,0-.4,0h0c0,0,0,0-.2,0-.2,0-.2,0-.3,0s0,.2-.3.2h-.2q0,0-.2,0c0,0-.2.2-.5.2s-.3,0-.4.2h0s0,0,0,0,0,0-.2,0c0,0-.2,0-.2,0-.2,0-.3,0-.4.2h0c0,0,0,0,0,0h0c-.3,0-.7.2-.8.3h0c0,0,.2-.5.4-.9h0c0,0,0,0,0,0,0,0-.4.4-.5.8h0c0,0-.2.2-.2.3-.2.2-.2.3-.4.8h0v.2c0,.2-.4.4-.6.6-.2,0-.3.2-.3.3h0c-.2,0-.2-.2-.2-.4,0,0,0,0,0,0s0,0,0,0c0,.4.3.5.6.6s.6.2.9.5c.3.4.9,1,2.3,1.1,0,0,.2,0,.4-.2h0c.2,0,.4-.3.6-.3h.2s0,0,0,0q0,0,0,.2s0,0,0,0h0c.3,0,.4,0,.6.2h.5c.9-.2.9,0,.9,0ZM49,25.4h0l-.2.5c0-.3,0-.6,0-.9,0,0,0,0,0,0,0,0,0,.2,0,.4ZM46.6,24h0c0,0,0,.2-.2.3-.2.2-.3.4-.5.7h0c0,0,0,0,0,0,0-.3.3-.5.4-.7.2-.2.3-.4.5-.7h0c0,0,0,0,0,0,0,0,0,0,0,.2,0,0,0-.3.2-.5,0-.2.2-.5.3-.7h0c.4,0,.8,0,1,.2,0,.2,0,.4,0,.6s0,.4,0,.6c0,0,0,0,0,0h0s0,0,0,0c0-.2,0-.4,0-.6v-.2.6s0,0,0,0c0,0,0,0,0,0,0-.3,0-.5,0-.9h0c.3,0,.6,0,.8,0,.3,0,.6.2.8.2l-.8,1.6q0,0,0-.2c0,0,0-.2,0-.4,0,0,0,0,0,0h0c0,0,0,.2,0,.4,0,.4-.2.9-.2,1.1h0c0,0-.5,1.1-.5,1.1v-.2l.5-.9h0c0,0,0,0,0,0,0,0-.2.3-.3.5h0c0,0,0-.2,0-.2,0,0,0,0,0,0,0,.2,0,.4,0,.6,0,.2-.2.5-.2.7,0,0,0,0,0,0h0v-.2h0v.2s0,0,0,0l-.2.4h0s0,0,0,0h0q0,0,0,0v.3h0c0,0-.2.5-.2.5,0-.8,0-1.6.2-2.2h0v-.3h0c0-.4.2-.6.3-.9,0,0,0-.2,0-.3h0c0,0,0,0,0,0,0,0,0,.2,0,.3-.2.4-.4.7-.4,1.2,0,0,0,0,0,0,0,.6-.2,1.5-.2,2.3l-.2.4v-1.4s0,0,0,0,0,0,0,0c0,.4,0,1.8,0,1.8l-.2.4c0-1.7,0-2.8.2-3.6h0s0,0,0,0c0-.7.3-1,.5-1.3,0,0,0-.2.2-.3h0c0,0,0,0,0,0,0,0,0,.2,0,.3,0,.3-.3.6-.4,1h0v.4c0,.8-.2,2-.2,3.8l-1.9,3.9v-12.1c.7.4,1.6.9,2.3,1,0,.2,0,.5-.3.7-.4.3-.5.5-.4.7ZM48.1,29.8h0l-4,8.4c.4-1.2.6-2.6.7-3.9h0l2.3-4.5h0c0,0,.2-.6.2-.6h0l2.7-5.6c.4,0,.7,0,.9,0l-2.8,6.1ZM43.9,35.9l-1.6-1.6h.7c0,0,1,.9,1,.9v.7ZM43.2,36.9h0l-2-2,.7-.7h0l1.9,1.9-.6.8ZM42.4,37h0l-1.2-1.2v-.6c0,0,1.8,1.7,1.8,1.7h-.6ZM40.4,37.3l1-1,.6.5-1,1-.6-.5ZM42.7,40.3c0,0-.2,0-.3,0s-.3,0-.4-.2l-3.6-3.7.5-.6,3.7,3.6c.2.4.3.7,0,.8ZM38,40.7c0,0-.3.2-.4.2s-.2,0-.3,0c-.2-.2,0-.5,0-.7l2.1-2h0l.5.5-2.1,2.1ZM39.3,45.8c-.5,0-.4.3,0,.4-.7-.2-.3.3,0,.4-.8-.2-.5.3,0,.5-.7,0-.6,0-.3.4-.4,0-.8.3-1.1.4.3-.3.2-.7-.3-.3.3-.2.4-.8,0-.4.3-.3.3-.7,0-.4.3-.2.3-.5,0-.3h0c.5-.4.9-.7,1.4-.9,0,0,0,.2.2.3ZM39.9,47.3h0c.5,0,.9-.2,1.2-.3.2,0,.4,0,.7,0,.4,0,.8,0,1,0h1.2c.4,0,.8,0,1.1.2,0,0,0,0,0,0,0,.2,0,.4,0,.4s0,0,.2,0h.2c0,0,.3,0,.4,0s0,0,.2-.2c0,0,.2,0,.3,0,.4.2.8.4.9.6,0,0,0,0,0,0,0,0,.2.2.2.3,0,0,0,.2,0,.2h0v.9h0v.4h0c0,.4,0,.8,0,1.2v1.2c0,.3,0,.5-.2.7-.3.3-.7.4-1.2.4h-.8c0,0-.2,0-.2,0,0,0-.2,0-.2.2,0,0-.2.3,0,.6,0,0,0,0,0,0h0c0-.3,0-.4,0-.6,0,0,.2,0,.3-.2,0,0,.3,0,.5,0h.4c.7,0,1.1,0,1.3-.4.2-.2.3-.5.3-.8v-1.3c0-.3,0-.6,0-.9h0v-.3c0,0,0,0,0-.2,0,0,.3-.2.6-.3,0,0,.3,0,.4,0h.6c.3,0,.5.2.6.3.3.5.7.9,1,1.5.4.6.8,1.1,1.1,1.6.3.4,0,.8,0,.9-.3.6-1,1-1.7,1s-.5,0-.7-.2c-.3-.2-.7-.8-.9-1.2.4-.3.9-.6,1.2-.7l.4.7c-.2,0-.4,0-.6.2-.2,0-.3.4-.3.7,0,0,0,0,0,0h0s0,0,0,0c0-.3,0-.4.3-.6.3-.2.6,0,.6,0h.2l-.5-.9c.6-.2,1.1-.2,1.6.3h0c-.8-.9-1.9-.5-2.9.3h0s0,0-.2,0h0c0,.2-.2.2-.3.3,0,0-.2,0-.3.2-.6.5-1.7,1.2-2.7,1.2s-.9-.2-1-.6c0,0,0-.4,0-.7v-1.1c0-.4,0-.9-.2-1.4h0c1.5.3,2.4.9,2.6,1.3,0,.2,0,.4,0,.6h0q0,0,0,0h0c.2-.2.2-.4,0-.7-.2-.5-1-1.1-2.6-1.4,0,0-.2,0-.4,0h0c-.3,0-.5,0-.8,0h-.9c-.3,0-.6,0-.9,0h0c-.2,0-.3,0-.5,0-.3,0-.6,0-.8.2h0q0,0-.2,0h0c-.2,0-.3,0-.5,0h0c0,0-.2,0-.3,0-.5,0-.9.3-1.2.4-.2,0-.3,0-.5.2h0c-.2,0-.4.2-.6.2-.2,0-.4,0-.6.2-.3,0-.6.2-.9.3,0,0-.3,0-.4,0s0,0-.2,0h0c-.2,0-.3,0-.5,0h-.6c-.2,0-.3,0-.5,0-.3,0-.5,0-.8,0h-2.6c-.4,0-.8,0-1-.2-.2,0-.3,0-.5,0-.3,0-.5,0-.8-.2-.3,0-.5-.2-.8-.3l-.9-.4h0c0,0,0,0-.2,0-.2,0-.4-.2-.6-.2h0c-.2,0-.5-.2-.7-.3q0,0-.2,0c-.2,0-.3,0-.5-.2h0c-.2,0-.4,0-.5,0-.2,0-.4,0-.6,0s-.3,0-.5,0h0c-.3,0-.7,0-.9,0h-.9c-.4,0-.8,0-1,0h-.2c-1.6.3-2.6.9-2.7,1.4,0,.3,0,.5,0,.7h0c0-.3-.2-.4,0-.7.2-.5,1.1-1.1,2.7-1.3v.2c0,.2,0,.3,0,.5h0c0,.3,0,.5,0,.6h0v.6h0v1.5c-.3.4-.6.6-1,.6-.9,0-2.1-.8-2.7-1.2-.2,0-.3-.3-.5-.4h0s0,0,0,0c-1-.8-2.3-1.3-3.1-.5h0c0,0,0,0,0,0,.5-.5,1-.5,1.6-.3l-.6.9h.2s.4,0,.6,0c.2,0,.3.3.3.6,0,0,0,0,0,0h0s0,0,0,0c0-.3,0-.5-.3-.7s-.5-.2-.6-.2l.4-.8h0c.4.2.8.4,1.2.7h0c-.2.5-.6,1.1-.9,1.2-.2,0-.4.2-.7.2-.7,0-1.4-.5-1.7-1,0-.3-.3-.6,0-.9.3-.6.8-1,1.1-1.6.4-.6.8-1,1-1.5,0-.2.5-.4.9-.4h0c.2,0,.4,0,.6,0h0s.2,0,.4.2c.2,0,.3.2.3.3,0,.7.2,1.8,0,2.5,0,.3,0,.6.3.8.3.3.8.5,1.3.4h.7c.2,0,.3,0,.4.2h0c0,0,0,.3,0,.4,0,0,0,0,0,0h0s0,0,0,0c0-.2,0-.4,0-.6h0c0-.2-.3-.3-.5-.3h0c-.2,0-.5,0-.8,0-.6,0-1,0-1.2-.4-.2-.2-.2-.4-.2-.7,0-.7,0-1.8,0-2.5h0c0-.3,0-.7,0-.9v-.2h0c0-.2,0-.4.3-.6h0c0,0,.2,0,.3-.2,0,0,.3-.2.4-.3h0c0,0,.2,0,.3,0h0c0,0,.2,0,.3,0s0,0,.2,0,0,0,0,0q0,0,.2.2c0,0,.3.2.4.2h.5c0,0,.2,0,.2.3l.4,1.5h0c0,0-.7-.4-.9-.6-.7-.4-1.3-.9-1.4-.9s0,0-.2,0h0c0,0,.5,2.2.5,2.2,0,.3,0,.4,0,.5q0,0-.2,0h0,0c.2,0,.4,0,.4,0,0,0,.2,0,.5,0q0,0,0,0h-.3c0,0-.2,0-.2-.4l-.4-1.4h0c0,0,.6.4,1,.7s1,.6,1.3.8h0v-.6c0,0-.5-1.7-.5-1.7,0-.2,0-.3,0-.3h.2,0c-.2,0-.3,0-.4,0s-.3,0-.5,0h0c0-.2,0-.3,0-.4h0s0,0,0-.2h0c0,0,.3,0,.4-.2h2.1c.4,0,.8,0,1.1.2.2,0,.3,0,.5,0h0c0,0,.2,0,.3,0,.2,0,.3,0,.5,0,.2,0,.4,0,.6.2h0c.2,0,.3,0,.5.2h0c0,0,.2,0,.3,0,.2,0,.4.2.7.2h0c.3,0,.5.2.8.3s.5.2.8.3.5.2.8.2h0c.3,0,.7.2.9.2s.3,0,.4,0c.6,0,1.1,0,1.8,0h.3c.9,0,1.7,0,2.5-.2h.3c.4,0,.7-.2,1-.3q0,0,.2,0h0c0,0,.2,0,.2,0h.2c.3,0,.6-.2.8-.3s.3,0,.5-.2c.2,0,.3,0,.5-.2.3,0,.7-.2.9-.4,0,0,.2,0,.4,0ZM46.6,47h.2c0,0,.2.2.3.4-.2,0-.4-.2-.5-.4,0,0,0,0,0,0ZM47.1,46.8h0,0ZM48,49.2h.2c0,0,0,0-.2,0,0,0,0,0,0,0ZM44.6,53.9s0,0-.3,0c.4,0,0-.3,0-.2.4,0,.2-.3-.2-.3.5,0,.3-.4-.2-.3.7,0,.2-.4-.2-.4.8,0,.3-.5-.3-.5.9-.2.3-.5-.4-.6,1.1,0,.4-.6-.5-.7.8,0,.9-.2.6-.4h.6c0,.5,0,.9.6,0h0c-.3.8-.2,1.5.3.9h0c0,.4,0,.8,0,.7v1c0,.3,0,.6,0,.7ZM35,53c0,0,0-.2.2-.4,0,0,.3,0,.4,0-.2.2-.4.4-.6.5ZM33.7,53.1c0,0,0,0,0-.2h0c0,0,0,0-.2.2ZM32.5,53.4c0,0-.2,0-.2,0,0,0,0,0-.2,0h.4ZM30.9,52.9h0q0,0,0,.2c0,0,0-.2,0-.2ZM29.2,52.6c0,0,.2,0,.3,0,0,0,0,.3.2.3-.2,0-.3-.2-.5-.4ZM20,50.7s0,0,0,0c0,0,.2,0,.3,0,0,0-.2,0-.3,0ZM19.8,51.3s0,0,0,0q0,0,.2,0c0,0,0,0-.2,0ZM15.6,48.9h0,0ZM16.3,48.3q0,0,0,0c-.2,0-.3,0-.4,0,.3-.2,1.2-1,0-.5-1.1-.6-.4.3,0,.5-.6,0-1-.3-1.5-.4.3,0,1.3-1,0-.5-1.1-.7-.4.3,0,.5-1.2-.4-2.1-.8-2.8-1.1h0c0,0,0,0,0,0,0,.2.3.3.4.4.3,0,1.1-.9,0-.5,0,0-.2,0-.3,0h0c0,0,.2,0,.3,0,.5-.2.9-1,0-.5.3-.3.6-.7.4-.7h0c0,.2.2.4.4.4-.2,0,0,.5.3.8-.9-.7-.5.3,0,.6.5-.2.9-1,0-.6.5-.4.8-.9,0-.6.4-.3.7-.7,0-.5h0c.2,0,.3-.3.3-.3.2,0,.4,0,.6,0h0c0,0,0,.2.2.2-.5-.3-.4.2,0,.4-.6-.2-.4.2,0,.5-.7-.5-.5.2,0,.6-.9-.7-.5.3,0,.6.5-.2.9-1.1,0-.6.5-.4.8-1,0-.6.4-.3.7-.7,0-.5.4-.2.6-.6,0-.4.2,0,.3-.2.3-.3h.2c0,0,.2,0,.4,0,0,0,.2,0,.3,0,0,0,0,.2.2.3-.5-.2-.3.2,0,.3-.5-.2-.4.2,0,.4-.7-.2-.4.2,0,.5-.8-.5-.5.2,0,.6-.9-.6-.5.3,0,.6.5-.3.9-1.1,0-.6.5-.4.8-1,0-.6.4-.3.7-.8,0-.5.2,0,.3-.2.3-.3,0,0,.2,0,.4.2.2,0,.3,0,.4.2,0,0,0,.4.5.6-.8-.5-.7,0-.2.5h0c-.5-.2-.5,0-.3.2,0,0,0,.4-.2.6ZM11.2,47c0,0,0,0,.2-.2h0c0,.2.2.2.3.3-.2,0-.5,0-.6,0ZM12,46.1h0q0,0,0,0ZM10.3,47q0,0,.2-.2,0,0,.2,0s0,0,0,0q0,0-.3,0,0,0,0,0ZM11,47.1c0,0,0,.2-.3.3h0c0,0-.2,0-.3,0h0c0,0,0,0,0,0h.2c0,0,0-.2,0-.2,0,0,0,0-.2,0h0c0-.2,0-.2,0-.3h0c0,0,0,0,0,0,0,0,0,0,0,.2s0,0,0,.2h0q0,0-.2.2h0v-.2c0-.3.3-.4.3-.4h0q0,0,0,0s-.2.2-.4.5h0c0-.3,0-.3.2-.4h0v-.2h-.2c0,.2-.2.2-.2.4h0v-.2l.3-.2h0l-.3.2c0,0,0,0,.2-.2h0c.3-.4.3-.5.4-.7,0,0,0,0,0,0h0q.2-.3,1-.2h.3c.3,0,.4,0,.5.2h0c0,0-.2.2-.2.3h0c0,0-.2.2-.3.4h0c0,.2,0,.3-.2.4h0v.2q0,0,0,.2c0,0,0,0-.2.2h0c0,0,0,0,0,0-.3-.5-.4-.4-.4-.3ZM9.7,45.8c.2,0,.6-.4.5-.4h0c0,.2,0,.3-.4.6,0,0,0,0-.2-.2ZM9.7,45.8c-.2-.2-.5-.3-.7-.5.2,0,.3,0,.5,0,0,0,0,0,.2.2-.7-.4-.2.2,0,.4ZM13.1,45.9c0,0-.2,0-.3-.2h0c0,0,.2,0,.2.2ZM16,45.5c0,0,.2,0,.2,0h0c0,0-.2,0-.2,0ZM16.1,45.7h0q0,0,0,0c0,0,0,0-.2,0,0,0,.2,0,.2,0ZM8.7,45.2h0c0,0-.2,0-.3,0,0,0-.2,0-.3-.2,0,0,0,0,0,0,0,0,0-.2,0-.3h0v-.2h0c0-.3,0-.6,0-1.1h0v-.2h0v-.2h0v-.3c0-1.1-.2-4.4-.2-5.8v-.7c0-.7,0-1.5.3-2.2s.2-2.1.2-3.6,0-2.7,0-3.7c0-.6.7-1.9,1-2.9.4-.9.7-1.5.7-1.8.3-.2,1.3-.2,2-.2h.6l3.7,7.5v2c0,1.1,0,2.5,0,3.8,0,1.1.4,2.4.6,3.4.2.9.3,1.5.4,2,0,1.8,0,2.4.4,3.6-.8-.2-.9-.4-1.4-.8h0c-2.3-2.1-3.3-3.2-3.8-8.1h0c.5,4.9,1.5,6.1,3.8,8h0c.5.5.7.8,1.5.9h0c0,0,0,.2,0,.4h0c-.3,0-.6,0-.9-.2-.3,0-.5,0-.6-.2h0c0,.3.4.3.7.4.3,0,.7,0,.9.3h0q0,0,0,.2h0c-.3,0-.7,0-1,0-.2,0-.3,0-.4.2-.2,0-.3.2-.5.2s-.4,0-.6,0c-.2,0-.3,0-.4,0h-.6c0-.8-.3-1.8-.8-3.2-1.2-3.6-3.2-9.6-.9-19.1h0q0,0,0,0c-2.3,9.6-.2,15.5.9,19.1.5,1.4.9,2.5.8,3.1h0c-.4-.2-.9,0-1,0h0v-.2c0-.6,0-1.7-.6-3.8h0c.6,2.2.6,3.3.6,3.9v.2c0,.2,0,.3,0,.3h0c0,0,0,.2-.2.2h0c0,0-.2,0-.3-.2,0,0,0,0,0-.2h0s0,0,0,0h0v-.9c0-.9,0-2.3-.4-4.1h0c.4,1.8.4,3.2.4,4.2v.9h-.2q0,0-.2,0h-.4c-.9,0-.9,0-1.1,0q0,0-.3.2s0-.2,0-.3h0c0-.5,0-.9.3-1.3.2-.7.5-1.5.5-2.5,0-7.7.3-13.2,1.5-18.9h0q0,0,0,0c-1.2,5.8-1.5,11.3-1.5,18.9s-.3,1.8-.5,2.5c-.2.5-.3.9-.3,1.2h0c-.3,0-.7.2-1,.3,0,.4,0,.4-.2.4ZM9.3,20.4c.5-.2.9-.5,1.3-.9h.3c.2,0,.4,0,.6,0l1.1,2.3h-.8c0-.3-.5-.7-.5-.9h0c0,.3.4.8.6.9h0c-.2,0-.5,0-.7,0h0c-.4-.3-.7-.8-.8-1.1h0c0,.5.4.9.8,1.2-.3,0-.6,0-.8.2-.7-.7-.9-1-1.1-1.7ZM7.6,20.8c-.4,0-.9.2-1.4.2s-1,0-1,0c0-.2-.2-.7,0-1,0-.3.2-.6.4-.9.2-.3.4-.7.5-.9,0-.2.2-.4.3-.6,0-.2.2-.3.3-.5.2-.3.4-.6.6-.9h0c0,0,0-.2.2-.2,0,0,0-.2.2-.2,0,0,0,0,.3.4.4.7.8,1.6.8,1.7h0c0,0,0,0,0,.2,0,.3-.3.6-.8.9h0c-.2,0-.4.2-.7.2h.9c.3,0,.7,0,.9,0,.3,0,.7-.2.9-.3.6-.4.9-.6,1.1-1,.3-.4.5-.3.9-.3h.3c0,0,.2,0,.2,0v.2h-.5s0,0,0,0c0,0,0,0,0,0h.8c.2,0,.3,0,.3,0,0,0,0,0,0,.3h-.8s0,0,0,0c0,0,0,0,0,0h.8c0,0,0,.2,0,.2q0,0,0,.2h-.8s0,0,0,0c0,0,0,0,0,0h.8c0,0,.2,0,.2.2,0,.2-.2.4-.3.4h0q0,0,0-.2h0v-.2h0s-.2,0-.5,0h0s0,0,0,0c0,0-.2,0-.3.2-.2,0-.4,0-.6,0s-.3,0-.4,0c-.9.4-1.8.8-2.9,1ZM5.9,21.7c-.3.9-.6,1.9-.7,2.9h0c0,.3,0,.4,0,.6,0,.2,0,.5,0,.9s0,.6.2.8c0,.2.2.3.3.3h0c0,0,.2-.2.2-.4h0c0,.2,0,.3,0,.3s-.2,0-.3-.2c0-.2-.2-.5-.2-.7,0-.5,0-.7,0-.9s0-.3,0-.5c.3.7.7,1,.9,1.2,0,0,0,0,0,0,0,.2-.2.4-.3.7,0,.4-.2.8-.6.8h0c-.3,0-.6-1.2-.7-1.6,0-.4-.6-.9-1.2-1.5-.9-.9-2.1-2.1-2.2-3.1-.2-1.1.3-2.6.7-3.9.2-.8.4-1.5.5-2.1,0,0,0,0,0,.2.6.8.9,1.4,1.2,2,.4.8.7,1.2.9,1.2h0c.5,0,.7-.5.9-.8,0,0,.2-.3.2-.3h0c0,.4-.3.8-.5,1s-.4.6-.4.9c0,.4,0,.9,0,1.2,0,.2.5.2.9.2h.2c-.2.4-.2.6-.3.7ZM2.1,14.7c0,0-.2-.2-.2-.3h0c.5-1.4.9-2.6,1.5-3.6l.8,1.1.3-.5-.8-1.1c.9-1.7,1.6-2.7,1.9-3l.7,1.4h0s0,0-.2,0c-.4.2-1.1.5-1.7.8h0c0,0,0,.2,0,.2,0,0,0,.2-.2.4h0c0,0,0,0,0,0,.6-.3,1.2-.6,1.5-.8.2,0,.3,0,.3,0,0,0,.4-.4.5-.6l1.6,3.2h0c-1.3,1.7-2.3,3.9-2.7,5.1h0c0,.3-.2.6-.3.8,0,.4,0,.6,0,.7h0c0,0,.2,0,.2,0,0,0,0,0,0,0h-.3s0,0,0-.5c0-.2,0-.4.3-.7.2.2.5.5.6.6,0,0,0,.2-.2.3-.2.3-.3.7-.7.7h0c-.3,0-.5-.5-.9-1.1-.3-.6-.7-1.2-1.2-2-.4-.3-.6-.6-.9-.9ZM.9,12.5v-.4h0c.8-.6,1.3-.9,1.4-.9h0l.4-.8h0c-.6.5-1.2.9-1.5,1.1.2-.8.6-1.6,1-2.5l.9,1.2c-.5,1-1,2.2-1.5,3.6-.3-.6-.6-1-.6-1.4ZM3.9,6.3l-.3,2.6v-.2c.2-.2.4-.5.5-.7s.2-.3.2-.3l.2-2.2c0,0,.2-.2.2-.3l.7,1.3c-.2.2-.9,1.2-1.9,3l-.8-1.2c.3-.8.8-1.4,1.2-2.1ZM4.4,5c0,0-.3,0-.3,0,0,0,0-.2,0-.3,0,0,.2-.2.3-.3,0,0,.3,0,.4,0s.2,0,.2,0c0,0,0,.2,0,.4h-.3s0,0-.2.3ZM6.9,16.1c-.2.3-.3.6-.5.9,0,.2-.2.3-.3.5,0,0-.2.3-.2.4h0c0,0-.4-.4-.7-.7.5-1.2,1.4-3.3,2.7-5l.8,1.5c-.4.4-.9.9-1,1.3,0,0-.2.2-.3.3-.3.2-.6.5-.5.9ZM8.8,18.8q0,0,0,0h-.9c.4-.3.6-.6.7-.8h0l.2.8q0,0,0,0ZM9.7,16.7q0,0,0,0c-.2.3-.5,1.2.2,1.7,0,0-.2,0-.4.2,0,0-.4.2-.7.3h0c0,0,0-.2,0-.3,0-.3,0-.5-.2-.7h0c0-.3-.5-1.3-.8-1.8-.3-.4-.4-.5-.4-.5h0c-.2,0-.3.2-.3.3,0,0,0,0,0,0,0-.3,0-.4.3-.6,0,0,.3-.2.3-.4.3-.5.7-.9.9-1.2l1.9,3.9c-.2.3-.4.5-.7.7-.6-.7,0-1.6,0-1.7h0ZM11.1,17.2c-.2,0-.3,0-.4.3l-4.4-8.9h0l-1.7-3.5h0c0,0,0-.2.2-.2h.3l6,12.3ZM10.9,12.8c-.2.2-.3.3-.3.5s0,.3.2.5c.2.2,1.2,1.2,1.6,1.9.3.5.9,1.5.9,2,0,1.3,0,2-.2,2.6,0,.3,0,.5-.2.9l-.8-1.5h0q0,0,.2,0c0,0,.3-.4.3-.6s0,0,0-.2q0,0,0-.2c0,0,0-.3,0-.4,0,0,0-.3,0-.3,0,0-.2,0-.4-.2,0,0,0-.2,0-.3,0,0-.2,0-.4,0h-.8l-1.9-3.9c.9-.2,1.4-.4,1.8-.6ZM11.3,12.5h0c.2-.3.3-.5.4-.9h0c0-.2,0-.4,0-.7v-.6s.2,0,.3,0c0,0,.2.3.3.3h0c.2,0,0-.3,0-.5,0,0,0,0,0,0,.2,0,.4-.2.6-.5h0v-.2c0,0,0,0,0-.2s0-.2,0-.2c0-.2,0-.3,0-.6.3,0,.5-.3.6-.5h.5c0,0,.3,0,.5,0,0,0,.2.2.3.5,0,.4,0,.9,0,.9-.2.2,0,.6,0,.8h0c0,0,.2.3,0,.3,0,0,0,0-.2.2h0c0-.2-.2,0-.3,0h-.2v.2h.3v.3h-.6c.2.2.4.4.5.4,0,0,0,0,0,.2h0c0,.3,0,.4-.2.5-.3.2-.8,0-.9,0h0c-.4-.3-.6-.5-.6-.5h0c0,0,.3.3.7.5h0c0,.5,0,.8-.3.9-.2.3-.4.6-.2.9h0s0,0,0,0c-.2-.3,0-.6.2-.9h0c.5.9.2,3,0,4.4,0,0,0,.3,0,.4v.2-.5c0-.6-.6-1.6-.9-2.1-.5-.7-1.4-1.7-1.7-1.9,0,0-.2-.2-.2-.3s0-.3.3-.4c.3.3.4.2.5,0ZM12.5,10.5c0,0-.2,0-.3-.2h0c0,0,.2,0,.3,0,0,0,0,.2,0,.3ZM10.5,12.2c-.2,0-.3-.2-.3-.4,0-.3,0-.6.4-.8,0,.2,0,.3,0,.4h0c0,0,0-.3,0-.5s0-.3,0-.4c0,0,0-.3,0-.4v-.9h0c0-.4.3-.7.8-.9h0c-.3.2-.6.4-.7.7,0-.4.3-.7.5-.9h0c.2-.6.5-1,.9-1.2.5-.2,1,0,1.7.2h0s.9-.2,1.2.2c.2,0,.2.4.2.7-.3.2-.5,0-.7,0h-.3c0,0-.2,0-.5,0-.4,0-.9.3-1.4.2h0c0,0,.3,0,.4,0,.4,0,.8,0,1-.2.2,0,.3,0,.4,0h0c0,.2-.3.4-.6.5h0c-.2,0-.3,0-.5,0h-.2c-.7,0-1.3.2-1.5.9h0q0,0,0,0c.2-.6.9-.7,1.4-.8h.2c0,.4-.5.6-.9.7-.3,0-.5.2-.7.3,0,0-.5.5-.5.9h0c0-.4.3-.7.5-.8.2-.2.5-.3.7-.3.4,0,.8-.3.9-.8,0,0,.2,0,.3,0h0c0,.5-.2.8-.6.9-.2,0-.3,0-.4,0-.2,0-.4,0-.6.3h0q0,0,0,0c.2-.2.4-.2.6-.3,0,0,.3,0,.4-.2.4-.2.6-.5.6-1h0c0,.7-.3,1.2-.9,1.5s-.4.2-.6.3h0c-.4.2-.8.3-.9.8h0c.2-.2.3-.4.5-.5h0v.5c0,.2,0,.5,0,.6-.2.4-.6.6-.9.5ZM15.7,7.6c0,.2,0,.5-.3.6,0,0,0-.2-.2-.3,0-.3,0-.5-.2-.7.5,0,.7.2.7.4ZM15.1,11.2h0c0,0-.3,0-.4,0h0q.2,0,.3,0,0,0,0,0c0,0,0,0,0,0ZM14.7,11.2c0,0,.3,0,.4,0h0c0,0-.3,0-.4,0ZM14.8,13.7c.4,0,.7.3.9.5.4.4,1,1.4,1.4,2.3,0,.2-.4.5-.6.9-.2.3-.4.6-.6.9,0-.3,0-.6,0-.8h0c0-.2,0-.3,0-.5h0c0,0,0-.2,0-.3,0-.4.2-.8.2-1.1h0c0,.4,0,.8-.2,1.1h0c0-.4-.2-.7,0-1.3h0c0,.7,0,1,0,1.4,0,.2,0,.4,0,.6h0c0,.3,0,.8-.2,1s-.3.3-.4.3c0,0-.2,0-.4.3h0c0,0,.2,0,.3-.2,0,0,.2,0,.3-.2h0c-.3.5-.9,2.7-1,3.2-.3,0-.9,0-1.1-.2h0c.2-.5.2-1.5.2-2.5s0-1.2,0-1.5c0,0,0-.2,0-.4.2-1.2.5-3.1,0-4.2.3.5.7.6.9.7ZM17.1,16.8c0,0,0,.2,0,.4,0,0,.2.8.5,1.5.3.8.6,1.4.9,1.4s.8,0,1.1,0c.6,0,.9,0,1.3,0,.4,0,.8,0,1.2,0h.3c.2,0,.4,0,.6,0,.3,0,.6,0,.7,0,.3,0,.5,0,.7,0s.4,0,.5.2c.2.2.4.3.5.4,0,0,0,0,0,0h0s0,0,0,0h0s0,0,0,0h0c0,.2.2.2.3.3h0c0,0,0,.2,0,.2-.2,0-.7-.3-.9-.5h0s0,0,0,0c0,0,0,0,0,0h0c0,0,0,0-.2,0s-.2,0-.3,0-.2,0-.2,0c0,0,0,0,0,0h0q0,0,0,.2h0s0,0,0,0h0c.2,0,.5.2.5.3h0c0,.2-.2,0-.4,0-.2,0-.5-.3-.8-.2-.3,0-.5,0-.7,0s0,0-.2,0c0,0-.2,0-.3-.2h-2.4v.6c-.5,0-1,.2-1.6.2s-.6,0-.8,0c0,0-.6-.8-1.5-2.7,0,0,0-.2-.2-.3.2-.4.6-.9.9-1.2-.2-.2,0-.4,0-.6h0ZM25.4,20.5c0,0,0,0,.2,0h-.3c0-.2-.2-.2-.3-.3.2,0,.3,0,.4.2ZM26,24.4l.5,1.1h1.3l-1,.9h0l.5,1.5-1.2-.9h0l-1.2.9.5-1.5h0l-1-.9h1.3l.5-1.1ZM22.5,25.7h1.3l-1,.9h0l.5,1.5-1.2-.9h0l-1.2.9.5-1.5h0l-1-.9h1.3l.5-1.1.5,1.1ZM25.4,32l-1.4-.9h0l-1.4,1,.5-1.7h0l-1.1-1h1.5l.5-1.3.5,1.3h1.5l-1.1,1h0l.7,1.6ZM25.3,25.2l-1.2-.9h0l-1.2.9.5-1.5h0l-1-.9h1.3l.5-1.1.5,1.1h1.3l-1,.9h0l.5,1.5ZM28.1,33.2c0,0,0,0,0,0h-7.9c0,0,0,0,0,0,0,0,0,0,0,0h7.9q0,0,0,0ZM28.2,20.9h8.1v25.7c-1.3.6-2.7.9-4,.9h0c-1.4,0-2.7-.5-4.1-1,0,0,0-25.6,0-25.6ZM36.8,36.7h0c.5-.6.3-1.2.3-1.2h0c0,0,1.1-1.1,1.1-1.1h0l1,1-2,2h0c0-.4-.4-.7-.5-.7ZM26.2,41.1q0,0,0,0c0-.2-.2-.3-.2-.5s0-.2,0-.3,0-.2,0-.3c0-.2-.2-.3-.2-.5h0c0-.2,0-.4,0-.5,0,.2.2.3.2.5,0,.3.3.5.4.8,0,.2.2.3.3.5,0,0,0,0,0,.2h-.5c0,.2,0,.2,0,0ZM25.3,41l.2.5h-.3c0-.2,0-.3,0-.5ZM24.1,38.7s0,0,0,0q0,0,0,0h0c0,0,0,0,0,0ZM24,38.9h0c0,0,0,0,0,.2h-.4v-.2h-.2s0,0,0,.2h-.2c0,0-.2,0-.2,0,0,0,0,0,0,0,.3,0,.6,0,.9,0h0c0,0,.2.2.3.3h-.3c-.2,0-.2-.2-.2-.2ZM25,39.6h0v-.2q0,0,0,.2,0,0,0,0,0,0,0,0c0,0,0-.2,0-.2h0s0-.2,0-.3h0c0,0,0,0,0,.2,0,0,0,0,0-.2s0,0-.2-.2h0v-.2h0v.2h0c0,0,0-.2,0-.2h0c0,0,.2,0,.3,0h0c0,.2,0,.3.2.4.2.4.4.7.4.8,0,0,0,0-.2,0s0,0-.2,0h0c0,0,0-.2,0-.3ZM23.3,38.4h.2c.2,0,.5,0,.8,0,.4,0,.8,0,1.1,0h.5c0,0,0,0,0,.2s0,0,0,0h0c0,0,.2.2,0,.2q0,0,0,.2c0,0,0,0,0,0h0c0,0,0,0,0,0h0q0,0,0,.2h-.4c0,0,0,0,0,0h0c0,0,0,0,0,0h0c0,0,0,.2,0,.2h0c0,0,0-.2-.2-.3h.8c0,0,0,0,0,0v-.2h0v.2h-.3c0,0,0-.2,0-.2h0s0,0,0,.2h0c-.2,0-.4,0-.5,0h0c0,0,0,0,0,0h0q0,0,0,0c0,0-.2,0-.2,0h0c0,0,0,0,0,0-.2,0-.3,0-.4,0-.2,0,0-.2,0-.2h0s0,0,0,.2h-.3c-.2-.2,0-.3,0-.3ZM23.9,38.2h0s0,0,0,0q0,0,0,0h0c0,0,0,0-.2,0h0v-.2s0,0,0,0c0,0,0,0,0,0h-.3s0-.2,0-.3h.3c0,0,.3,0,.3,0h0c0,0,.2,0,.3.2q0,0-.3,0c0,0,0,0,0,0q0,0,0,0h0ZM23,41.1h0l-.2.2-.3-.2s.9-1.7,1-1.9h.7c0,.2-.9,2.2-.9,2.2h-.3q0-.2,0-.3h0ZM23.7,41.2c0,0,0,.2,0,.2h-.4l.9-2.3h.3v.2h0c0,0,0,.2,0,.3h0c0,0,0,.3-.2.6-.2.6-.5,1.3-.5,1.3h-.4c0,0,.2-.2,0-.3h0ZM24.7,41.3h0v.2h-.5l.6-1.8h0c0,0,0,0,0,.2,0,0,0,0,.3,0s.3-.2.3-.2h0s0-.4-.3-.8h.6l-.5,2.5h-.4l-.2-.2h0ZM25.9,41.4h-.4c0,0,0-.3-.2-.6h0s.2-1,.3-1.1c.2.3.3.7.5,1,0,0,0,0,0,0,0,.2,0,.3.2.4l-.5.2v-.2h0c0,0,0,.2,0,.2ZM27.6,36.4c.2,0,.2.2.2.2h-.5,0c0,0,0,0-.3,0h-.3,0q0,0,0,0h-.3c0,0,0,.2,0,.2h-.6s0,.5-.3,1h-.5c.3-.8.5-1.4.5-1.5,0,0,.3,0,.5-.2,0,0,0,0,0,0,0,0,0,.2-.2.3h0v.4c0,0,0,0,0,0h0c0,0,0,0,0,0h0v-.2h0c0-.2,0-.3,0-.3q0,0,.2,0h0v.2h0v-.2h0c0-.2,0-.3.2-.3h0q0,0,0,0h0v-.2c0,0,0,0,0,0h0v.2h0c0,0,0-.2,0-.3h0c0,0,0,0,0,0h.2l.3.6h0ZM27.2,35.8h.2q0,0,0,0s0,0,0,0h0c0,0,0,.2,0,.2h0c0,0,0,0-.2.2h0s0,0,0,.2h0c0,0-.2,0-.2.3h0c0,0,0,0,0,0h-.2q0,0,0-.2c0,0,0,0,0,0,.2,0,.4,0,.4-.2,0,0,0,0,0,0h0c0,0,.3-.2.3-.3h0v-.2c0,0,0,0,.2,0h0c0,0,0,0,0,0h0ZM26.9,35.4h.2-.4,0c0,0,0,0,0,.2h-.3c0,.2-.2.2-.3.3h0,0c0,0-.3.2-.5.3h0v.2c0,.2-.4,1.2-.4,1.3h-.6s.8-1.8.8-1.9h0c0,0,.2,0,.2-.2,0,0,0,.2,0,.3h0c0,0,0,.2,0,.3h0q0,0,0-.2,0,0,0,0h0c0-.4,0-.6.2-.6h0q0,0,0,0h0c0-.2,0-.5,0-.5,0,0,0,0,0,0h0v-.2h0c0,0,0-.3,0-.3,0,0,0,0,0,0h0v-.2h0q0-.2,0-.2h0v.2h0c0,0,.2,0,.2,0v1h0ZM26.4,34.9h0v.2h0q0,0,0,0h0c0,0,0,.2-.2.4h0c0,0,0,.2-.2.3h0c0,0,0-.2,0-.2h0c.2,0,.3-.2.3-.3,0,0,0,0,0,0h0c0-.2.2-.3.2-.4h0v-.3h0c0,0,0,0,0,0h.2c0,0,0,.2,0,.2h0ZM25.1,34.8h0c0,0,0,.2,0,.2h0q0,.2,0,.3h0c0,0,0,0,0,.2h0v.2h.2c0,.2,0,.3-.2.4h0q0,0,0,.2h0s0,0,0,.3h0c0,0,0,.2,0,.2,0-.2,0-.3,0-.3h0s0,0,0,0c0-.2.3-.4.2-.5,0,0,0,0,0,0h0c0,0,.2-.3.2-.3h0v-.2c0,0,0,0,0-.2h0c0-.2,0-.4,0-.4h0s0,0,.2,0h0l.2-.2v.2h.4,0v.2h-.2q0,0,0,0h0q0,0,0,.2h0q0,0,0,0s0,0,0,.2c0,0,0,0,0,0h0q0,0,0,0h0c0,0-.2.3-.3.4h0c0,.3-.5,1.4-.6,1.4v.3h0v.2h-.2l-.3-.2c0,0,0-.2,0-.2h0c0,0,0-.2,0-.3h0c0-.2,0-.3,0-.4h0c0-.2,0-.3,0-.4h0c0-.3,0-.4,0-.6h0c0-.3.2-.5,0-.6h-.2c0-.2.2-.3,0-.4h0v-.2h0c0-.2,0-.3,0-.4h0v-.2c0,0,0-.2,0-.2h0l.2-.2v.2h0c0,0,.2,0,.2,0h0s0,.2-.2.3v.5h0ZM23.8,34.9h0s0,0,0,0c0,0,0,0,.2.2h0v.2h0c0,0,0,.2.2.3h0q0,0,0,0c0,0,0,.4.2.5h0v.2h.2,0c0-.2-.2-.3-.2-.4h0q0,0,0,0h0c0,0,0-.2,0-.2h0q0,0,0,0h0s0,0,0,0h0v-.2h0c0,0,0,0,0,0h.2,0c0-.2-.2-.3-.2-.4h0s0,0,.2,0h0v-.2c0,0,.2.2.2.2h.2v.2h0v.2h0s0,.2,0,.3h0q0,0,.2,0h0v.2h0v.2h0q0,0,0,0h0s0,.2,0,.4h0c0,0,0,.2,0,.2h0c0,0,0,.3,0,.4,0,0-.2.6-.3.8,0-.3-.3-.7-.4-.9h0c0-.2,0-.5,0-.6h0s0,0,0,0c0-.2,0-.4,0-.4h-.2v-.3h0v-.3h.2v-.2c0,0,.3,0,.3,0h0c0,0,.2,0,.2,0h0v.3l-.5-.7ZM23.3,35.1h0q0,0,.2,0h0v.5h0v.3h0c0,0,0,.4,0,.6h0c0,.3.2.7.4,1,0,0-.3.8-.3.7s-.3-.9-.3-.9h0q0-.2,0-.3h0v-.2h0c0,0,0-.3-.2-.4,0,0,.3.2.4.2h0c-.2,0-.5-.3-.5-.4h.2q0,0,0,0h0c0,0-.3,0-.3-.2h0q0,0,0,0h0c0,0-.2-.2-.2-.3,0,0,0,0,0,0h0c0,0,0-.2-.2-.2s0,0,0,0h.2v-.2h.2q0,0,.2,0h0v.3h.3ZM22.3,35.2h.2c0,0,0,0,0,0h0v.2h0c0,.2.2.3.3.3h0-.2c0,.2.2.3.4.4q0,0,0,0h0c0,0,0,0,0,0,0,0,0,0,0,0,0-.2,0-.4-.2-.4,0,0,0,0,0,0h0c0-.2,0-.4-.2-.4h0q0,0,0,0,0,0,0-.2h0l-.2-.2ZM21.6,36.2h.2c0,0,0,0,.2,0h0c0,.2.2.2.4.3h0c0,0,0,0,0,0,0,0,.2,0,.4,0,0,0,0,0,0,0,0,0,.4.2.6.2h0c0,0,0,.2,0,.2h0v-.3h0c-.3,0-.5,0-.5,0h0c0,0,0,0,0,0h-.2c0,0-.3,0-.4,0h0q0,0,0-.2h-.2c0,0-.2,0-.2,0h0,0q0,0,0,0h-.4,0c0,0,0,0,0,0h0v-.2c0,0,0,0,0,0h0c0-.2,0-.2,0-.2h0s0,0,0,0h0v.2h0c0,0,0,.2,0,.2h0c0,0,0,0,0,0h0c0,0,0,.2.2.3h0q0,0,0,0h0c0,0,.2.2.3.4h0c0,0,0,.2,0,.3h0v.2h0c0,.4.3.8.3.8-.3,0-.6,0-.6,0l-.2-.8h-.3c-.2,0-.3,0-.3,0h0v-.2h-.4,0q0,0,0,0h.2q-.2,0-.3,0h0q0,0,0,0h-.4.2c0,0,0-.5,0-.5ZM20,35.1l-3.7-7.5h0c0-1.4-.2-2.4-.4-2.9-.3-.9-.8-1.9-1-2.4,0-.2-.2-.3-.2-.3,0-.6.8-2.7.9-3.2,0,0,0,0,0,.2,1.3,2.7,1.6,2.7,1.6,2.7.3,0,.5,0,.8,0,.6,0,1.1,0,1.6-.2v12.7c.3.2.3.5.3.8ZM14,22c.4,0,.6,0,.7,0h0c0,0,0,.2.2.3.3.5.8,1.4,1,2.3,0,.5.2,1.3.4,2.6l-2.7-5.4h.4c.2.2.3.5.3.5h0c0,0,0,0-.3-.3ZM13.1,21.2c0-.4,0-.8.2-1,0-.3,0-.5.2-.8,0,.9,0,1.7,0,2.2l-.3-.4ZM20,35.5h0c0,.6.2,1.1.3,1.7l-3.9-8h0l-4.9-9.8c0,0,.2,0,.3,0s0,0,.2,0h0l8,16.3ZM19.1,47.2h-.4c0,0,0,0,0,0h0q0,0,.2,0c0,0,0,0,0,0ZM18.8,46.6s.2,0,.4.3h0c0,0,0,0,0,0h0q0,0-.2-.2c0,0-.2,0-.2-.2h0c0,.3.2.3.2.3,0,0,0,0,.2.2h0c0,0-.2,0-.2,0h0v.2h.3q0,0,0,0c0,0-.2,0-.3,0,0,0,0,0,0,0h0q0-.2-.2-.2h0c0,0,0,0-.2,0q0,0-.2-.2h0c0-.3-.2-.4-.4-.6,0,0-.2,0-.3-.2,0,0-.3,0-.4-.2-.3,0-.4,0-.4-.2s0-.2,0-.4c0,0,0,0,.2-.2,0,0,.3-.2.4-.2h.6c.2,0,.4,0,.5,0h0q0,0,0,0,0,0,0,.2c0,.2.2.4.4.6,0,0,.3.2.5.3,0,0,0,0,0,0h0q0,0,0,.2v.2h0c0,0-.2-.2-.3-.2h0s0,0,.3.2h0v.2h0c-.4,0-.6-.3-.7-.2q0,0,0,0h0ZM25.2,47c-.6-.3-.6,0-.5.2,0,0-.3,0-.4,0-.3,0-.6-.2-.8-.2.3-.3.4-.6-.3-.4.6-.2.8-.8,0-.5.4-.2.7-.7,0-.4.4-.2.6-.6,0-.4.3,0,.4-.4,0-.4.3,0,.4-.4,0-.3.4-.2.3-.3,0-.2.3-.2.2-.2,0-.2.2,0,.2-.3,0-.2v-.2q0,0,0,.2c0,0,0,0,0,.2q-.2,0,0,.2c-.2,0-.4,0,0,.2-.4-.2-.3,0,0,.3-.4,0-.3.2,0,.4-.5-.3-.4.2,0,.4-.6-.4-.4.2,0,.4-.7-.4-.6.2,0,.5-.6-.3-.6,0-.4.3-.5,0-.9-.2-1.3-.2.4-.4.5-.7-.3-.5.5-.3.7-.8,0-.5.4-.2.7-.7,0-.4.4-.2.5-.6,0-.4.3-.2.4-.5,0-.4.3,0,.4-.4,0-.3.4-.2.2-.3,0-.2.3-.2.2-.3,0-.2.2,0,.2-.3,0-.2,0,0,0-.2,0-.2v.2c-.2,0,0,0,0,.2q-.2,0,0,.2c-.2,0-.4,0,0,.2-.4,0-.3.2,0,.3-.4,0-.3.2,0,.4-.5-.2-.4.2,0,.4-.7-.3-.4.2,0,.4-.7-.3-.6.2,0,.5-.7-.3-.6,0-.3.5h0c-.4,0-.8,0-1,0h-.3c.4-.3.5-.7,0-.5h0c.5-.3.6-.7,0-.4.4-.2.7-.7,0-.4.4-.2.5-.6,0-.4.3-.2.4-.4,0-.3.3,0,.4-.4,0-.2.4-.2.2-.3,0-.2.3-.2.2-.2,0-.2,0,0,.2-.3,0-.2q0,0,0-.2v.2c-.2,0,0,0,0,.2q-.2,0,0,.2c-.2,0-.4,0,0,.2-.4,0-.2,0,0,.2-.4,0-.3.2,0,.3-.5-.2-.4.2,0,.4-.7-.3-.4.2,0,.4-.4,0-.5,0-.5,0q0,0-.2-.2c-.2-.2-.3-.4-.3-.6h0c0,0,0,0,0,0h0c0-.2,0-.3-.2-.4h0c0-.3,0-.5-.2-.6-.3-1.2-.4-1.7-.4-3.5s-.2-1.1-.4-2c-.2-1-.5-2.3-.6-3.4,0-1.2,0-2.7,0-3.8v-1.6l4.1,8.2h0c.9,3.1,2.7,5.6,4.8,7.3,0,0,0,0,.2.2-.4-.2-.4,0,0,.4-.5-.3-.4,0,0,.4-.6-.4-.4.2,0,.4-.6-.6-.6,0,0,.4ZM26.9,48c-.3,0-.4-.2-.5,0-.3,0-.7-.3-.9-.4.4-.3.5-.6-.2-.5.6-.2.9-.7,0-.5.4,0,.8-.6,0-.4.4,0,.6-.5,0-.4.2,0,.3-.2.3-.2.4.3.9.6,1.3.9,0,0,0,0,0,0-.3-.2-.3,0,0,.3-.4-.3-.4,0,0,.4-.5-.4-.4,0,0,.4-.6-.5-.6,0,0,.4ZM28.5,48.3c-.4-.3-.4,0-.2.2-.3,0-.7-.2-.9-.3,0-.2,0-.3-.4-.2.5-.2.8-.6,0-.5.4,0,.8-.5,0-.4.4,0,.6-.5,0-.4.3,0,.4-.2.3-.3.5.2.9.5,1.4.6h0c-.2,0-.2,0,0,.2-.2,0-.3,0,0,.2-.3-.2-.2,0,0,.2-.3-.2-.3,0,0,.3-.5-.2-.5.2-.2.4ZM36,48.6c-.4,0-.8.2-1.1.3q0,0-.2,0c.2-.2,0-.3,0-.2q0-.2,0-.2c0,0,0-.2,0-.2q0,0,0,0v.2c0,0,0,0,0,.2-.2,0-.2,0,0,.2-.2,0-.3,0,0,.2,0,0-.2,0-.2,0-.6,0-1.2.2-2,.2h-.3c-.8,0-1.4,0-2.1,0,0,0,0,0,0,0,.3,0,.3-.2,0-.2q.2,0,0-.2c.2,0,.2-.2,0-.2v-.2s0,0,0,0c0,0,0,0,0,.2,0,0-.2,0,0,.2,0,0-.3,0,0,.2-.2,0-.2,0-.2,0-.5,0-.9-.2-1.3-.3.3,0,.4-.4,0-.3.4,0,.6-.4,0-.3.3,0,.4-.3,0-.3.2,0,.4-.2,0-.2.4,0,.3-.2,0-.2h.2c1,.3,2.2.6,3.3.6h0c1.1,0,2.3-.3,3.4-.8h0c-.2,0-.2,0,0,.2-.2,0-.3,0,0,.2-.3,0-.2.2,0,.2-.3,0-.2.2,0,.3-.5,0-.3.2,0,.3-.3-.2-.3,0,0,0ZM37.7,47.1c-.7-.2-.3.3,0,.4-.7,0-.5.2,0,.4h-.4c-.3.2-.6.3-.9.4,0-.2,0-.3-.3,0,.3-.3.3-.6,0-.3.2-.2.2-.5,0-.3.2,0,.2-.4,0-.2.3-.3,0-.3,0-.2.2-.2,0-.3,0-.2h0c.2,0,.3,0,.5-.2h.3c.2-.2.5-.3.7-.4,0,0,0,.2.3.3-.5,0-.3.3,0,.4ZM36.6,33.1h8c0,0,0,0,0,0h0c0,0-8,0-8,0,0,0,0,0,0,0,0,0,0,0,0,0ZM39.4,30.3v.5h0c0,0,0,.2,0,.3,0,.3,0,.3-.4.3v-.2c0,0,0-.2,0-.3h0c0,0,0,.2,0,.3s0,.2,0,.2h0c0-.2,0-.5.2-.7h0c0,0,0-.3,0-.5,0-.2,0-.3,0-.4v-.9c0,0,0-.2,0-.3h0c.2-.2.2-.4.3-.5h0q0,0,0,.2h0c0,0,0,.2,0,.2h0v.3c0,.2,0,.5-.2.6h0c-.2.3-.2.7-.2.9ZM37.3,27.5c0,0,.2,0,.3,0h0q0,0,0,0v-.2s0,0,0-.2h0c0,0,0-.2,0-.2s0,0,0-.4h0c0-.3,0-.4,0-.4h0c0-.3,0-.4,0-.5h0v-.2c0,0,0-.2.2-.2h0c0-.3,0-.4,0-.5h0c0-.2,0-.3.3-.4h0c0-.2,0-.3.3-.3h0c0-.2.2-.3.3-.2h0c0,0,.2-.2.3-.2h.2c0,0,.2-.2.3-.2s0,0,.2,0h0l-.4,2.7h0c0,.3.2.3.2.3h0c0,.3,0,.4,0,.4h0s0,0,0,0h0c0,.2,0,.3,0,.3,0,0,0,0,0,.2h0c0,0,0,.2,0,.3s0,.3,0,.4,0,0,0,.2c0,.2,0,.8-.2,1h0v1.6h0c0,.2,0,.2,0,.3,0,.4,0,.4-.4.4v-.5h0c0,0,0,.2,0,.3s0,.2,0,.2h0c0-.3,0-.6.2-.8h0v-.9h0c0-.4,0-.7,0-1.2h0c0,0,0,0,0-.2s0,0,0,0c0,0-.2,0-.2-.2h0q0,0,0,0c0,0,0,.4-.3.5h0c0,0,0,.2,0,.2h0q0,.5-.3.5h0c-.2,0-.3-.3-.3-.6s0-.7-.4-.9h0c0,0,0,0-.2,0-.2,0-.5,0-.5-.2.5-.4.6-.5.8-.6ZM40.4,22.1c.2-.2.4-.3.6-.3h0c.5,0,.8.4.8.8s0,.4-.2.6c0,0,0,0-.2,0h0v-.4h0c0,0,0-.2,0-.4,0-.3-.2-.5-.5-.5h0c-.3,0-.5.2-.5.5s0,.2,0,.3v.3h0v.2c-.2,0-.4-.4-.4-.7,0,0,0-.4.3-.5ZM41.3,23.3h0l.4,2.9s0,0-.2,0-.2,0-.3,0h-.2c-.3,0-.6,0-.7-.2l.4-2.8h0v-.3h0c0,0,.5,0,.5,0h0c0,0,0,.3,0,.3h0ZM42.4,31c0,0,0,.2,0,.3h0q0,.2-.2.2v-.5h0c0,.2,0,.3,0,.4h0c0,0,.2-.5.2-.5h0c0,0,0-.2,0-.3,0-.2,0-.3,0-.5,0-.5,0-.7,0-.9,0-.2,0-.3,0-.6s0-.2-.2-.3c0,0-.2-.2,0-.3h0c0,0-.2-.2,0-.3h0c0,0,0-.2,0-.3h0q0-.2,0-.2s0,0,0-.3h0c0-.2,0-.3,0-.4h0c0,.2,0,.2,0,.3s0,0,0,.2h0v.2c0,0,0,.3,0,.4,0,.2,0,.3.2.4,0,.2,0,.3.2.4,0,0,.2.2.2.3,0,.3.2.6.2.6h0c0,.2,0,.2,0,.3s0,0,0,.2c0,.2,0,.5,0,.7v.4s0,0,0,.2ZM42,23.6q0,0,0,0c.2,0,.4,0,.5.3h0c.2,0,.3,0,.4.4h0q.2,0,.2.4h0c.2,0,.3.2.3.4h0c0,0,.2.2.2.4h0q0,0,0,0,0,0,0,.2h0c0,0,0,.2,0,.4h0c.2.3,0,.7,0,.9h0c0,0,0,.4,0,.5h0c0,0,0,.3,0,.5s0,0,0,0h-.2c0,0-.2,0-.3-.2v-.5c0,0,0-.2,0-.2,0,0,0,0,0-.2q0-.2,0-.3h0c0-.2,0-.4,0-.5h0c0,0,0-.2,0-.4,0,0,0,0,0,0,0,0,0,0,0,0,0,.2,0,.3,0,.3,0,0,0,0,0,0,0,0,0,.3,0,.3h0c0,0,0,0,0,0h0c0,0,0,.2,0,.2q0,0,0,.3h0c0,0,0,0,0,0,0,0,0,0,0,.3v.2h0v.3c0,.2,0,.3.2.4,0,0,0,.2,0,.3,0,.2,0,.3,0,.5,0,.3,0,.5,0,.8,0,.2,0,.4,0,.5-.2,0,0,.2,0,.3s0,.2,0,.3h0q0,.2-.2.2v-.6h0c0,.2,0,.4,0,.5h0c0,0,.2-.5.2-.6,0,0,0,0,0,0,0,0,0,0,0-.2v-.3q0,0,0-.2c0-.3,0-.7-.2-.9h0v-.2c0,0-.3-.3-.3-.5s0-.2-.2-.3c-.2,0-.2-.2-.2-.3h0c-.2,0-.2-.2-.2-.3h0c-.2-.2-.2-.3,0-.4h0q0-.2,0-.3h0v-.2h0q0-.2,0-.2h0v-.2h0l-.4-2.8q0,0,.2,0h0c.2.2.3.2.4.3,0,0,0,0,0,0ZM49.5,11.4h0c0-.2,0-.2,0-.2h.5c0,.2-.2.3-.4.4,0,0,0,0,0,0t0,0ZM52.8,6.5c.6,0,.9,0,.9.2h0c-.3,0-.6,0-.9.2-.5.2-.8.5-1,.9h0c-.3.2-.5,0-.8,0,0,0,.4-.7,1.1-.8h0c-.9,0-1.2.9-1.2.9h0s-.2,0-.3.2h0s0,0,0-.2c0-.9,1.4-1.2,2.4-1.3ZM54.4,7.5c-.7.5-1.2.3-1.7.2-.3,0-.5,0-.7,0,.6-.5,1.5-.5,2.4-.4h0c0,0,.2,0,.3.2,0,.2,0,.3,0,.3-.4.3-.9.6-1.5.6h0c-.6,0-1-.2-1.3-.5h0c.2-.3.5-.2.9,0,.3,0,.9.3,1.6-.2h0s0,0,0,0ZM53.9,6.7h0q0,0,.2,0c0,0,.2,0,.2.2h0c-.8,0-1.6,0-2.2.2.2-.2.4-.3.7-.5.4-.2.7-.2.9-.2,0,.2.2.2.2.2ZM55,4.9c0-.2,0-.3,0-.4s-.2-.2,0-.4.3-.3.6-.2c0,0,.2,0,.3.3,0,0,0,.2,0,.3,0,.2-.3.2-.3.3,0,0-.3,0-.4,0,0,.6-.4,1.2-.4,1.3h0c0-.2.3-.9.5-1.3ZM55.1,6.3h0c0,0,0,0,0,0h0q0,0,0,0ZM55.4,6.5h0c.4-.4.9-.9,1.1-1.1,0-.2,0-.3,0-.4s0-.3,0-.4.2,0,.3,0,.2,0,.3.2.2.2.2.4c0,.3-.5.4-.5.4,0,0-.2,0-.4,0-.3.3-.8.8-.9,1,0,0-.2,0-.3,0,0,0,0,0,0,0h0ZM55.5,12.1c0,0,0-.2,0-.3,0-.2,0-.3.2-.5v.7c0,0,0,0,0,.2,0,0-.2.3-.2.3v-.4q0,0,0,0ZM55.4,10.9c0-.7.4-1.3,1.3-1.3h.4c.2.5-.2.7-.5.9-.4.2-.5.3-.7.6h0c0,.2-.2.5-.3.7,0,0,0,.3,0,.4v-.5c0-.2-.2-.5,0-.8ZM56.9,9.2h0c.2,0,.3,0,.5,0s.3.2.3.2h0c0,.2,0,.3,0,.3h0c0,0-.2-.2-.4-.3-.2,0-.3,0-.4,0h0c0,0,0,0,0-.2ZM57,8.9s0,0,0,0q0,0,0,0,0,0,.2,0c0,0,.3,0,.4,0,.2,0,.3.2.3.3h0c0,.2,0,.3-.2.3h0c0,0-.2-.2-.4-.3-.2,0-.3,0-.4,0h0c0,0,0,0,0-.2ZM57.2,8.4c0,0,.3.2.5,0,0,.2.2.3.4.3h0c0,0,0,.2-.2.2h0c0,0-.2-.2-.4-.3-.2,0-.4,0-.5,0h0s0,0,0-.2ZM57.5,8.2h0c0,0,.2,0,.3,0,0,0,0,.2,0,.3,0,.2.4.2.5.3,0,0-.3,0-.4,0-.2,0-.3,0-.3-.3h0c0,0,0,0,0,0-.2,0-.3,0-.4,0,0,0-.2-.2-.2-.4,0,.2.3.3.5.3ZM56.8,12.5c0,0-.2.2-.3.3v-.2h0c0,0,0,0,0,0l-.3.5h0c0-.2,0-.4,0-.6,0,0,0-.4,0-.4,0-.4,0-.8,0-.9,0-.2.2-.3.6-.5.2,0,.8-.5.6-1h0c.4.8,0,1.2-.3,1.8-.2.3-.4.5-.4.8,0,0,0,0,0,0h0s0,0,0,0c0-.2.2-.5.4-.8.3-.5.7-.9.5-1.6h0c.5,1.1-.4,2.1-.9,2.7ZM58.1,10.6c0,.3,0,.7,0,1,0,.2-.5,1-.4,1.5-.3,0-.5-.4-.5-.8.5-.6,1.1-1.4.8-2.2,0,0,0,.2.2.4ZM45.5,47h0q0,0,0,0h0q0,0,0,0h0c0,0,.2,0,.2,0h-.3c.2,0,0,0,0,0h0ZM55.1,12q0,0-.3,0c.2-.2.3-.5.4-.8v.5q0,0,0,.2ZM57.6,6.9q0,0,0,0c.4,0,.8-.2.9-.2,0,.2.2.5.4.7,0,0,0,0,0,0-.2-.2-.3-.3-.3-.4s0-.2,0-.2h0c0,0-.5,0-.8,0ZM57.9,7.3h0c0,0,0,.2-.2.2h0q0,0,0,0c0,0,.2,0,.3,0ZM57.5,7.6s0,0,0,0c0,0,0,0,0,0q0,0,0,0c0,0,0,0,0,0ZM57.3,7.7h0s0,0,0-.2q0,0,0,0c0,0-.2,0-.2,0ZM59.6,4.2l-1.1,2.5c0,0-.3,0-.5,0,.6-1.5.9-2.2,1.6-2.6ZM59.8,4.2c.2.9-.2,1.5-.9,2.7h0c0,0-.2-.2-.2-.3l1.1-2.5ZM58.6,8.2s0,0,0-.2h0c0,0,0,.2,0,.2ZM58.5,7.9h0q0,0,0,0c0,.2,0,0,0,0q0,0,0,0ZM58.5,7.6c0,0,0,.2.2.4h0c0,0,0,0-.2,0,0-.3,0-.4,0-.4ZM59.5,34.6h0v-1.5h0s0,0,0,0c0-.6,0-.9-.3-1.2h0c0-.2,0-.4,0-.5,0-.5-.2-.9-.2-1.3h0c0,.3,0,.5.2.7,0,0,0,0,0,0s0,0,0,0c0-.2,0-.4-.2-.6,0-.2-.2-.5-.2-.8h0v-1.4c0-.2,0-.5,0-.8.2.5.2,1.1.2,1.1,0,0,0,0,0,0h0s0,0,0,0c0,0,0-.9-.4-1.5h0v-1.1h0v-1.1c0-.2,0-.4,0-.7h0c0-.8,0-1.3,0-1.6,0-.5,0-.9,0-1.4,0,.2,0,.4,0,.6,0,0,0,0,0,0h0s0,0,0,0c0-.3,0-.6-.2-.9,0,0,0-.2,0-.4h0v-.3c0-.7,0-1.4,0-2.1v-.5c0,.2.2.3.2.4,0,0,0,0,0,0h0s0,0,0,0c0-.2-.2-.6-.5-.9h0c0-.4-.2-.6-.3-.9,0-.2,0-.4,0-.6h0c0,0,0,0,0,0h0c0,0,0,0,0,0,0-.2-.2-.4-.4-.6,0-.2-.3-.4-.5-.7,0,0-.2-.2-.4-.3,0,0,0,0,0,0,.6,0,1.3.4,1.5.9,0,0,0,0,.2,0,0,0,0,0,0-.2-.4-.8-1.6-1-2.3-1.1h-.4c0,0-.2,0-.3,0h0c0,0,0,0,0,0l.3-.6q0,0,0,.2h0c0,0,.2,0,.3-.3h0c0,.4.3.7.7.8h0c0-.5.3-1.4.4-1.6.2-.4.3-.8,0-1.1,0-.3-.3-.5-.5-.7,0,0,.2-.3.2-.4,0,0,.2-.2.2-.3h0c0,0,.2-.2.2-.3.2,0,.3,0,.4-.2h0c0,0,0-.2-.2-.2s-.3,0-.4-.2c0,0,0-.3,0-.4l.4-.9s0,.3.3.5h0c0,0-.2,0-.2,0h0c0,0,0,.3,0,.5,0,.3.2.5.3.5h0c0,0,.2-.3.2-.6h0v-.3h0c0,0,0,.2,0,.2h0c0-.4,0-.5,0-.5h-.2c0,0,0-.2,0-.2.9-1.4,1.2-2.1.9-3h0c0,0,0,0,0,0-1,.4-1.3,1.1-1.9,2.7h-.3v.3c0,0,0,0,0,0h.3c0,0,0,0,0,0,0,0,0,0,0,0-.2,0-.4.4-.3.5h.2c0,0,.3,0,.4,0,.2,0,.3-.3.4-.4h0c0-.2,0-.2-.2-.2h-.2c.2,0,.3,0,.4,0h0l-.5.9c0,0-.2.2-.3.2h0c-.2,0-.3,0-.4-.2q0,0-.2,0h0c0,.3,0,.5,0,.6,0,0-.2.2,0,.4h0c0,0,0,0,0,.2v.2c0,0-.2.2-.2.4-.9,0-1.2.8-1.4,1.3,0,.5-.6,1.4-.8,1.6,0,0,.7,0,.8-.3v.5l-.4.8c-.4,0-.7-.2-.9-.4h0c0-.4,0-.8,0-1.1.3-.2.6-.6.6-.7s0,0,.2-.2c.3-.4.9-1,.4-2.6h0c.2,0,.4,0,.6-.3.2-.3.3-.7.2-1,0,0,0-.2,0-.2l1.6-1.4c.2-.2.3-.6,0-.9-.4-.3-.7-.2-.9,0,0,0-1.5,1.8-1.5,1.8h0s.8-1.5.8-1.6c0-.3,0-.7-.4-.9-.4,0-.8,0-.9.4,0,.2-.7,2.4-.7,2.4h0c-.2,0-.8,0-1,0-.9,0-2.5.6-2.6,1.3q0,.2,0,.3h0c0,0-.2.3-.3.5,0,0-.2.3-.2.3,0,.2,0,.3,0,.4,0,0,0,0,0,.2h0c-.2.4-.6.8-.6,1.1s.2.2.3.2h0c0,.2,0,.2,0,.3s0,0,0,0h0s0,0,0,.2v.2c0,0,0,0,.2,0h0c0,.2-.2.4,0,.6,0,.2.2.3.4.4.3,0,.6,0,.9,0h0c0,0,.2.6.2.9,0,0-.3,0-.4.2-.4,0-.8.3-1.3.7h-.6c-.4,0-.8,0-1.1.2-.4.3-.9.9-1.1,1.1-.4.8-.5,1-.9,1.5-.4.6-.6.8-.9,1.3,0,.2-.2.4-.4.5-.4.5-.7.9-.6,1.4v.2h-17.9c-.2,0-.3,0-.5-.2-.4-.2-.7-.3-.9-.3h0c0,0-.2,0-.4,0s-.4,0-.7,0-.5,0-.8,0c-.2,0-.4,0-.6,0-.6,0-1,0-1.4,0s-.8,0-1.3,0-.7,0-1.1,0c-.2,0-.8-1.3-1.1-2.8,0-.2,0-.3,0-.4v-.2h0c-.3-1-1-2.1-1.4-2.5-.3-.2-.6-.4-.9-.5s-.8-.3-1.1-.6c0-.2.3-.5.2-.8.2,0,.6.2.9,0,.2,0,.3-.3.3-.7,0,0,0-.2,0-.2,0,0,0,0,0,0h0c0,0,0-.2,0-.2h0v-.3h0c.2-.2.3-.3.4-.4,0-.2,0-.3-.2-.5h0c0-.2-.2-.5,0-.6,0,0,.2-.7,0-1,0,0,0-.2,0-.2.2,0,.4-.4.3-.7,0-.3-.4-.5-.9-.5-.4-.3-1.1-.2-1.2-.2-.8-.4-1.3-.4-1.8-.2-.5.2-.8.6-.9,1.2-.9.9-.6,2.7-.5,3-.4.3-.5.7-.5.9s.2.5.5.5.6,0,.9-.5c0,.2,0,.4-.2.5h0c0,.2-1.2.6-2,.9L5,4.8c.2-.2.2-.4,0-.6,0,0-.2-.2-.4-.2h0c-.2,0-.3,0-.5.2s-.3.2-.4.4c0,.2,0,.3,0,.4s.2.2.4.2h0c0,.2-.3.4-.4.6-.9,1.3-2.7,3.9-3.1,5.8h0c0,.2,0,.4,0,.6v.3c0,.7.4,1.2,1.1,2.3,0,.2.3.4.4.6,0,.6-.3,1.3-.5,2.2-.4,1.3-.8,2.7-.7,3.9.2,1,1.3,2.3,2.3,3.2.6.6,1.1,1.1,1.2,1.4.3,1.2.6,1.7.8,1.7h0c.6,0,.7-.5.8-.9,0-.3,0-.5.2-.6h0c0-.2,0-.2-.2-.3-.2-.2-.6-.6-.9-1.3,0-1,.4-2,.6-2.8,0-.2,0-.4.2-.6.5,0,.9,0,1.3-.2.6-.2,1-.3,1.6-.6.3.7.5,1,.9,1.6,0,.3-.4,1-.7,1.8-.5,1.1-.9,2.4-1,3-.2.9-.2,2.4,0,3.7,0,1.5,0,2.9-.2,3.6-.3.8-.3,1.6-.3,2.3v.7c0,1.5,0,5.1.2,6.1h0c0,0,0,.2,0,.2-.2,0-.2,0,0,.2-.3-.2-.2,0,0,.2-.3-.2-.3,0,0,.2-.4-.2-.3,0,0,.3h0c0,0,.2,0,.2,0v.3c-1-1-1.9-2.2-2.5-3.1h0v-.3h0l-.3.2c-.2-.3-.3-.5-.4-.7s-.2-.4-.3-.5h0c0-.3-.2-.5-.3-.7h0c0,0,0,0,0,0h0c0,0,0-.2,0-.2h0c0-.2-.2-.3-.3-.3h0c0,0,0,0,.2.3h0,0c0,0,0,0,0,.2h0c0,0,0,0,0,0h0c0,0,0,0,0,.2h0c0,0,0,0,0,0h0c0,0,0,.2,0,.2h0c0,0,0,0,0,0h0c0,0,0,0,0,.2h0c0,0,0,.2,0,.2h0c0,0,0,0,.2.2s.2.3.3.5h.3c0,0,0,0,0,0,0,0,0,.2,0,.2h0c0,0-.3,0-.3,0h.3c0,0,0,0,0,0,0,0,0,.2.2.3h0c0,0-.3,0-.3,0h.4c0,0,0,0,0,0,0,0,.2.3.3.4,0,0,0,.2.2.3,0,0,0,0,0,0,0,0-.2-.2,0,0,0,0-.2,0,0,0q0,0,0,0c0,0,0,0,0,0q0,0,0,0,0,0,0,0h0c0,0,0,0,0,0q0,0,0,0,0,0,0,0c0,0,0,0,0,0,0,0,0,0,0,0,0,.2,0,0,0,0,0,.3,0,0,0,0,0,.3,0,.2,0,0h0c0,0,0,.2.2.3h0c0,.2.2.4.3.5h0q0,0,0,0c0,0-.3,0,0,0,0-.2-.3-.2,0,0,0,0-.3-.2,0,0,0,0-.2,0,0,0,0,0-.2,0,0,0q0,0,0,0,0,0,0,0,0,0,0,0h-.2.2q0,0,0,0,0,0,0,0c0,0,0,0,0,0,0,0,0,0,0,0,0,.2,0,0,0,0,0,.2,0,0,0,0,0,.3,0,.2,0,0,0,.3,0,.2.2,0,0,0,.2.2.3.3-.2,0-.3-.2-.2,0-.2-.2-.4-.2-.2,0,0,0-.3-.2,0,0,0,0-.3,0,0,0,0,0-.2,0,0,0,0,0-.2,0,0,0q0,0,0,0,0,0,0,0h-.2,0c0,0,0,0,0,0q0,0,0,0c0,0,0,0,0,0,0,.2,0,0,0,0,0,.2,0,0,0,0,0,.2,0,0,0,0,0,.3,0,0,0,0,0,.3.2.2.2,0,0,.4.2.2.2,0,.2.2.3.4.5.5-.2-.2-.5-.3-.3,0-.2-.2-.4-.2-.2,0,0,0-.4-.2-.2,0,0-.2-.3-.2-.2,0,0,0-.2,0,0,0,0,0-.2,0,0,0,0,0-.2,0,0,0q0,0,0,0c0,0,0,0,0,0h0,0c0,0,0,0,0,0q0,0,0,0c0,0,0,.2,0,0,0,.2,0,0,0,0,0,.2,0,0,0,0,0,.2,0,0,.2,0,0,.3.2,0,.2,0,0,.3.2.2.2,0,0,.4.2.2.3,0h0c0,0,.2.2.3.3h0c0,0-.2,0,0,.3h0c-.3,0-.5,0-.2.2-.2,0-.5-.2-.2,0-.2-.2-.4,0-.2,0,0,0-.4,0,0,0,0,0-.3,0,0,0,0,0-.2,0,0,0,0,0-.2,0,0,0,0,0,0,0,0,0,0,0,0,0,0,0h0,0c0,0,0,0,0,0q0,0,0,0c0,0,0,0,0,0,0,.2,0,0,0,0,0,0,0,0,0,0,0,.2,0,0,0,0,0,.3,0,0,0,0,0,.3.2.2.2,0,0,.3.2,0,.2,0,0,.4.2.2.2,0h0c0,0,0,.2,0,0q0,0,.2.2c0,0-.2,0,0,.3-.3-.2-.7-.2-.3,0-.2,0-.5-.2-.3,0-.2-.2-.4-.2-.2,0,0,0-.4-.2-.2,0,0,0-.3,0,0,0,0,0-.2,0,0,0,0,0-.2,0,0,0,0,0,0,0,0,0,0,0,0,0,0,0h0s0,0,0,0h0c0,0,0,0,0,0q0,0,0,0c0,0,0,0,0,0,0,.2,0,0,0,0,0,.2,0,0,0,0,0,.2,0,0,0,0,0,.3,0,0,.2,0,0,.3.2.2.2,0,0,.4.2.2.3,0,0,.5.2.2.3,0,0,.7.3.2.3,0,0,.8.2.2.3,0h0c.3.3.7.5.9.8-.2.2-.2.3-.3.5h0v.3c0,0,0,.2.4.3-.6,0-1.1,0-.4.3-.4,0-.9,0-.4.3-.3-.2-.7,0-.3.2-.2,0-.6,0-.2.2-.3,0-.5,0-.2,0-.2,0-.4,0-.2,0,0,0-.3,0,0,0-.2,0-.2,0,0,0-.2,0-.2,0,0,0,0,0-.2,0,0,0h0q0,0,0,0c0,0,0,0,0,0q0,0,0,0c0,0,.2.2,0,0,0,.3.2,0,0,0,0,.2.2,0,.2,0,0,.3.3,0,.2,0,0,.5.3,0,.2-.2,0,.5.3.2.3-.2.2.6.3.2.4-.3,0,.8.4.2.4-.3,0,.6.2.5.3.3,0,0,.2,0,.3,0h0c0,0,0,.2.4.3-.6,0-1.1,0-.5.3-.4,0-.9,0-.4.3-.4-.2-.8,0-.3.2-.3,0-.7,0-.2.2-.3,0-.5,0-.2.2-.2,0-.4,0-.2.2-.2,0-.4,0,0,0-.3,0-.3,0,0,0q-.2,0,0,0c0,0-.2,0,0,0h0c0,0,0,0,0,0,0,0,0,0,0,0q0,0,0,0c0,0,.2.2,0,0,0,.3.2,0,0,0,0,.2.3,0,.2-.2,0,.4.3,0,.2-.2,0,.5.3,0,.2-.2,0,.5.4.2.3-.2.2.6.4.2.4-.3,0,.8.4.2.4-.4,0,.9.5.2.4-.3-.2,0-.4,0-.6,0q0,0,0-.2h0c0,0,.2.2.5.3.3,1.2.5,0,.4-.3.3.2.7.3.9.5-.5,0-1.3,0-.2.4.5,1.2.5,0,.4-.3.4.2.9.3,1.3.5s.9.3,1.5.4c0,0,.3,0,.5,0,0,.2,0,.4,0,.8,0,0-.2-.2-.3-.2,0-.2,0-.5-.2-.6-.3,0-1.4.3-.6.4h-.3c-.2,0-.5,0-.6,0h0c0,0-.2,0-.3.2,0-.2,0-.5,0-.7-.6,0-1.4.3-.4.4-.7,0-1.2.4-.4.5-.5,0-.9.2-.3.4-.4,0-.8.2-.2.3-.3,0-.7,0-.2.2-.3,0-.6,0-.2.2-.3,0-.4,0-.2.2-.2,0-.4,0,0,.2-.3,0-.3,0,0,0-.2,0-.2,0,0,0-.2,0-.2,0,0,0,0,0,0,0,0,0,0,0,0,0,0,0,0,0,0,0,0,0q0,0,0,0c0,0,.2.2,0,0,.2.3.2,0,0-.2.2.2.3,0,.2-.2.2.4.3,0,.2-.2.3.5.3,0,.2-.2.3.5.4,0,.2-.3.4.6.4,0,.3-.4.3.8.5,0,.4-.5,0,.3.2.4.3.5-.3.4-.6.9-.9,1.4-.4.6-.8,1.1-1.1,1.6-.2.4-.2.8,0,1.1.4.7,1.1,1,1.9,1s.5,0,.8-.2c.3-.2.7-.9.9-1.3.2,0,.3.2.5.3.7.5,1.8,1.2,2.7,1.2s.9-.2,1.2-.7c0-.2,0-.4,0-.8v-.7c.3.2.3-.3,0-.7h0c.6.6.6,0,.3-.7.6.9.7,0,.4-.7h0c.5.9.7.5.6,0h.6c-.2.2-.2.4.7.3-.9.2-1.6.8-.5.7-.7,0-1.2.4-.4.6-.6,0-1,.4-.3.5-.4,0-.9.3-.2.4-.5,0-.8.3-.2.3-.4,0-.6.2-.2.3-.3,0-.5,0,0,.2-.4,0-.4.2,0,.2-.3,0-.3,0,0,.2-.2,0-.3.2,0,.2,0,0,0,.2,0,.2q0,0,0-.2c0,0,.2,0,0-.2q.2,0,0-.2c.2.2.3.2,0-.2.3.3.3,0,0-.2.3.3.4,0,.2-.3.3.4.5,0,.2-.3.4.6.5,0,.2-.4.5.7.6,0,.3-.4.6.7.6,0,.4-.6.5,1,.7,0,.4-.8.5,1.1.7.4.6-.2h.2c.2.3.3.2.3,0h.3c-.5.2-.8.5.3.5-.9,0-1.6.6-.5.7-.7,0-1.2.3-.4.6-.6,0-1,.3-.3.4-.4,0-.9.2-.3.3-.5,0-.8.2-.2.3-.4,0-.6,0-.2.3-.3,0-.5,0-.2.2-.4,0-.4,0,0,.2-.3,0-.3,0,0,.2-.2,0-.3,0-.2.2,0,0,0,0,0,.2q0,0,.2,0c0,0,.2,0,0-.2,0,0,.2,0,0-.2,0,.2.3.2,0-.2.2.3.3,0,.2-.2.3.3.4,0,.2-.3.3.5.5,0,.2-.3.4.7.5,0,.3-.3.4.7.6,0,.3-.4.6.8.6,0,.4-.6.4,1,.7.2.5-.7.5,1.2.7.4.6-.3h0c.3.5.5.4.5,0,.2,0,.4,0,.6.2-.7,0-1.1.6,0,.6-.8,0-1.5.7-.5.7-.6,0-1.1.4-.3.6-.6,0-.9.3-.3.4-.4,0-.9.3-.2.3-.4,0-.7.2-.2.3-.3,0-.5.2-.2.3-.3,0-.5,0,0,.2-.4,0-.3,0,0,.2-.3,0-.3,0,0,.2-.2,0-.3,0,0,.2,0,0,0,0,0,.2,0,0,0,0,0,0,0,0,.2,0,0-.2,0,0,.2,0,0-.2,0,.2.3.2,0-.2.2.3.3,0,0-.2.3.3.4,0,.2-.3.3.4.4,0,.2-.3.4.6.4,0,.2-.3.4.6.6,0,.3-.4.6.7.6,0,.4-.6.5.9.7,0,.4-.7.5,1.1.7.2.5-.4h0c.4.5.5.4.5.2h0c0,0,0,.2.7.3.5.9.6.6.5,0,.3,0,.5.2.8.3-.5,0-1.2,0,0,.4.6,1.2.5,0,.4-.3h0c.3.3.7.5.9.8-.4,0-1.5,0-.3.4.4,1.1.5,0,.4-.3.3.3.6.6.9.9.3.3.5.6.6.8-.3,0-1.2,0-.3.3.3.9.4,0,.3-.2.2.3.3.6.3.9h0c0,0,0,0,0,0,0,0,.2-.6.2-.6h0c-.2-.4-.6-.9-.9-1.3-.3-.3-.6-.6-.9-.9.2,0,.5,0,.7-.2h.2c0,.2,0,.5.2.7-.8-.9-.4.2-.2.4.3,0,1.4-.4.2-.4.5,0,1.2-.5.2-.4.2,0,.3,0,.5-.2h.8,0c0,0-.2.2,0,.4-.3-.4-.3,0-.2.3-.3-.6-.4,0-.3.4-.4-.8-.5,0-.2.4.4,0,1-.4.2-.4.5,0,.9-.4.3-.4.2,0,.4,0,.4-.2,0,0,.2,0,.4.2-.7,0-.2.3.3.4-.9,0-.2.4.2.4.2-.4,0-1-.2-.4,0-.5,0-.9-.3-.4,0-.3,0-.7-.2-.3,0-.2,0-.5,0-.4h0,.7c0,0,.3,0,.5.2-.9,0-.3.4.2.4-1.2,0,0,.4.2.4.2-.2.5-1.3-.2-.4,0-.2.2-.5.2-.7h.2c.2,0,.6.2.8.2-.3.3-.6.6-.9.9-.3.3-.5.6-.7.9,0,.2-.2.4-.3.5h0s0,.5.2.6h0c0,0,0,0,0,0,0-.2,0-.5.3-.8,0,.3,0,1,.3.2.9-.4,0-.4-.3-.3.2-.3.4-.5.6-.8.3-.3.5-.6.9-.9,0,.4,0,1.4.4.3,1.1-.5,0-.5-.3-.4.3-.3.6-.5.9-.8,0,.4-.2,1.6.4.4,1.3-.4,0-.5-.3-.4h0c.3-.2.6-.3.9-.4,0,.5,0,1,.5,0,.9-.2.8-.3.5-.4,0,0,0,0,.2,0,0,.4,0,.6.6-.2h0c-.3.6-.2,1.7.4.6-.2.8,0,1.6.4.7-.2.6-.2,1.1.4.6-.3.5,0,.9.3.4-.2.3-.2.9.2.3-.2.4,0,.7.2.3-.2.3,0,.6.2.3,0,.2,0,.5,0,.2-.2.3,0,.3,0,.2,0,.3,0,.3,0,.2,0,.2,0,.3,0,.2,0,0,0,0,0,0,0,0,0,0,0-.2,0,0,0,0,0-.2q.2,0,0-.2c.2,0,.3-.2,0-.2.4,0,0-.2,0-.2.4,0,.2-.3-.2-.3.5,0,.2-.3-.2-.3.7,0,.2-.4-.2-.3.7,0,.3-.4-.3-.4.9-.2.3-.5-.3-.6,1,0,.3-.5-.5-.7,1.3,0,.4-.6-.3-.6h0c.4,0,.6,0,.6-.2q0,0,.2,0c0,.4,0,.6.5-.2h0c-.2.7,0,1.7.5.4-.2.9,0,1.8.5.7-.2.7,0,1.3.4.6-.3.5,0,1,.3.4-.2.4,0,.9.3.3-.2.4,0,.8.2.3-.2.3,0,.6.2.3,0,.2,0,.6.2.2-.2.4,0,.4,0,.2,0,.3,0,.3,0,.2,0,.2,0,.3,0,.2q0,0,.2,0,0,0,0-.2c0,0,0-.2-.2-.2.2,0,.2-.2,0-.2.2,0,.3-.2,0-.2.4,0,0-.3-.2-.2.4-.2,0-.4-.2-.3.5,0,.2-.4-.2-.3.7,0,.2-.4-.3-.3.8-.2.3-.5-.3-.4.9-.3.3-.5-.4-.6,1.1,0,.4-.6-.5-.7,1.1,0,.8-.4.2-.6,0,0,.3,0,.4,0,0,.2,0,.3.4,0h0c-.2.7,0,1.4.6.3-.3.9,0,1.7.4.8-.2.7-.2,1.3.4.6-.3.5-.2,1,.3.4-.2.4-.2.9.2.4-.3.4,0,.8.2.3-.2.3,0,.6.2.3-.2.2,0,.5,0,.2-.2.4,0,.4,0,.2,0,.3,0,.3,0,.2,0,.2,0,.3,0,.2,0,0,0,0,0,.2q0,0,0-.2c.2,0,0,0,0-.2q.2,0,0-.2c0,0,.2,0,.2,0h0c.3.6.7.8,1.2.8.9,0,2.2-.8,2.7-1.2,0,0,.2,0,.3-.2,0,0,0,0,.2,0,.2.5.6,1,.9,1.2.2,0,.5.2.8.2.8,0,1.5-.5,1.9-1.1.2-.4.2-.8,0-1.1-.4-.6-.8-1-1.1-1.6-.4-.6-.8-1-1-1.5-.2-.3-.5-.4-.9-.4.7-.2-.4-.4-.7-.4,0,0,0,.3-.2.5-.2,0-.3,0-.5.2,0,0,0,0-.2-.2v-.7c0,0,0-.2,0-.3,0,0,0-.2,0-.2,0,0,0,0,0-.2.3-.4.4-.8-.4-.3.6-.5.9-1.1,0-.7.4-.3.7-.7.3-.7,0,0,.2-.2.3-.2.2,0,.5-.2.6-.2s.2,0,.2,0c.2,0,.3,0,.5-.3h0c0-.3,0-.8,0-.8-.3-.9,0-2.1.3-3.2.4-1.2.7-2.6.4-3.9h0c.3,1.3,0,2.7-.4,3.9-.3,1.2-.6,2.4-.3,3.3,0,0,0,.5,0,.6h0c0,0-.2.2-.3.2s-.2,0-.2,0h-.2c-.2,0-.4,0-.7.2h0c0,0-.2.2-.3.4h0c0,0-.2.3-.3.4h0c0,.2-.2.2-.3.2h-.2c0,0-.2,0-.2,0h0q0,0,0,.2c0,0-.2.2-.4.2h0c0,0-.2,0-.3,0,0,0,0,0,0-.2h.2c0,0,.2,0,.2,0h0q0,0,0,0s0,0-.2,0c0,0,0,0,0,0,0,0,0,0,0,0,0,0,0-.2.2-.2h0c0,0-.2,0-.2.2h0q0,0,0,.2h0c0,0,0,0,0,0h0c0,0,.2-.2.3-.3h0q0,0,0,0c0,.2-.2.3-.2.3h0v-.2h0c0,0,.2-.2.3-.3h0q0,0-.2,0h0c0,0,0-.2,0-.2q0,0,0-.2s0,0,.3-.2h0c.3-.6.8-.9,1-1.2l.2-.2c0,0,0,0,0,0h0c.4-.8.2-2.2,0-3.7-.2-1.1-.3-2.5-.3-3.6h0q0,0,0,0c0,1.1,0,2.5.2,3.7.2,1.5.4,2.8,0,3.5h0c0,0-.2.2-.4.4-.3.3-.7.6-.9,1,0,0,0-.2-.4,0,.4-.2.5-.6,0-.4.3,0,.4-.4,0-.3.3,0,.4-.3,0-.2.4-.2.2-.3,0-.2.3-.2.2-.2,0-.2.2,0,.2-.3,0-.2v-.2s0,0,0,.2c0,0,0,0,0,.2q-.2,0,0,.2c-.2,0-.4,0,0,.2-.4,0-.3,0,0,.2-.4,0-.3.2,0,.3-.5-.2-.4.2,0,.4-.7-.3-.4.2,0,.4-.6-.3-.6,0-.2.3h0c-.4,0-.4.3,0,.5,0,0,0,0,0,0h0c-.5,0-.9,0-1.4-.2.3-.4.4-.7-.3-.5.5-.3.7-.9,0-.5.4-.2.7-.8,0-.4.4-.2.5-.6,0-.4.3-.2.4-.5,0-.4.3,0,.4-.4,0-.3.4-.2.2-.3,0-.2.3-.2.2-.3,0-.2,0-.2.2-.3,0-.2v-.2s0,0,0,.2c0,0,0,0,0,.2q-.2,0,0,.2c-.2,0-.4,0,0,.2-.4,0-.3.2,0,.3-.4,0-.3.2,0,.4-.5-.2-.4.2,0,.4-.7-.3-.4.2,0,.4-.7-.3-.5.3,0,.5-.7-.2-.6,0-.3.5-.5,0-.9,0-1.3,0,.2-.3,0-.5-.5-.2.5-.3.6-.9,0-.5.4-.2.6-.8,0-.4.4-.2.4-.7,0-.4.3-.2.4-.5,0-.4.2,0,.3-.4,0-.3.4-.2.2-.3,0-.2.2-.2.2-.3,0-.2,0-.2,0-.3,0-.2q0,0,0-.2v.2c-.2,0,0,0,0,.2q-.2,0,0,.2c-.2,0-.4,0,0,.2-.4,0-.2.2,0,.3-.4,0-.3.2,0,.4-.5-.2-.4.2,0,.4-.7-.3-.4.3,0,.4-.8-.3-.5.3,0,.5-.7-.2-.6,0-.4.4-.4,0-.8.2-1.1.3h0c0-.3,0-.4-.5,0,.5-.4.6-.9,0-.5.3-.3.5-.9,0-.4.4-.3.4-.7,0-.4.3-.2.3-.5,0-.4,0,0,0,0,0,0,2-1.5,3.4-3.5,4.4-5.9l2.9-6.2v.6c0,1.4,0,2.7,0,3.1h0c0-.4,0-1.7,0-3.1v-.7l.2-.5v2.2s0,0,0,0,0,0,0,0v-2.5h0c0,0,.3-.6.3-.6v1.6c0,1.7,0,3.3,0,3.7h0c0-.4,0-2,0-3.7v-1.7l.7-1.4v1.9c0,2.1,0,4.1-.2,5.1h0c.2-.9.2-3,.2-5.1v-2l.3-.8v1.6q0,0,0,0,0,0,0,0v-1.5h0c0-.2.2-.4.2-.6,0,.4,0,.9,0,1.3v3c0,1.5,0,3.1,0,4.1h0c.2-.9,0-2.6,0-4.1v-2.8s0,0,0,0c0-.3.2-.7.4-1,0-.3.3-.6.3-.8,0,0,0,0,0,0,0,0,0,0,0,0,0,.2-.2.5-.3.8,0,.2-.2.5-.3.7,0-.4,0-.8,0-1h0c0-.4.2-.7.5-1h0c0,0,0,0,0,0-.3.4-.4.8-.5,1.1,0,.2,0,.4-.2.6h0v-.3h0c0,0,2.6-5.5,2.6-5.5h.2c.3,0,.4,0,.5,0s0-.2.2-.3c0,0,.3-.2.3-.3v-.3c0,0,.2-.2.2-.3s0-.2,0-.3h0c0,0,.2-.2.2-.4s-.2-.3-.3-.3l1.4-3c0,.2,0,.3,0,.4h0q0,0,0,0c0,0,0,0,0-.2s0-.4,0-.6h0c0,0,.2-.6.2-.6v1c0,0,0,0,0,0h0c0,0,0,0,0,0v-1.3h0c0,0,.5-1,.5-1,0,.3,0,.6.2.8,0,.5.2.9,0,.9v.2h.2c.2-.2,0-.6,0-1.1,0-.3-.2-.7-.2-.9h0c0,0,.4-.9.4-.9,0,.4,0,.8.2,1.1,0,.5.3.9.3,1.4s0,0,0,0,0,0,0,0c0-.5,0-.9-.3-1.4,0-.6-.3-1-.2-1.4h0v-.2h0c.4.3.5.9.6,1.6,0,.4,0,.8.2,1,0,0,0,0,0,0h0c0,0,0,0,0,0,0-.3,0-.7-.2-.9,0-.7-.2-1.4-.6-1.8h0s0,0,.2,0q0,0,.2-.2c.5.3.8,1,.9,1.7,0,.3.2.6.3.7h0q0,0,0,0c0,0,0,0,0-.2s-.2-.4-.3-.7c-.2-.7-.5-1.5-1-1.8h0c0,0,0-.2.2-.4h0c0,0,.2.3.4.4.5.5,1.2,1.2,1.3,2.1,0,0,0,0,0,0h0c0,0,0,0,0,0,0-.9-.9-1.7-1.3-2.2-.2-.2-.3-.3-.3-.4h0c0,.2.4.3.7.5,0,0,.3.2.4.3,0,0,.2.3.3.4.5.5.5.9.6,1.1,0,.2,0,.4.2.6,0,0-.2-.2-.3-.2h0c0,0,0,.2,0,.3,0,.2.2.4,0,.8,0,0,0,0,0,0,0,0,0,0,0,0,0-.4,0-.7,0-.9h0c0,0,.2,0,.3.2h0c0,.3.2.5.2.9v.8h0c-.2.3-.3.6-.3,1.1,0,0,0,0,0,0,0,0,0,0,0,0,0-.5,0-.8.2-1,0,.4,0,.7,0,1h0c0,0,0,.3,0,.5h0c0,.8,0,1.4,0,2,0,.7-.3,4.4,0,5.7v1.2h0v.2c0,.7,0,1.3.3,2,0,0,0,.3,0,.4h0c.2,1,0,2.1,0,2.7v.6c0,.3,0,1.1,0,1.4-.4.3-1.3.7-2.2,1-.6.2-1.1.5-1.5.7-.5.3-1.1.7-1.8,1-.9.6-2,1.2-2.7,1.4h0c0-.3.3-.7.3-.7,0,0,0,0,0,0,0,0,0,0,0,0s-.2.2-.5.8c0,.3-.3.6-.4.8h0c0,0,0,0,0,0,0-.2.2-.4.3-.6v.5h.2c0,0,.9-1.2.9-1.2l1.2.2.9-1.5,1.1.4.9-1.3,1.4.4.7-1.3,1,.5h0v-1.1h0c0-.2,0-.7,0-.9h0c0,.3,0,.6,0,.7,0,0,0,0,0,0,0,0,0,0,0,0,0-.2,0-.4,0-.7.5.4.5,0,.5,0Z"/>
</svg>